<svg width="57" height="65" viewBox="0 0 57 65" fill="none" xmlns="http://www.w3.org/2000/svg">
<path d="M32.3191 51.3831L30.9574 58.1916H25.5106L24.1489 51.3831" stroke="#E37021" stroke-width="2" stroke-miterlimit="10"/>
<path d="M32.3191 63.6382L30.9574 58.1914H25.5106L24.1489 63.6382" stroke="#E37021" stroke-width="2" stroke-miterlimit="10"/>
<path d="M20.0638 36.4043V41.8511H18.7021L14.617 45.9362L7.79625 49.1471C4.12102 50.1003 1.06945 52.7774 1 55.4681V65" stroke="#0061AA" stroke-width="2" stroke-miterlimit="10"/>
<path d="M41.851 13.2553V15.9787L44.5744 17.3404V22.6919C44.5744 23.6029 44.1196 24.4526 43.3611 24.9578L41.851 26.8723C41.851 26.8723 41.851 29.0075 41.851 29.5957C41.851 34.8723 34.8723 37.1709 33.6808 37.766C32.4893 38.361 30.4467 39.1277 28.234 39.1277C26.0212 39.1277 23.9787 38.361 22.7872 37.766C21.5957 37.1709 14.617 34.8723 14.617 29.5957C14.617 28.9626 14.617 26.8723 14.617 26.8723L13.1068 24.9578C12.3484 24.4526 11.8936 23.6029 11.8936 22.6919V17.3404L14.617 15.9787V13.2553C14.617 6.4863 20.1033 1 26.8723 1H29.5957C36.3647 1 41.851 6.4863 41.851 13.2553Z" stroke="#0061AA" stroke-width="2" stroke-miterlimit="10"/>
<path d="M20.0638 41.8511L28.2341 48.6596" stroke="#0061AA" stroke-width="2" stroke-miterlimit="10"/>
<path d="M28.2341 48.6597L21.4256 54.1065L14.6171 45.9363" stroke="#0061AA" stroke-width="2" stroke-miterlimit="10"/>
<path d="M36.4043 36.4043V41.8511H37.766L41.8511 45.9362L48.6719 49.1471C52.3471 50.1003 55.3987 52.7774 55.4681 55.4681V65" stroke="#0061AA" stroke-width="2" stroke-miterlimit="10"/>
<path d="M36.4042 41.8511L28.234 48.6596" stroke="#0061AA" stroke-width="2" stroke-miterlimit="10"/>
<path d="M28.234 48.6597L35.0425 54.1065L41.851 45.9363" stroke="#0061AA" stroke-width="2" stroke-miterlimit="10"/>
</svg>
