<svg width="66" height="56" viewBox="0 0 66 56" fill="none" xmlns="http://www.w3.org/2000/svg">
<path d="M52.3921 40.1378L60.8262 35.3357" stroke="#0061AA" stroke-width="2" stroke-miterlimit="10"/>
<path d="M56.5659 47.2682L65 42.4661" stroke="#0061AA" stroke-width="2" stroke-miterlimit="10"/>
<path d="M50.3053 36.5745L47.8955 37.9465C46.7115 38.6202 46.2246 40.4834 46.2246 40.4834L42.5668 42.5662C40.5703 43.7022 39.8872 46.2199 41.0392 48.1888L42.4305 50.5651L43.8218 52.9401C44.9738 54.9104 47.5268 55.584 49.5234 54.448L53.1811 52.3653C53.1811 52.3653 55.0607 52.8798 56.2433 52.2061L58.6531 50.8341L50.3053 36.5745Z" stroke="#0061AA" stroke-width="2" stroke-miterlimit="10"/>
<path d="M42.4373 50.5803C28.598 56.2578 12.2863 51.1333 4.48671 38.0275C-2.59084 26.1347 1.44812 10.8365 13.5079 3.8569C23.5281 -1.94271 36.4185 1.36802 42.2981 11.2494C47.1844 19.4583 44.3962 30.0217 36.0707 34.8389C34.031 36.0189 31.8174 36.6527 29.6081 36.7845" stroke="#0061AA" stroke-width="2" stroke-miterlimit="10"/>
<path d="M23.496 20.9346L25.9141 7.72461L12.5938 27.4792L20.7064 26.3404L18.2884 39.5504L31.6087 19.7958L23.496 20.9346Z" stroke="#E37021" stroke-width="2" stroke-miterlimit="10" stroke-linejoin="round"/>
</svg>
