<?xml version="1.0" encoding="utf-8"?>
<!-- Generator: Adobe Illustrator 16.0.3, SVG Export Plug-In . SVG Version: 6.00 Build 0)  -->
<!DOCTYPE svg PUBLIC "-//W3C//DTD SVG 1.1//EN" "http://www.w3.org/Graphics/SVG/1.1/DTD/svg11.dtd">
<svg version="1.1" id="Layer_1" xmlns="http://www.w3.org/2000/svg" xmlns:xlink="http://www.w3.org/1999/xlink" x="0px" y="0px"
	 width="16px" height="16px" viewBox="0 0 16 16" enable-background="new 0 0 16 16" xml:space="preserve">
<g>
	<defs>
		<rect id="SVGID_1_" width="16" height="16"/>
	</defs>
	<clipPath id="SVGID_2_">
		<use xlink:href="#SVGID_1_"  overflow="visible"/>
	</clipPath>
	<path clip-path="url(#SVGID_2_)" fill="#F6F6F7" d="M0.98,7.372l9.531-4.156c0.94-0.433,4.132-1.818,4.132-1.818
		s1.473-0.606,1.35,0.866c-0.041,0.606-0.367,2.727-0.695,5.021l-1.023,6.796c0,0-0.081,0.994-0.776,1.168
		c-0.696,0.174-1.842-0.605-2.046-0.779c-0.163-0.13-3.067-2.077-4.131-3.029c-0.288-0.26-0.614-0.78,0.041-1.386
		c1.473-1.429,3.232-3.203,4.294-4.328c0.491-0.52,0.981-1.732-1.063-0.26L4.826,9.579c0,0-0.654,0.433-1.881,0.043
		c-1.228-0.39-2.659-0.909-2.659-0.909S-0.697,8.064,0.98,7.372z"/>
</g>
</svg>
