<svg width="66" height="66" viewBox="0 0 66 66" fill="none" xmlns="http://www.w3.org/2000/svg">
<path d="M47.4 1H18.6L1 18.6V47.4L18.6 65H47.4L65 47.4V18.6L47.4 1Z" stroke="#0061AA" stroke-width="2" stroke-miterlimit="10"/>
<path d="M33 42.6C30.3488 42.6 28.2 44.7488 28.2 47.4C28.2 50.0512 30.3488 52.2 33 52.2C35.6512 52.2 37.8 50.0512 37.8 47.4C37.8 44.7488 35.6512 42.6 33 42.6Z" stroke="#E37021" stroke-width="2" stroke-miterlimit="10" stroke-linejoin="round"/>
<path d="M33 36.2C34.7392 36.2 35.8 35.2496 36.2 33.8C36.6 32.3504 37.4496 22.4416 37.8 17.1776C37.9936 14.2672 35.6512 12.2 33 12.2C30.3488 12.2 28.0064 14.2672 28.2 17.1776C28.5504 22.4416 29.4 32.3488 29.8 33.8C30.2 35.2512 31.2608 36.2 33 36.2Z" stroke="#E37021" stroke-width="2" stroke-miterlimit="10" stroke-linejoin="round"/>
</svg>
