<svg width="66" height="66" viewBox="0 0 66 66" fill="none" xmlns="http://www.w3.org/2000/svg">
<path d="M25.3556 35.3926L1 48.3716L10.8645 55.3871L25.9866 57.4162L34.4182 65.0001L64.4997 49.0706L55.8734 41.3477L40.7917 39.3478L36.817 36.8977" stroke="#0061AA" stroke-width="2" stroke-miterlimit="10" stroke-linejoin="round"/>
<path d="M11.0286 54.9506L22.9541 48.7815" stroke="#0061AA" stroke-width="2" stroke-miterlimit="10" stroke-linejoin="round"/>
<path d="M55.6093 41.1655L35.4341 52.449" stroke="#0061AA" stroke-width="2" stroke-miterlimit="10" stroke-linejoin="round"/>
<path d="M31.1259 10.7993C31.1301 10.7993 31.1328 10.7993 31.1356 10.7993C31.1384 10.7993 31.1411 10.7993 31.1453 10.7993C34.2056 10.7993 36.6891 13.123 36.6947 16.3514C36.7002 19.5771 34.2209 21.9174 31.1606 21.9174C31.1523 21.9174 31.1439 21.9174 31.1356 21.9174C31.1273 21.9174 31.1189 21.9174 31.1106 21.9174C28.0489 21.9174 25.571 19.5757 25.5765 16.3514C25.5807 13.123 28.0656 10.7993 31.1259 10.7993Z" stroke="#E37021" stroke-width="2" stroke-miterlimit="10"/>
<path d="M31.1356 1C39.5229 1 46.323 7.80011 46.323 16.1873C46.3285 19.816 45.7893 22.3301 43.7269 25.628C41.6673 28.9259 31.1356 44.223 31.1356 44.223C31.1356 44.223 20.6054 28.9245 18.5444 25.628C16.4834 22.3287 15.9427 19.8146 15.9483 16.1873C15.9483 7.80011 22.7484 1 31.1356 1Z" stroke="#E37021" stroke-width="2" stroke-miterlimit="10"/>
</svg>
