<svg width="67" height="67" viewBox="0 0 67 67" fill="none" xmlns="http://www.w3.org/2000/svg">
<path d="M42.7267 21.9115C46.273 18.3417 44.5508 13.0936 42.6656 10.4809C38.0415 4.07365 29.6398 5.76897 23.6716 2C19.2525 12.1335 24.4774 24.8883 38.1011 23.3338" stroke="#E37021" stroke-width="2" stroke-miterlimit="10"/>
<path d="M44.1813 27.6005C42.9755 16.9279 34.2668 14.3409 28.6317 9.62183" stroke="#E37021" stroke-width="2" stroke-miterlimit="10"/>
<path d="M23.817 56.0456C24.3741 55.5008 24.9458 54 26.7262 54C28.5066 54 45.3101 54 47.0905 54C48.7066 54 57.597 45.9063 58.7273 44.6675C59.8138 43.4757 64.6576 36.3602 66.0002 33.2895C65.1566 32.1787 62.8772 31.2557 60.1818 31.8673C57.6101 32.4518 56.0973 34.2567 54.3635 37.5563L47.6956 40.9412" stroke="#0061AA" stroke-width="2" stroke-miterlimit="10" stroke-linejoin="round"/>
<path d="M32.5446 46.0898C32.5446 46.0898 42.7268 46.0898 44.1813 46.0898C49.9997 46.0898 49.9997 38.9785 44.1813 38.9785C42.7268 38.9785 40.5405 38.9785 36.4953 38.9785C35.2836 38.9785 33.0101 36.134 31.09 36.134C30.2362 36.134 25.7822 36.134 23.817 36.134C21.8519 36.134 19.4096 37.6928 17.9987 38.9785C15.8182 41.1105 12.1803 44.6675 12.1803 44.6675" stroke="#0061AA" stroke-width="2" stroke-miterlimit="10" stroke-linejoin="round"/>
<path d="M19.4556 66L26.7284 58.8889L9.27301 41.8215L2.00019 48.9327L19.4556 66Z" stroke="#0061AA" stroke-width="2" stroke-miterlimit="10" stroke-linejoin="round"/>
<path d="M9.27112 48.9343L12.1803 51.7788" stroke="#0061AA" stroke-width="2" stroke-miterlimit="10" stroke-linejoin="round"/>
<path d="M55.8181 34.7118V33.2896L51.4543 30.4451H47.0905L44.1813 27.6006L41.2721 29.0228H38.3629L33.9992 31.8673H29.6354L26.7262 34.7118V36.1341" stroke="#0061AA" stroke-width="2" stroke-miterlimit="10"/>
</svg>
