<?xml version="1.0" encoding="utf-8"?>
<!-- Generator: Adobe Illustrator 16.0.3, SVG Export Plug-In . SVG Version: 6.00 Build 0)  -->
<!DOCTYPE svg PUBLIC "-//W3C//DTD SVG 1.1//EN" "http://www.w3.org/Graphics/SVG/1.1/DTD/svg11.dtd">
<svg version="1.1" id="Layer_1" xmlns="http://www.w3.org/2000/svg" xmlns:xlink="http://www.w3.org/1999/xlink" x="0px" y="0px"
	 width="30px" height="68px" viewBox="0 0 30 68" enable-background="new 0 0 30 68" xml:space="preserve">
<g>
	<path fill="#00446B" d="M12.276,68L4.103,44.915h5.039l1.613,4.769h8.458l1.489-4.769h5.194L17.821,68H12.276z M14.968,62.784
		h0.065l3.136-9.126h-6.146L14.968,62.784z"/>
	<path fill="#006DAA" d="M29.987,27.099C29.987,14.017,18.18,1.033,11.369,0c0.431,1.38,0.73,3.132,0.73,5.399
		c0,7.102-12.086,11.649-12.086,23.153c0,3.509,1.149,9.528,4.732,12.492c1.172-4.584,5.315-7.973,10.247-7.973
		c4.933,0,9.077,3.389,10.245,7.973C26.456,40.034,29.987,35.853,29.987,27.099z"/>
	<path fill="#00ADE6" d="M14.991,32.997c4.074,0,7.442,2.983,8.203,3.846c1.718-1.943,2.765-4.502,2.765-7.303
		c0-3.074-1.256-5.851-3.278-7.85c-0.787-0.774-1.689-1.433-2.678-1.945c0,0-3.887-2.233-5.059-4.094
		c-1.004,1.664-2.557,2.795-4.676,3.862c0,0-2.156,1.363-3.034,2.243c-1.983,1.995-3.21,4.744-3.211,7.783
		c0,2.827,1.064,5.407,2.811,7.355C7.446,36.193,10.916,32.997,14.991,32.997z"/>
</g>
</svg>
