<svg width="32" height="32" viewBox="0 0 32 32" fill="none" xmlns="http://www.w3.org/2000/svg">
<path d="M10.7023 21.2977C17.7731 28.3685 24.5277 29.8646 27.0208 30C28.6131 27.6662 29.2869 25.7392 29.74 24.0169C28.0177 22.34 25.51 20.6285 23.2131 19.6654L20.4939 22.3854C19.5646 22.1362 17.0146 21.0823 13.9662 18.0339C10.9185 14.9862 9.86385 12.4362 9.61462 11.5069L12.3346 8.78693C11.3715 6.48924 9.66 3.98232 7.98308 2.26001C6.26077 2.71309 4.33385 3.38616 2 4.98001C2.13615 7.47232 3.63154 14.2262 10.7023 21.2977Z" stroke="white" stroke-width="2" stroke-miterlimit="10"/>
<path d="M19.6923 0V6.15385" stroke="#E37021" stroke-width="2" stroke-miterlimit="10"/>
<path d="M32 12.3076H25.8462" stroke="#E37021" stroke-width="2" stroke-miterlimit="10"/>
<path d="M30.3507 6.15381L25.0215 9.23073" stroke="#E37021" stroke-width="2" stroke-miterlimit="10"/>
<path d="M25.8462 1.64917L22.7693 6.9784" stroke="#E37021" stroke-width="2" stroke-miterlimit="10"/>
</svg>
