<svg width="40" height="40" viewBox="0 0 40 40" fill="none" xmlns="http://www.w3.org/2000/svg">
<path d="M7 17V3C7 1.896 7.896 1 9 1H31L39 9V37C39 38.104 38.104 39 37 39H9C7.896 39 7 38.104 7 37V31" stroke="#0061AA" stroke-width="2" stroke-miterlimit="10"/>
<path d="M36 10H30V4" stroke="#0061AA" stroke-width="2" stroke-miterlimit="10"/>
<path d="M24.92 31H3.08C1.93184 31 1 30.104 1 29V19C1 17.896 1.93184 17 3.08 17H24.92C26.0682 17 27 17.896 27 19V29C27 30.104 26.0682 31 24.92 31Z" stroke="#E37021" stroke-width="2" stroke-miterlimit="10"/>
<path d="M5.6 28V19.9H7.65C8.35667 19.9 8.90667 19.99 9.3 20.17C9.69333 20.3433 9.97 20.62 10.13 21C10.29 21.3733 10.37 21.86 10.37 22.46V25.4C10.37 26.0067 10.29 26.5033 10.13 26.89C9.97 27.27 9.69333 27.55 9.3 27.73C8.91333 27.91 8.37 28 7.67 28H5.6ZM7.39 26.76H7.67C7.94333 26.76 8.14 26.72 8.26 26.64C8.38 26.56 8.45333 26.44 8.48 26.28C8.51333 26.12 8.53 25.92 8.53 25.68V22.15C8.53 21.91 8.51 21.7167 8.47 21.57C8.43667 21.4233 8.36 21.3167 8.24 21.25C8.12 21.1833 7.92667 21.15 7.66 21.15H7.39V26.76ZM14.2794 28.12C13.6727 28.12 13.1927 28.0133 12.8394 27.8C12.486 27.5867 12.2327 27.28 12.0794 26.88C11.926 26.48 11.8494 26.0033 11.8494 25.45V22.44C11.8494 21.88 11.926 21.4033 12.0794 21.01C12.2327 20.6167 12.486 20.3167 12.8394 20.11C13.1927 19.8967 13.6727 19.79 14.2794 19.79C14.8927 19.79 15.376 19.8967 15.7294 20.11C16.0894 20.3167 16.346 20.6167 16.4994 21.01C16.6527 21.4033 16.7294 21.88 16.7294 22.44V25.45C16.7294 26.0033 16.6527 26.48 16.4994 26.88C16.346 27.28 16.0894 27.5867 15.7294 27.8C15.376 28.0133 14.8927 28.12 14.2794 28.12ZM14.2794 26.85C14.466 26.85 14.6027 26.8033 14.6894 26.71C14.776 26.6167 14.8327 26.4967 14.8594 26.35C14.886 26.2033 14.8994 26.0533 14.8994 25.9V22C14.8994 21.84 14.886 21.69 14.8594 21.55C14.8327 21.4033 14.776 21.2833 14.6894 21.19C14.6027 21.0967 14.466 21.05 14.2794 21.05C14.106 21.05 13.976 21.0967 13.8894 21.19C13.8027 21.2833 13.746 21.4033 13.7194 21.55C13.6927 21.69 13.6794 21.84 13.6794 22V25.9C13.6794 26.0533 13.6894 26.2033 13.7094 26.35C13.736 26.4967 13.7894 26.6167 13.8694 26.71C13.956 26.8033 14.0927 26.85 14.2794 26.85ZM20.6388 28.12C20.0254 28.12 19.5388 28.01 19.1788 27.79C18.8254 27.5633 18.5754 27.25 18.4288 26.85C18.2821 26.4433 18.2088 25.9667 18.2088 25.42V22.5C18.2088 21.94 18.2821 21.46 18.4288 21.06C18.5754 20.6533 18.8254 20.34 19.1788 20.12C19.5388 19.9 20.0254 19.79 20.6388 19.79C21.2388 19.79 21.7054 19.89 22.0388 20.09C22.3788 20.2833 22.6188 20.5567 22.7588 20.91C22.8988 21.2633 22.9688 21.67 22.9688 22.13V22.83H21.2188V22.02C21.2188 21.86 21.2088 21.7067 21.1888 21.56C21.1754 21.4133 21.1288 21.2933 21.0488 21.2C20.9688 21.1 20.8321 21.05 20.6388 21.05C20.4521 21.05 20.3121 21.1 20.2188 21.2C20.1321 21.3 20.0754 21.4267 20.0488 21.58C20.0288 21.7267 20.0188 21.8833 20.0188 22.05V25.86C20.0188 26.04 20.0321 26.2067 20.0588 26.36C20.0921 26.5067 20.1521 26.6267 20.2388 26.72C20.3321 26.8067 20.4654 26.85 20.6388 26.85C20.8254 26.85 20.9588 26.8033 21.0388 26.71C21.1188 26.61 21.1688 26.4833 21.1888 26.33C21.2088 26.1767 21.2188 26.02 21.2188 25.86V25.01H22.9688V25.71C22.9688 26.17 22.8988 26.5833 22.7588 26.95C22.6254 27.31 22.3888 27.5967 22.0488 27.81C21.7154 28.0167 21.2454 28.12 20.6388 28.12Z" fill="#E37021"/>
</svg>
