<svg width="40" height="40" viewBox="0 0 40 40" fill="none" xmlns="http://www.w3.org/2000/svg">
<path d="M7 17V3C7 1.896 7.896 1 9 1H31L39 9V37C39 38.104 38.104 39 37 39H9C7.896 39 7 38.104 7 37V31" stroke="#0061AA" stroke-width="2" stroke-miterlimit="10"/>
<path d="M36 10H30V4" stroke="#0061AA" stroke-width="2" stroke-miterlimit="10"/>
<path d="M30.44 31H3.56C2.14688 31 1 30.104 1 29V19C1 17.896 2.14688 17 3.56 17H30.44C31.8531 17 33 17.896 33 19V29C33 30.104 31.8531 31 30.44 31Z" stroke="#E37021" stroke-width="2" stroke-miterlimit="10"/>
<path d="M5.6 19.9H7.65C8.35 19.9 8.89667 19.9867 9.29 20.16C9.68333 20.3333 9.96 20.6067 10.12 20.98C10.2867 21.3467 10.37 21.84 10.37 22.46V25.4C10.37 26.0267 10.2867 26.5267 10.12 26.9C9.96 27.2733 9.68333 27.55 9.29 27.73C8.90333 27.91 8.36333 28 7.67 28H5.6V19.9ZM7.67 26.76C7.93 26.76 8.12 26.7233 8.24 26.65C8.36667 26.57 8.44667 26.46 8.48 26.32C8.51333 26.1733 8.53 25.96 8.53 25.68V22.15C8.53 21.89 8.51 21.6933 8.47 21.56C8.43667 21.42 8.35667 21.3167 8.23 21.25C8.11 21.1833 7.92 21.15 7.66 21.15H7.39V26.76H7.67ZM14.2794 28.12C13.406 28.12 12.7827 27.8967 12.4094 27.45C12.036 26.9967 11.8494 26.33 11.8494 25.45V22.44C11.8494 21.56 12.036 20.9 12.4094 20.46C12.7827 20.0133 13.406 19.79 14.2794 19.79C15.1594 19.79 15.786 20.0133 16.1594 20.46C16.5394 20.9067 16.7294 21.5667 16.7294 22.44V25.45C16.7294 26.33 16.5394 26.9967 16.1594 27.45C15.786 27.8967 15.1594 28.12 14.2794 28.12ZM14.2794 26.85C14.5327 26.85 14.6994 26.7667 14.7794 26.6C14.8594 26.4267 14.8994 26.1933 14.8994 25.9V22C14.8994 21.7 14.8594 21.4667 14.7794 21.3C14.6994 21.1333 14.5327 21.05 14.2794 21.05C14.0394 21.05 13.8794 21.1367 13.7994 21.31C13.7194 21.4767 13.6794 21.7067 13.6794 22V25.9C13.6794 26.1933 13.716 26.4267 13.7894 26.6C13.8627 26.7667 14.026 26.85 14.2794 26.85ZM20.6388 28.12C19.7588 28.12 19.1321 27.89 18.7588 27.43C18.3921 26.9633 18.2088 26.2933 18.2088 25.42V22.5C18.2088 21.6067 18.3921 20.9333 18.7588 20.48C19.1254 20.02 19.7521 19.79 20.6388 19.79C21.4854 19.79 22.0854 19.9933 22.4388 20.4C22.7921 20.8067 22.9688 21.3833 22.9688 22.13V22.83H21.2188V22.02C21.2188 21.7067 21.1854 21.4667 21.1188 21.3C21.0521 21.1333 20.8921 21.05 20.6388 21.05C20.3854 21.05 20.2188 21.14 20.1388 21.32C20.0588 21.4933 20.0188 21.7367 20.0188 22.05V25.86C20.0188 26.18 20.0588 26.4267 20.1388 26.6C20.2254 26.7667 20.3921 26.85 20.6388 26.85C20.8854 26.85 21.0421 26.7667 21.1088 26.6C21.1821 26.4267 21.2188 26.18 21.2188 25.86V25.01H22.9688V25.71C22.9688 26.47 22.7921 27.0633 22.4388 27.49C22.0854 27.91 21.4854 28.12 20.6388 28.12ZM25.4154 23.64L23.9154 19.9H25.6054L26.4954 22.09L27.2154 19.9H28.7054L27.2854 24.11L28.8654 28H27.1854L26.1954 25.58L25.3254 28H23.8454L25.4154 23.64Z" fill="#E37021"/>
</svg>
