<svg width="66" height="66" viewBox="0 0 66 66" fill="none" xmlns="http://www.w3.org/2000/svg">
<path d="M12.1315 38.3405C15.3175 38.3405 17.6966 35.688 17.6966 32.4145V30.4368C17.6966 27.1647 15.3175 24.5107 12.1315 24.5107C8.94549 24.5107 6.56641 27.1647 6.56641 30.4368V32.4145C6.56641 35.688 8.94549 38.3405 12.1315 38.3405Z" stroke="#0061AA" stroke-width="2" stroke-miterlimit="10"/>
<path d="M27.4355 1H60.8261C63.1315 1 65 2.85734 65 5.14894V30.0426C65 33.0976 62.5082 35.5745 59.4349 35.5745H38.5657L32.7224 43.3192C31.921 44.3827 30.2181 43.8184 30.2181 42.4894V35.5745H27.4355C25.1302 35.5745 23.2617 33.7171 23.2617 31.4255V5.14894C23.2617 2.85734 25.1302 1 27.4355 1Z" stroke="#0061AA" stroke-width="2" stroke-miterlimit="10" stroke-linejoin="round"/>
<path d="M12.1344 61.2052L7.436 60.2551C6.1129 60.0698 5.21557 59.7752 3.98151 57.9206L2.79336 55.3164C1.74573 53.0276 1 52.0457 1 50.1842C1 46.2856 3.00477 42.4907 7.42624 42.4907C8.33057 42.4907 11.3177 42.4907 15.4456 42.4907C18.0167 42.5944 19.5943 43.0411 20.9981 44.7242C22.4019 46.4073 23.7181 47.9936 23.7181 47.9936" stroke="#0061AA" stroke-width="2" stroke-miterlimit="10" stroke-linecap="round" stroke-linejoin="round"/>
<path d="M7.5918 49.7983L8.8495 52.9239C9.35175 54.1713 9.9584 54.6609 11.1299 55.091L14.3687 56.2347" stroke="#0061AA" stroke-width="2" stroke-miterlimit="10" stroke-linecap="round" stroke-linejoin="round"/>
<path d="M26.7998 59.0851C26.7998 59.0851 23.0308 59.0851 21.8886 59.0851C21.6228 55.8006 24.4986 53.5532 24.4986 53.5532H28.9117C29.8814 53.5532 30.5131 54.6347 30.079 55.5544L29.1343 57.5556C28.6919 58.4932 27.7876 59.0851 26.7998 59.0851Z" stroke="#0061AA" stroke-width="2" stroke-miterlimit="10" stroke-linejoin="round"/>
<path d="M28.2536 53.5531L30.0832 49.8302C30.5005 48.9866 29.8939 47.9922 28.9604 47.9922H19.2159C18.74 47.9922 18.306 48.2646 18.0931 48.6947L11.8171 61.396C11.3997 62.2396 12.0063 63.234 12.9398 63.234H22.6857C23.1602 63.234 23.5956 62.9629 23.8085 62.5314L25.5114 59.0851" stroke="#0061AA" stroke-width="2" stroke-miterlimit="10" stroke-linejoin="round"/>
<path d="M6.56641 60.0864V66" stroke="#0061AA" stroke-width="2" stroke-miterlimit="10" stroke-linejoin="round"/>
<path d="M20.4792 63.2339V65.9998" stroke="#0061AA" stroke-width="2" stroke-miterlimit="10" stroke-linejoin="round"/>
<path d="M47.9263 28.6598H56.7859C57.8043 28.6598 58.3997 27.4165 57.8126 26.5148L45.159 7.1074C44.6581 6.33985 43.6063 6.33985 43.1055 7.1074L30.4519 26.5148C29.8647 27.4151 30.4588 28.6598 31.4786 28.6598H40.3382" stroke="#E37021" stroke-width="2" stroke-miterlimit="10" stroke-linejoin="round"/>
<path d="M44.1309 14.8296V24.5104" stroke="#E37021" stroke-width="2" stroke-miterlimit="10" stroke-linejoin="round"/>
<path d="M44.1309 27.2766V30.0426" stroke="#E37021" stroke-width="2" stroke-miterlimit="10" stroke-linejoin="round"/>
</svg>
