<svg width="40" height="65" viewBox="0 0 40 65" fill="none" xmlns="http://www.w3.org/2000/svg">
<path d="M14.5715 18.5981V4.39286C14.5715 2.52 13.0528 1 11.1786 1C9.30441 1 7.78577 2.52 7.78577 4.39286V18.5981" stroke="#0061AA" stroke-width="2" stroke-miterlimit="10"/>
<path d="M32.2143 18.5981V4.39286C32.2143 2.52 30.6957 1 28.8214 1C26.9472 1 25.4286 2.52 25.4286 4.39286V18.5981" stroke="#0061AA" stroke-width="2" stroke-miterlimit="10"/>
<path d="M15.9286 59.3123V64.7408" stroke="#0061AA" stroke-width="2" stroke-miterlimit="10"/>
<path d="M20 52.5036C11.3767 52.5036 5.07143 47.6763 5.07143 40.3124V29.4553L1 25.4287V18.5981H20" stroke="#0061AA" stroke-width="2" stroke-miterlimit="10"/>
<path d="M20 18.5981H39V25.4287L34.9286 29.4553V40.3124C34.9286 46.4576 30.5369 50.8303 24.0714 52.1169" stroke="#0061AA" stroke-width="2" stroke-miterlimit="10"/>
<path d="M24.0714 59.3123V64.7408" stroke="#0061AA" stroke-width="2" stroke-miterlimit="10"/>
<path d="M20 59.3123C15.5038 59.3123 11.8572 57.4896 11.8572 55.2409V51.1694" stroke="#0061AA" stroke-width="2" stroke-miterlimit="10"/>
<path d="M28.1429 51.1694V55.2409C28.1429 57.1612 25.4856 58.7694 21.9109 59.1997" stroke="#0061AA" stroke-width="2" stroke-miterlimit="10"/>
<path d="M21.3572 33.5266L22.7143 24.0266L11.8572 37.598H18.6429L17.2857 47.098L28.1429 33.5266H21.3572Z" stroke="#E37021" stroke-width="2" stroke-miterlimit="10" stroke-linejoin="round"/>
</svg>
