<svg width="1186" height="146" viewBox="0 0 1186 146" fill="none" xmlns="http://www.w3.org/2000/svg">
<path d="M94.5159 127.502V30.3082H81.2037L47.7902 115.503L14.6428 30.3082H0V127.502H12.6441V58.1362L40.2027 127.502H54.1775L81.736 58.1362V127.502H94.5159ZM321.382 124.865V113.927C320.046 114.556 318.455 115.196 316.592 115.831C314.702 116.472 312.551 117.031 310.112 117.462C307.69 117.903 304.963 118.123 301.944 118.145C296.822 118.166 292.341 117.483 288.479 116.095C284.618 114.707 281.402 112.533 278.828 109.525C276.232 106.518 274.304 102.579 273.016 97.7259C271.702 92.8673 271.061 86.981 271.061 80.0348V78.7112C271.061 66.1208 273.369 56.6942 277.981 50.4044C282.597 44.1415 289.566 40.9993 298.886 40.9993C302.259 40.9993 305.094 41.1069 307.424 41.3275C309.732 41.5481 311.709 41.8332 313.328 42.183C314.946 42.5327 316.391 42.9094 317.635 43.329C318.895 43.7433 320.138 44.163 321.382 44.5558V32.1591C320.03 31.6264 318.384 31.0991 316.5 30.6364C314.593 30.1576 312.307 29.7594 309.667 29.4527C307.027 29.1675 303.921 28.99 300.347 28.99C293.319 29.0115 287.083 30.1145 281.647 32.3313C276.188 34.5319 271.593 37.7172 267.846 41.914C264.093 46.1108 261.252 51.1684 259.324 57.1462C257.39 63.1024 256.418 69.8549 256.418 77.3876V81.3477C256.44 88.1379 257.195 94.1586 258.656 99.3723C260.122 104.608 262.186 109.084 264.826 112.845C267.466 116.606 270.551 119.678 274.081 122.073C277.606 124.467 281.446 126.253 285.568 127.399C289.718 128.535 294.025 129.083 298.484 129.083C302.655 129.062 306.272 128.841 309.336 128.411C312.393 127.97 314.924 127.421 316.923 126.781C318.916 126.135 320.405 125.495 321.382 124.865ZM422.981 82.0041V76.7312C422.981 66.5136 421.606 57.851 418.793 50.7487C415.99 43.6519 411.711 38.266 405.964 34.575C400.218 30.8839 392.94 29.0115 384.109 28.99C377.569 29.0115 371.839 30.1145 366.978 32.3098C362.101 34.5104 358.065 37.6956 354.845 41.8279C351.629 45.9816 349.212 50.9909 347.637 56.861C346.035 62.7311 345.242 69.3653 345.242 76.7312V82.2677C345.258 90.3815 346.193 97.3654 348.034 103.257C349.875 109.165 352.515 114.029 355.936 117.833C359.374 121.648 363.453 124.494 368.2 126.334C372.974 128.185 378.275 129.078 384.109 129.078C390.012 129.1 395.357 128.228 400.131 126.474C404.9 124.709 408.979 121.965 412.379 118.204C415.789 114.454 418.386 109.585 420.232 103.618C422.052 97.6344 422.959 90.4246 422.981 82.0041ZM408.468 80.6859C408.468 88.1594 407.963 94.4008 406.942 99.3723C405.899 104.344 404.367 108.272 402.325 111.15C400.283 114.029 397.758 116.068 394.716 117.311C391.68 118.511 388.15 119.108 384.109 119.065C380.138 119.087 376.657 118.425 373.621 117.09C370.601 115.745 368.048 113.571 365.984 110.585C363.92 107.567 362.367 103.585 361.324 98.646C360.281 93.7013 359.749 87.6106 359.749 80.4222V78.0494C359.749 71.1032 360.216 65.2115 361.145 60.3314C362.079 55.4567 363.524 51.5182 365.495 48.4889C367.451 45.4758 369.976 43.2537 373.061 41.8709C376.146 40.4612 379.829 39.7833 384.109 39.8048C390.105 39.8048 394.895 41.2091 398.464 44.0231C402.037 46.8586 404.612 51.1039 406.187 56.7695C407.74 62.4191 408.517 69.5213 408.468 78.0494V80.6859ZM465.747 69.3438V41.123H512.603V30.3082H451.897V127.502H484.778C492.078 127.502 498.204 126.399 503.218 124.225C508.209 122.051 512.005 118.844 514.58 114.556C517.149 110.268 518.442 104.952 518.463 98.6137C518.442 92.3992 517.149 87.1263 514.623 82.7735C512.071 78.4207 508.388 75.0794 503.527 72.798C498.688 70.5113 492.789 69.3653 485.843 69.3438H465.747ZM504.081 97.699C504.108 101.589 503.527 104.952 502.376 107.787C501.219 110.623 499.378 112.802 496.83 114.346C494.278 115.89 490.926 116.671 486.777 116.692H465.747V80.0348H485.582C489.949 80.0563 493.501 80.8258 496.227 82.2946C498.954 83.7904 500.953 85.8565 502.224 88.493C503.484 91.124 504.108 94.2017 504.081 97.699ZM553.767 114.314C551.991 114.314 550.242 114.072 548.488 113.609C546.733 113.125 544.827 112.399 542.72 111.414V124.467C544.691 125.635 546.913 126.495 549.422 127.001C551.904 127.529 554.478 127.771 557.091 127.771C560.333 127.814 563.217 127.351 565.77 126.404C568.301 125.468 570.544 123.821 572.472 121.486C574.4 119.151 576.068 115.95 577.464 111.86C578.881 107.75 580.082 102.558 581.038 96.2786C582.015 89.9888 582.83 82.4291 583.454 73.5728C583.786 68.9295 584.144 63.8772 584.519 58.4052C584.894 52.9332 585.252 47.2138 585.584 41.2629H611.67V127.507H625.781V30.3082H573.206C572.738 38.7502 572.271 46.439 571.804 53.3637C571.337 60.3099 570.875 66.5136 570.408 71.9856C569.806 79.1686 569.099 85.2808 568.323 90.2685C567.568 95.2616 566.677 99.3293 565.727 102.488C564.749 105.651 563.663 108.089 562.49 109.821C561.289 111.532 559.98 112.721 558.536 113.383C557.075 114.029 555.499 114.346 553.767 114.314ZM656.033 124.865V114.05C657.369 114.691 658.961 115.32 660.829 116.003C662.708 116.665 664.859 117.214 667.298 117.677C669.715 118.14 672.441 118.382 675.466 118.403C680.729 118.425 685.259 117.876 689.088 116.73C692.906 115.584 696.078 113.684 698.615 111.032C701.119 108.374 703.047 104.812 704.388 100.314C705.703 95.832 706.49 90.247 706.756 83.5859H666.814V72.9057H706.615C706.202 65.3245 704.959 59.1692 702.889 54.4182C700.831 49.6726 697.789 46.2022 693.797 44.0016C689.8 41.7848 684.716 40.7087 678.53 40.7249C675.157 40.7249 672.311 40.8594 669.992 41.08C667.678 41.3221 665.706 41.6073 664.082 41.9839C662.458 42.3552 661.025 42.7479 659.775 43.1676C658.515 43.6088 657.272 44.0231 656.033 44.4213V32.1591C657.391 31.6264 659.026 31.0991 660.911 30.6364C662.822 30.1576 665.098 29.7594 667.743 29.4527C670.383 29.1675 673.495 28.99 677.069 28.99C686.872 29.0115 695.019 30.857 701.542 34.575C708.033 38.266 712.894 43.6949 716.142 50.8779C719.379 58.0662 721.003 66.9064 721.003 77.3876V81.3477C720.959 90.1609 719.868 97.6129 717.744 103.72C715.609 109.805 712.611 114.734 708.804 118.462C704.986 122.202 700.521 124.903 695.448 126.598C690.365 128.271 684.863 129.1 678.932 129.078C674.76 129.057 671.143 128.836 668.08 128.406C665.022 127.964 662.491 127.416 660.498 126.775C658.505 126.135 657.011 125.495 656.033 124.865ZM818.202 127.502V30.3082H804.091V72.7765H764.426V30.3082H750.305V127.502H764.426V83.7205H804.091V127.502H818.202ZM912.348 127.502V116.827H866.426V83.5859H901.697V72.9057H866.426V41.123H910.355V30.3082H852.723V127.502H912.348ZM1001.57 62.8818V56.818C1001.57 52.9494 1000.93 49.3875 999.678 46.1592C998.446 42.947 996.604 40.133 994.204 37.7817C991.787 35.4089 988.838 33.5849 985.323 32.2882C981.842 30.9915 977.844 30.3297 973.347 30.3082H939.266V127.502H953.246V88.0733H975.08C979.251 88.0464 982.983 87.39 986.241 86.0933C989.5 84.775 992.297 82.9726 994.568 80.6643C996.849 78.3561 998.576 75.6981 999.776 72.6635C1000.98 69.6289 1001.57 66.3791 1001.57 62.8818ZM987.067 63.2746C987.067 65.8088 986.622 68.0901 985.753 70.1132C984.862 72.1362 983.537 73.7181 981.712 74.9072C979.919 76.0909 977.606 76.7097 974.814 76.7312H953.246V41.7848H973.749C976.432 41.8063 978.757 42.4197 980.761 43.6519C982.722 44.884 984.281 46.595 985.367 48.7956C986.48 51.0178 987.045 53.5896 987.067 56.5543V63.2746ZM1085.47 30.3082H1029.29V127.502H1043.41V41.6503H1085.47V30.3082ZM1186 82.0041V76.7312C1186 66.5136 1184.63 57.851 1181.81 50.7487C1179.02 43.6519 1174.74 38.266 1169 34.575C1163.24 30.8839 1155.98 29.0115 1147.14 28.99C1140.59 29.0115 1134.86 30.1145 1130.01 32.3098C1125.13 34.5104 1121.1 37.6956 1117.87 41.8279C1114.66 45.9816 1112.24 50.9909 1110.67 56.861C1109.07 62.7311 1108.28 69.3653 1108.28 76.7312V82.2677C1108.3 90.3815 1109.23 97.3654 1111.07 103.257C1112.92 109.165 1115.54 114.029 1118.97 117.833C1122.41 121.648 1126.49 124.494 1131.25 126.334C1136.01 128.185 1141.32 129.078 1147.15 129.078C1153.06 129.1 1158.4 128.228 1163.17 126.474C1167.94 124.709 1172.03 121.965 1175.42 118.204C1178.84 114.454 1181.43 109.585 1183.27 103.618C1185.08 97.6344 1185.99 90.4246 1186 82.0041ZM1171.5 80.6859C1171.5 88.1594 1170.99 94.4008 1169.96 99.3723C1168.92 104.344 1167.39 108.272 1165.36 111.15C1163.31 114.029 1160.77 116.068 1157.74 117.311C1154.7 118.511 1151.17 119.108 1147.13 119.065C1143.17 119.087 1139.69 118.425 1136.64 117.09C1133.61 115.745 1131.07 113.571 1129 110.585C1126.95 107.567 1125.39 103.585 1124.35 98.646C1123.31 93.7013 1122.78 87.6106 1122.78 80.4222V78.0494C1122.78 71.1032 1123.24 65.2115 1124.17 60.3314C1125.11 55.4567 1126.55 51.5182 1128.53 48.4889C1130.47 45.4758 1133.01 43.2537 1136.09 41.8709C1139.17 40.4612 1142.86 39.7833 1147.14 39.8048C1153.14 39.8048 1157.93 41.2091 1161.5 44.0231C1165.07 46.8586 1167.65 51.1039 1169.22 56.7695C1170.78 62.4191 1171.55 69.5213 1171.51 78.0494V80.6859H1171.5Z" fill="white"/>
<path fill-rule="evenodd" clip-rule="evenodd" d="M177.599 0L187.082 26.0901H183.888L177.599 11.4981L171.309 26.0901H168.116L177.599 0Z" fill="#E37021"/>
<path fill-rule="evenodd" clip-rule="evenodd" d="M146.179 10.4221L164.086 27.8603L161.5 29.0925L150.692 19.7142L151.333 33.9349L148.753 35.1724L146.179 10.4221Z" fill="#E37021"/>
<path fill-rule="evenodd" clip-rule="evenodd" d="M123.671 30.604L144.598 37.7547L143.012 39.7024L130.819 36.3073L136.777 47.3804L135.191 49.3281L123.671 30.604Z" fill="#E37021"/>
<path fill-rule="evenodd" clip-rule="evenodd" d="M111.342 57.0121L132.274 54.72L131.672 57.152L120.255 59.1912L129.287 66.7185L128.679 69.1451L111.342 57.0121Z" fill="#E37021"/>
<path fill-rule="evenodd" clip-rule="evenodd" d="M210.567 10.8151L192.454 28.0434L195.017 29.2971L205.945 20.0534L205.136 34.2633L207.694 35.5223L210.567 10.8151Z" fill="#E37021"/>
<path fill-rule="evenodd" clip-rule="evenodd" d="M232.222 30.572L211.3 37.7389L212.886 39.6758L225.074 36.2754L219.127 47.3592L220.713 49.3016L232.222 30.572Z" fill="#E37021"/>
<path fill-rule="evenodd" clip-rule="evenodd" d="M244.258 55.8173L223.282 53.9126L223.933 56.3284L235.388 58.1578L226.497 65.8519L227.149 68.2678L244.258 55.8173Z" fill="#E37021"/>
<path fill-rule="evenodd" clip-rule="evenodd" d="M178.419 28.8496C202.947 28.8496 222.831 48.5423 222.831 72.8406C222.831 97.139 202.947 116.837 178.419 116.837C153.891 116.837 134.007 97.1336 134.007 72.8406C134.007 48.5423 153.891 28.8496 178.419 28.8496ZM178.419 37.9319C158.958 37.9319 143.18 53.5623 143.18 72.8406C143.18 92.1243 158.958 107.76 178.419 107.76C197.879 107.76 213.657 92.1243 213.657 72.8406C213.657 53.5623 197.879 37.9319 178.419 37.9319Z" fill="#E37021"/>
<path fill-rule="evenodd" clip-rule="evenodd" d="M177.599 146L187.082 119.905H183.888L177.599 134.502L171.309 119.905H168.116L177.599 146Z" fill="#E37021"/>
<path fill-rule="evenodd" clip-rule="evenodd" d="M147.384 136.121L164.987 118.393L162.386 117.204L151.74 126.759L152.142 112.528L149.535 111.339L147.384 136.121Z" fill="#E37021"/>
<path fill-rule="evenodd" clip-rule="evenodd" d="M122.313 113.685L143.457 107.201L141.931 105.205L129.64 108.207L135.946 97.3333L134.431 95.3318L122.313 113.685Z" fill="#E37021"/>
<path fill-rule="evenodd" clip-rule="evenodd" d="M110.783 86.6691L131.623 89.6929L131.107 87.2448L119.761 84.802L129.059 77.5975L128.543 75.1494L110.783 86.6691Z" fill="#E37021"/>
<path fill-rule="evenodd" clip-rule="evenodd" d="M208.536 136.121L190.927 118.393L193.529 117.204L204.185 126.759L203.783 112.528L206.385 111.339L208.536 136.121Z" fill="#E37021"/>
<path fill-rule="evenodd" clip-rule="evenodd" d="M233.498 113.83L212.37 107.282L213.896 105.297L226.187 108.337L219.903 97.4356L221.43 95.4448L233.498 113.83Z" fill="#E37021"/>
<path fill-rule="evenodd" clip-rule="evenodd" d="M244.915 87.6539L224.031 90.3657L224.585 87.9229L235.964 85.6524L226.774 78.3134L227.333 75.8652L244.915 87.6539Z" fill="#E37021"/>
</svg>
