<svg width="595" height="475" viewBox="0 0 595 475" fill="none" xmlns="http://www.w3.org/2000/svg">
<path opacity="0.04" d="M591.518 17.888L594.711 26.698L594.354 25.715L594.364 44.493L576.317 40.367L584.419 23.586L590.503 17.651C590.071 17.537 589.646 17.405 589.226 17.26L584.921 21.019L585.192 15.283C584.817 15.037 584.452 14.779 584.096 14.507L583.219 23.019L574.99 40.065L552.705 34.968L576.088 16.346L583.35 13.904C583.01 13.615 582.68 13.315 582.366 13.002L576.813 14.534L579.559 9.459C579.327 9.077 579.112 8.683 578.909 8.283L573.632 16.875L574.421 15.588L550.671 34.503L534.38 30.777L527.312 16.097L569.986 6.38L578.509 7.444C578.329 7.038 578.157 6.625 578.007 6.204L572.319 5.172L577.01 1.778C576.967 1.337 576.944 0.889 576.934 0.439L569.711 5.081L527.969 14.587L535.01 0H533.537L526.539 14.498L519.557 0H518.086L525.393 15.174L496.641 21.721L496.631 0H495.307L495.317 21.845L466.534 15.264L473.902 0H472.429L465.486 14.387L458.555 0H457.086L464.178 14.725L422.049 5.094L415.072 0.592C415.056 1.045 415.029 1.495 414.982 1.939L419.492 5.214L414.006 6.199C413.852 6.624 413.68 7.04 413.496 7.45L421.887 6.416L464.617 16.186L457.66 30.599L440.945 34.406L417.343 15.577L417.685 16.137L412.997 8.478C412.788 8.875 412.565 9.264 412.331 9.644L414.981 14.566L409.577 13.064C409.255 13.378 408.923 13.681 408.579 13.97L418.39 17.288H418.392L416.398 16.614L439.197 34.803L416.711 39.923L408.555 22.989L407.713 14.658C407.356 14.924 406.984 15.174 406.608 15.414L406.864 21.035L402.62 17.314C402.194 17.455 401.765 17.585 401.329 17.696L408.757 24.968L407.4 23.638L415.388 40.224L397.423 44.316L397.415 25.857L396.743 27.71L400.288 17.924C399.854 18.007 399.415 18.075 398.968 18.127L396.743 23.345L396.667 23.164V23.163L394.513 18.101C394.066 18.045 393.622 17.977 393.187 17.888L396.378 26.698L396.021 25.715L396.029 44.493L377.986 40.367L386.088 23.586L392.17 17.651C391.738 17.537 391.315 17.405 390.895 17.26L386.59 21.019L386.861 15.283C386.486 15.037 386.121 14.779 385.765 14.507L384.888 23.019L376.659 40.065L354.374 34.968L377.757 16.346L385.019 13.904C384.679 13.615 384.349 13.315 384.031 13.002L378.482 14.534L381.228 9.459C380.996 9.077 380.781 8.683 380.578 8.283L375.299 16.875L376.09 15.588L352.338 34.503L336.047 30.777L328.979 16.097L371.653 6.38L380.178 7.444C379.996 7.038 379.824 6.625 379.674 6.204L373.988 5.172L378.679 1.778C378.636 1.337 378.613 0.889 378.603 0.439L371.376 5.081L329.634 14.587L336.676 0H335.203L328.205 14.498L321.223 0H319.752L327.059 15.174L298.309 21.721L298.299 0H296.975L296.983 21.845L268.202 15.264L275.569 0H274.097L267.152 14.387L260.224 0H258.752L265.845 14.725L223.718 5.094L216.739 0.592C216.725 1.045 216.698 1.495 216.651 1.939L221.161 5.214L215.674 6.199C215.521 6.624 215.349 7.04 215.166 7.45L223.556 6.416L266.286 16.186L259.328 30.599L242.613 34.406L219.013 15.577L219.355 16.137L214.667 8.478C214.458 8.875 214.236 9.264 214 9.644L216.651 14.566L211.247 13.064C210.926 13.378 210.594 13.681 210.249 13.97L220.061 17.288L218.068 16.614L240.866 34.803L218.381 39.923L210.226 22.989L209.382 14.658C209.023 14.924 208.653 15.174 208.276 15.414L208.534 21.035L204.287 17.314C203.862 17.455 203.433 17.585 202.995 17.696L210.425 24.968L209.067 23.638L217.056 40.224L199.091 44.316L199.083 25.857L198.413 27.71L201.957 17.924C201.522 18.007 201.082 18.075 200.634 18.127L198.413 23.345L198.335 23.164V23.163L196.179 18.101C195.733 18.045 195.291 17.977 194.855 17.888L198.046 26.698L197.69 25.715L197.698 44.493L179.654 40.367L187.754 23.586L193.838 17.651C193.405 17.537 192.981 17.405 192.561 17.26L188.256 21.019L188.529 15.283C188.153 15.037 187.787 14.779 187.432 14.507L186.556 23.019L178.328 40.065L156.042 34.968L179.423 16.346L186.686 13.904C186.347 13.615 186.018 13.315 185.7 13.002L180.148 14.534L182.895 9.459C182.663 9.077 182.449 8.683 182.245 8.283L176.966 16.875L177.755 15.588L154.005 34.503L137.715 30.777L130.644 16.097L173.319 6.38L181.844 7.444C181.662 7.038 181.492 6.625 181.339 6.204L175.655 5.172L180.344 1.778C180.301 1.337 180.278 0.889 180.268 0.439L173.044 5.081L131.302 14.587L138.343 0H136.871L129.872 14.498L122.89 0H121.419L128.728 15.174L99.977 21.721L99.966 0H98.641L98.65 21.845L69.868 15.264L77.236 0H75.764L68.82 14.387L61.891 0H60.42L67.512 14.725L25.383 5.093L18.404 0.591C18.39 1.044 18.363 1.494 18.316 1.938L22.825 5.213L17.339 6.198C17.186 6.623 17.014 7.039 16.831 7.449L25.221 6.415L67.951 16.185L60.994 30.598L44.278 34.405L20.678 15.576L21.021 16.136L16.332 8.477C16.123 8.874 15.9 9.263 15.665 9.643L18.316 14.565L12.912 13.063C12.59 13.377 12.258 13.68 11.914 13.969L21.726 17.287L19.733 16.613L42.531 34.802L20.046 39.922L11.89 22.989L11.047 14.658C10.69 14.924 10.318 15.174 9.941 15.414L10.199 21.035L5.952 17.314C5.529 17.455 5.099 17.585 4.661 17.696L12.091 24.968L10.733 23.638L18.721 40.224L0.757 44.316L0.749 25.857L0.077 27.71L3.622 17.924C3.186 18.007 2.746 18.075 2.3 18.127L0.077 23.345L0 23.165V135.17L0.077 134.988L2.3 140.206C2.745 140.258 3.186 140.326 3.622 140.409L0.661 132.235L0.795 132.604L0.787 113.814L18.832 117.939L10.7 134.786L4.694 140.645C5.131 140.755 5.56 140.887 5.983 141.029L10.236 137.316L9.969 142.936C10.346 143.176 10.717 143.426 11.073 143.693L11.942 135.264L20.158 118.242L42.454 123.34L19.016 142.006L11.939 144.386C12.282 144.676 12.615 144.98 12.936 145.293L18.342 143.801L15.682 148.717C15.918 149.099 16.139 149.488 16.348 149.887L21.466 141.558L20.765 142.7L44.49 123.804L60.772 127.528L67.842 142.207L25.086 151.943L16.846 150.914C17.028 151.324 17.199 151.74 17.351 152.165L22.837 153.16L18.322 156.427C18.368 156.87 18.393 157.321 18.407 157.774L25.52 153.203L67.535 143.636L60.442 158.332H60.422L67.514 173.058L25.385 163.426L18.406 158.923C18.392 159.376 18.365 159.826 18.318 160.271L22.827 163.545L17.341 164.531C17.188 164.955 17.016 165.371 16.833 165.781L25.223 164.748L67.953 174.519L60.996 188.932L44.28 192.739L20.68 173.91L21.023 174.471L16.334 166.811C16.125 167.208 15.902 167.598 15.667 167.977L18.318 172.899L12.914 171.397C12.592 171.71 12.26 172.014 11.916 172.303L21.728 175.622L19.735 174.947L42.533 193.138L20.048 198.258L11.892 181.323L11.049 172.992C10.692 173.259 10.32 173.51 9.943 173.748L10.201 179.369L5.954 175.648C5.531 175.79 5.101 175.919 4.663 176.03L12.093 183.303L10.735 181.973L18.723 198.559L0.76 202.649L0.749 184.19L0.078 186.043L3.623 176.258C3.187 176.341 2.747 176.408 2.301 176.46L0.078 181.679L0 181.497V293.504L0.077 293.324L2.3 298.543C2.745 298.594 3.186 298.662 3.622 298.742L0.661 290.568L0.795 290.937L0.787 272.146L18.832 276.271L10.7 293.121L4.694 298.978C5.131 299.089 5.56 299.22 5.983 299.363L10.236 295.65L9.969 301.269C10.346 301.509 10.717 301.759 11.073 302.027L11.942 293.597L20.158 276.576L42.454 281.674L19.016 300.34L11.939 302.719C12.282 303.01 12.615 303.313 12.936 303.627L18.342 302.135L15.682 307.053C15.918 307.432 16.139 307.823 16.348 308.221L21.466 299.891L20.765 301.034L44.49 282.139L60.772 285.862L67.842 300.542L25.086 310.278L16.846 309.251C17.028 309.661 17.199 310.077 17.351 310.503L22.837 311.497L18.322 314.763C18.368 315.206 18.393 315.658 18.407 316.111L25.52 311.541L67.535 301.973L60.442 316.67H60.422L67.514 331.395L25.385 321.762L18.406 317.26C18.392 317.713 18.365 318.162 18.318 318.606L22.827 321.881L17.341 322.867C17.188 323.293 17.016 323.709 16.833 324.119L25.223 323.086L67.953 332.856L60.996 347.268L44.28 351.075L20.68 332.247L21.023 332.806L16.334 325.146C16.125 325.544 15.902 325.933 15.667 326.312L18.318 331.234L12.914 329.734C12.592 330.048 12.26 330.349 11.916 330.64L21.728 333.958L19.735 333.284L42.533 351.472L20.048 356.593L11.892 339.661L11.049 331.329C10.692 331.595 10.32 331.845 9.943 332.085L10.201 337.706L5.954 333.983C5.531 334.126 5.101 334.256 4.663 334.366L12.093 341.639L10.735 340.309L18.723 356.895L0.76 360.987L0.752 342.528L0.081 344.38L3.626 334.595C3.19 334.679 2.75 334.745 2.304 334.798L0.081 340.015L0 339.832V451.838L0.077 451.656L2.3 456.873C2.745 456.926 3.186 456.992 3.622 457.076L0.661 448.902L0.795 449.271L0.787 430.48L18.832 434.607L10.7 451.453L4.694 457.312C5.131 457.421 5.56 457.554 5.983 457.697L10.236 453.982L9.969 459.603C10.346 459.843 10.717 460.093 11.073 460.361L11.942 451.931L20.158 434.91L42.454 440.008L19.016 458.672L11.939 461.053C12.282 461.344 12.615 461.647 12.936 461.961L18.342 460.469L15.682 465.387C15.918 465.766 16.139 466.157 16.348 466.555L21.466 458.225L20.765 459.368L44.49 440.475L60.772 444.196L67.842 458.876L25.086 468.612L16.846 467.581C17.028 467.991 17.199 468.409 17.351 468.833L22.837 469.829L18.322 473.097C18.368 473.54 18.393 473.992 18.407 474.445L25.52 469.873L67.535 460.307L60.44 475H61.911L68.767 460.799L75.607 475H77.078L69.756 459.797L98.7 453.207L98.71 475H100.035L100.025 453.172L128.615 459.707L121.233 475H122.706L129.701 460.51L136.68 475H138.152L131.054 460.266L173.038 469.866L180.267 474.53C180.279 474.079 180.302 473.634 180.345 473.19L175.662 469.79L181.347 468.769C181.5 468.347 181.672 467.935 181.855 467.529L173.346 468.576L130.531 458.787L137.489 444.375L154.204 440.57L177.78 459.379L177.752 459.332L182.257 466.691C182.462 466.295 182.677 465.902 182.909 465.519L180.172 460.437L185.72 461.98C186.037 461.667 186.367 461.367 186.708 461.08L178.808 458.406L155.952 440.172L178.437 435.051L186.596 451.992L187.454 460.478C187.81 460.207 188.177 459.949 188.553 459.705L188.29 453.967L192.588 457.735C193.008 457.59 193.433 457.458 193.865 457.346L187.772 451.381L179.762 434.75L197.725 430.658L197.733 449.162L194.852 457.113C195.288 457.025 195.73 456.957 196.176 456.9L198.332 451.839L198.41 451.657L200.631 456.874C201.078 456.927 201.519 456.993 201.954 457.077L198.992 448.903L199.126 449.272L199.118 430.481L217.163 434.608L209.031 451.454L203.024 457.313C203.461 457.422 203.891 457.555 204.314 457.698L208.568 453.983L208.3 459.604C208.677 459.844 209.046 460.094 209.405 460.362L210.272 451.932L218.489 434.911L240.785 440.009L217.347 458.673L210.27 461.054C210.614 461.345 210.946 461.648 211.268 461.962L216.674 460.47L214.014 465.388C214.249 465.767 214.471 466.158 214.68 466.556L219.798 458.226L219.096 459.369L242.821 440.476L259.102 444.197L266.173 458.877L223.417 468.613L215.177 467.582C215.359 467.992 215.53 468.41 215.683 468.834L221.168 469.83L216.653 473.098C216.699 473.541 216.725 473.993 216.738 474.446L223.85 469.874L265.865 460.308L258.772 475H260.245L267.099 460.799L273.94 475H275.411L268.089 459.797L297.032 453.207L297.042 475H298.368L298.358 453.172L326.948 459.707L319.564 475H321.039L328.033 460.51L335.012 475H336.485L329.387 460.266L371.369 469.866L378.601 474.53C378.613 474.079 378.636 473.634 378.679 473.19L373.995 469.79L379.681 468.769C379.833 468.347 380.005 467.935 380.187 467.529L371.679 468.576L328.865 458.787L335.822 444.375L352.537 440.57L376.113 459.379L376.084 459.332L380.592 466.691C380.795 466.295 381.01 465.902 381.242 465.519L378.506 460.437L384.053 461.98C384.371 461.667 384.701 461.367 385.043 461.08L377.143 458.406L354.286 440.172L376.77 435.051L384.93 451.992L385.787 460.478C386.144 460.207 386.512 459.949 386.887 459.705L386.623 453.967L390.922 457.735C391.342 457.59 391.768 457.458 392.197 457.346L386.105 451.381L378.095 434.75L396.058 430.658L396.066 449.162L393.185 457.113C393.621 457.025 394.064 456.957 394.511 456.9L396.665 451.839L396.741 451.657L398.966 456.874C399.413 456.927 399.853 456.993 400.286 457.077L397.325 448.903L397.46 449.272L397.452 430.481L415.497 434.608L407.364 451.454L401.356 457.313C401.794 457.422 402.223 457.555 402.647 457.698L406.899 453.983L406.631 459.604C407.01 459.844 407.379 460.094 407.736 460.362L408.603 451.932L416.82 434.911L439.117 440.009L415.679 458.673L408.601 461.054C408.945 461.345 409.279 461.648 409.599 461.962L415.005 460.47L412.345 465.388C412.579 465.767 412.802 466.158 413.009 466.556L418.128 458.226L417.425 459.369L441.152 440.476L457.433 444.197L464.503 458.877L421.747 468.613L413.507 467.582C413.689 467.992 413.861 468.41 414.013 468.834L419.499 469.83L414.983 473.098C415.03 473.541 415.055 473.993 415.069 474.446L422.18 469.874L464.196 460.308L457.105 475H458.576L465.433 460.799L472.271 475H473.744L466.42 459.797L495.367 453.207L495.375 475H496.699L496.689 453.172L525.281 459.707L517.898 475H519.371L526.367 460.51L533.346 475H534.817L527.721 460.266L569.703 469.866L576.933 474.53C576.945 474.079 576.968 473.634 577.011 473.19L572.327 469.79L578.015 468.769C578.167 468.347 578.339 467.935 578.521 467.529L570.013 468.576L527.199 458.787L534.154 444.375L550.871 440.57L574.445 459.379L574.418 459.332L578.924 466.691C579.127 466.295 579.342 465.902 579.574 465.519L576.838 460.437L582.389 461.98C582.705 461.667 583.035 461.367 583.375 461.08L575.475 458.406L552.618 440.172L575.102 435.051L583.262 451.992L584.121 460.478C584.476 460.207 584.844 459.949 585.219 459.705L584.957 453.967L589.256 457.735C589.676 457.59 590.1 457.458 590.533 457.346L584.437 451.381L576.427 434.75L594.392 430.658L594.4 449.162L591.517 457.113C591.953 457.025 592.396 456.957 592.843 456.9L594.997 451.839V339.832L592.843 334.769C592.396 334.712 591.952 334.644 591.517 334.556L594.71 343.367L594.353 342.383L594.363 361.16L576.316 357.033L584.418 340.252L590.502 334.316C590.07 334.203 589.645 334.07 589.225 333.925L584.92 337.685L585.191 331.949C584.816 331.703 584.451 331.445 584.095 331.172L583.218 339.686L574.989 356.731L552.704 351.635L576.087 333.014L583.349 330.571C583.009 330.282 582.679 329.981 582.365 329.669L576.812 331.2L579.558 326.124C579.326 325.743 579.111 325.349 578.908 324.95L573.631 333.542L574.42 332.255L550.67 351.169L534.379 347.446L527.311 332.764L569.985 323.047L578.508 324.113C578.328 323.705 578.156 323.293 578.006 322.871L572.318 321.84L577.009 318.447C576.966 318.004 576.943 317.556 576.933 317.107L569.71 321.75L527.968 331.254L535.009 316.668H534.816L527.72 301.932L569.702 311.534L576.932 316.196C576.944 315.747 576.967 315.3 577.01 314.856L572.326 311.458L578.014 310.437C578.166 310.015 578.338 309.603 578.52 309.197L570.012 310.246L527.198 300.455L534.153 286.041L550.87 282.234L574.444 301.045L574.417 301L578.923 308.359C579.126 307.961 579.341 307.566 579.573 307.185L576.837 302.103L582.388 303.646C582.704 303.333 583.034 303.035 583.374 302.746L575.474 300.074L552.617 281.838L575.101 276.717L583.261 293.658L584.12 302.144C584.475 301.873 584.843 301.615 585.218 301.371L584.956 295.635L589.255 299.401C589.675 299.256 590.099 299.126 590.532 299.012L584.436 293.047L576.426 276.416L594.391 272.324L594.399 290.828L591.516 298.779C591.952 298.691 592.395 298.627 592.842 298.568L594.996 293.505V181.496L592.842 176.435C592.395 176.377 591.951 176.31 591.516 176.221L594.709 185.03L594.352 184.048L594.362 202.825L576.315 198.699L584.417 181.916L590.501 175.981C590.069 175.867 589.644 175.735 589.224 175.59L584.919 179.35L585.19 173.613C584.815 173.367 584.45 173.109 584.094 172.837L583.217 181.351L574.988 198.395L552.703 193.299L576.086 174.676L583.348 172.233C583.008 171.944 582.678 171.644 582.364 171.331L576.811 172.863L579.557 167.788C579.325 167.406 579.11 167.013 578.907 166.612L573.63 175.203L574.419 173.917L550.669 192.832L534.378 189.107L527.31 174.428L569.984 164.709L578.507 165.775C578.327 165.368 578.155 164.955 578.005 164.534L572.317 163.502L577.008 160.109C576.965 159.668 576.942 159.221 576.932 158.77L569.709 163.412L527.967 172.917L535.008 158.33H534.815L527.719 143.595L569.701 153.194L576.931 157.859C576.943 157.409 576.966 156.961 577.009 156.519L572.325 153.118L578.013 152.097C578.165 151.676 578.337 151.264 578.519 150.857L570.011 151.904L527.197 142.115L534.152 127.702L550.869 123.896L574.443 142.706L574.416 142.66L578.922 150.02C579.125 149.62 579.34 149.227 579.572 148.845L576.836 143.765L582.387 145.307C582.703 144.994 583.033 144.695 583.373 144.406L575.473 141.735L552.616 123.498L575.1 118.378L583.26 135.319L584.119 143.805C584.474 143.534 584.842 143.277 585.217 143.032L584.955 137.295L589.254 141.063C589.674 140.918 590.098 140.787 590.531 140.672L584.435 134.707L576.425 118.077L594.39 113.987L594.398 132.489L591.515 140.443C591.951 140.354 592.394 140.286 592.841 140.23L594.995 135.167V23.163L592.841 18.101C592.396 18.045 591.953 17.977 591.518 17.888ZM594.387 101.092L565.012 94.375L557.637 79.064L564.766 64.298L594.37 57.557L594.387 101.092ZM563.357 93.998L551.712 91.335L556.9 80.59L563.357 93.998ZM551.932 67.221L563.11 64.675L556.903 77.539L551.932 67.221ZM575.727 41.591L594.364 45.853L594.368 56.199L565.503 62.771L575.727 41.591ZM551.379 36.023L574.399 41.288L563.848 63.148L551.342 65.996L540.92 44.354L551.379 36.023ZM549.342 35.557L540.194 42.846L535.116 32.305L549.342 35.557ZM532.729 30.398L521.567 27.846L526.538 17.549L532.729 30.398ZM525.576 16.491L520.242 27.544L498.685 22.616L525.576 16.491ZM492.725 22.613L471.746 27.39L466.564 16.632L492.725 22.613ZM465.484 17.438L470.423 27.691L459.312 30.22L465.484 17.438ZM456.922 32.125L451.686 42.975L442.27 35.462L456.922 32.125ZM440.523 35.859L451.06 44.268L440.605 65.93L427.832 63.01L417.301 41.149L440.523 35.859ZM440.445 122.284L417.414 117.018L427.809 95.487L440.6 92.574L450.899 113.958L440.445 122.284ZM451.625 115.466L456.699 126L442.48 122.75L451.625 115.466ZM426.154 95.864L416.09 116.714L397.453 112.453L397.447 102.401L426.154 95.864ZM397.447 101.041L397.427 57.419L426.913 64.161L434.177 79.242L426.89 94.336L397.447 101.041ZM428.547 93.958L434.912 80.767L440.01 91.348L428.547 93.958ZM428.568 64.539L440.011 67.156L434.913 77.717L428.568 64.539ZM415.977 41.45L426.178 62.633L397.428 56.059L397.424 45.676L415.977 41.45ZM396.066 132.492L393.185 140.446C393.621 140.357 394.064 140.289 394.511 140.233L396.665 135.17L396.741 134.988L398.966 140.206C399.413 140.258 399.853 140.326 400.286 140.409L397.325 132.235L397.46 132.604L397.452 113.814L415.497 117.939L407.364 134.786L401.356 140.645C401.794 140.755 402.223 140.887 402.647 141.029L406.899 137.316L406.631 142.936C407.01 143.176 407.379 143.426 407.736 143.693L408.603 135.264L416.82 118.242L439.117 123.34L415.679 142.006L408.601 144.386C408.945 144.676 409.279 144.98 409.599 145.293L415.005 143.801L412.345 148.717C412.579 149.099 412.802 149.488 413.009 149.887L418.128 141.558L417.425 142.7L441.152 123.804L457.433 127.528L464.503 142.207L421.747 151.943L413.507 150.914C413.689 151.324 413.861 151.74 414.013 152.165L419.499 153.16L414.983 156.427C415.03 156.87 415.055 157.321 415.069 157.774L422.18 153.203L464.196 143.636L457.102 158.332H457.082L464.174 173.058L422.045 163.426L415.068 158.923C415.052 159.376 415.025 159.826 414.978 160.271L419.488 163.545L414.002 164.531C413.848 164.955 413.676 165.371 413.492 165.781L421.883 164.748L464.613 174.519L457.656 188.932L440.941 192.739L417.339 173.91L417.681 174.471L412.993 166.811C412.784 167.208 412.561 167.598 412.327 167.977L414.977 172.899L409.573 171.397C409.251 171.71 408.919 172.014 408.575 172.303L418.386 175.622H418.388L416.394 174.947L439.193 193.138L416.707 198.258L408.551 181.323L407.709 172.992C407.352 173.259 406.98 173.51 406.604 173.748L406.86 179.369L402.616 175.648C402.19 175.79 401.761 175.919 401.325 176.03L408.753 183.303L407.396 181.973L415.384 198.559L397.419 202.649L397.411 184.19L396.739 186.043L400.284 176.258C399.85 176.341 399.411 176.408 398.964 176.46L396.739 181.679L396.663 181.497V181.496L394.509 176.435C394.062 176.377 393.618 176.31 393.183 176.221L396.374 185.03L396.017 184.048L396.025 202.825L377.982 198.699L386.084 181.916L392.166 175.981C391.734 175.867 391.311 175.735 390.891 175.59L386.586 179.35L386.857 173.613C386.482 173.367 386.117 173.109 385.761 172.837L384.884 181.351L376.655 198.395L354.37 193.299L377.753 174.676L385.015 172.233C384.675 171.944 384.345 171.644 384.027 171.331L378.478 172.863L381.224 167.788C380.992 167.406 380.777 167.013 380.574 166.612L375.295 175.203L376.086 173.917L352.334 192.832L336.043 189.107L328.975 174.428L371.649 164.709L380.174 165.775C379.992 165.368 379.82 164.955 379.67 164.534L373.984 163.502L378.675 160.109C378.632 159.668 378.609 159.221 378.599 158.77L371.372 163.412L329.63 172.917L336.673 158.33H336.482L329.384 143.595L371.366 153.194L378.598 157.859C378.61 157.409 378.633 156.961 378.676 156.519L373.992 153.118L379.678 152.097C379.83 151.676 380.002 151.264 380.184 150.857L371.676 151.904L328.862 142.115L335.819 127.702L352.534 123.896L376.11 142.706L376.081 142.66L380.589 150.02C380.792 149.62 381.007 149.227 381.239 148.845L378.503 143.765L384.05 145.307C384.368 144.994 384.698 144.695 385.04 144.406L377.14 141.735L354.283 123.498L376.767 118.378L384.927 135.319L385.784 143.805C386.141 143.534 386.509 143.277 386.884 143.032L386.62 137.295L390.919 141.063C391.339 140.918 391.765 140.787 392.194 140.672L386.102 134.707L378.092 118.077L396.055 113.987L396.066 132.492ZM495.316 180.178L466.533 173.598L473.902 158.333H473.744L466.42 143.13L495.367 136.539L495.375 158.332H495.307L495.316 180.178ZM470.424 186.026L459.313 188.556L465.485 175.772L470.424 186.026ZM458.555 158.333H458.576L465.433 144.13L472.271 158.333H472.429L465.486 172.72L458.555 158.333ZM466.564 174.965L492.724 180.946L471.745 185.724L466.564 174.965ZM466.59 141.734L471.856 130.825L493.129 135.69L466.59 141.734ZM465.434 141.08L459.088 127.907L470.531 130.523L465.434 141.08ZM440.445 280.617L417.414 275.349L427.809 253.818L440.6 250.906L450.899 272.293L440.445 280.617ZM451.625 273.799L456.699 284.334L442.48 281.082L451.625 273.799ZM426.914 222.493L434.178 237.574L426.891 252.67L397.448 259.375L397.428 215.752L426.914 222.493ZM397.428 214.392L397.424 204.01L415.977 199.784L426.178 220.966L397.428 214.392ZM426.154 254.195L416.09 275.047L397.453 270.787L397.447 260.732L426.154 254.195ZM428.547 252.293L434.912 239.102L440.01 249.682L428.547 252.293ZM428.568 222.871L440.011 225.488L434.913 236.048L428.568 222.871ZM427.832 221.344L417.301 199.482L440.524 194.194L451.061 202.602L440.606 224.263L427.832 221.344ZM442.27 193.797L456.922 190.46L451.686 201.309L442.27 193.797ZM298.357 294.838L326.947 301.375L319.564 316.668H319.752L327.059 331.842L298.309 338.389L298.299 316.668H298.367L298.357 294.838ZM300.754 294.025L321.799 289.232L326.996 300.025L300.754 294.025ZM327.242 333.158L321.906 344.213L300.351 339.283L327.242 333.158ZM328.205 334.217L334.393 347.069L323.233 344.516L328.205 334.217ZM321.223 316.668H321.039L328.033 302.176L335.012 316.668H335.203L328.205 331.166L321.223 316.668ZM323.125 288.932L334.166 286.416L328.033 299.123L323.125 288.932ZM322.535 287.707L309.484 260.613L309.562 261.39L308.642 252.283C308.285 252.551 307.913 252.801 307.537 253.041L307.795 258.662L303.547 254.939C303.123 255.08 302.693 255.21 302.256 255.32L309.686 262.593L308.329 261.263L321.212 288.007L298.358 293.212L298.344 263.482L301.217 255.548C300.781 255.632 300.344 255.698 299.897 255.751L297.675 260.97L295.441 255.726C294.996 255.669 294.553 255.601 294.117 255.513L297.019 263.529L297.033 293.175L274.116 287.933L287.018 261.208L293.1 255.272C292.668 255.157 292.243 255.026 291.823 254.881L287.518 258.641L287.791 252.905C287.415 252.659 287.049 252.401 286.693 252.13L285.725 261.538L285.817 260.642L272.789 287.63L260.02 284.71L254.357 272.952L277.833 254.255L285.948 251.526C285.609 251.237 285.279 250.938 284.962 250.626L279.41 252.157L282.157 247.083C281.926 246.698 281.711 246.306 281.507 245.905L277.489 252.444L253.63 271.444L243.593 250.604L272.58 244.002L270.662 243.762L281.106 245.067C280.924 244.663 280.754 244.249 280.601 243.827L274.917 242.796L279.606 239.403C279.563 238.962 279.54 238.514 279.529 238.063L272.306 242.706L243.002 249.38L237.316 237.575L243.004 225.792L272.3 232.489L279.529 237.153C279.541 236.702 279.564 236.255 279.607 235.813L274.924 232.413L280.609 231.392C280.762 230.97 280.934 230.558 281.117 230.152L270.671 231.439L272.608 231.199L243.595 224.566L253.788 203.45L277.041 222.002V222.003V222.002L281.518 229.315C281.723 228.917 281.938 228.523 282.17 228.141L279.433 223.06L284.981 224.603C285.299 224.289 285.629 223.99 285.969 223.701L276.023 220.338L278.069 221.029L254.413 202.156L260.241 190.083L272.677 187.25L285.857 214.614L286.715 223.1C287.07 222.829 287.438 222.573 287.813 222.328L287.551 216.591L291.849 220.359C292.269 220.215 292.694 220.082 293.126 219.969L287.033 214.004L274.002 186.95L296.981 181.717L296.993 211.785L297.337 210.837L294.113 219.738C294.549 219.65 294.991 219.582 295.437 219.525L297.671 214.282L299.893 219.5C300.34 219.553 300.778 219.619 301.213 219.703L298.317 211.707L298.305 181.843L321.311 187.104L308.291 214.078L302.285 219.937C302.721 220.048 303.15 220.18 303.574 220.322L307.828 216.608L307.558 222.228C307.937 222.469 308.306 222.719 308.665 222.985L309.724 212.679L309.531 214.556L322.636 187.405L335.124 190.262L340.792 202.027L316.585 221.305L319.347 220.376L309.529 223.678C309.873 223.967 310.205 224.27 310.527 224.586L315.933 223.094L313.271 228.01C313.507 228.39 313.728 228.78 313.937 229.178L318.367 221.972L341.519 203.534L351.679 224.631L322.675 231.236L314.435 230.205C314.619 230.615 314.789 231.033 314.941 231.459L320.427 232.453L315.911 235.72C315.958 236.163 315.983 236.613 315.997 237.066L323.11 232.496L352.268 225.855L357.827 237.396L352.048 249.365L322.974 242.717L316 238.215C315.986 238.67 315.959 239.117 315.912 239.563L320.422 242.838L314.934 243.822C314.782 244.248 314.61 244.664 314.426 245.074L322.815 244.041L351.461 250.59L341.359 271.524L318.16 253.016L313.928 246.102C313.719 246.5 313.496 246.889 313.26 247.268L315.912 252.19L310.508 250.688C310.186 251.002 309.854 251.305 309.51 251.594L317.535 254.309L340.734 272.817L334.904 284.891L322.535 287.707ZM296.983 338.512L268.202 331.932L275.57 316.668H275.412L268.09 301.465L297.033 294.875L297.043 316.668H296.977L296.983 338.512ZM267.1 299.414L260.755 286.238L272.197 288.855L267.1 299.414ZM273.523 289.16L294.797 294.023L268.257 300.066L273.523 289.16ZM273.94 316.668H274.097L267.152 331.055L260.223 316.668H260.244L267.098 302.465L273.94 316.668ZM272.09 344.359L260.981 346.89L267.151 334.105L272.09 344.359ZM268.234 333.299L294.394 339.281L273.415 344.056L268.234 333.299ZM252.728 202.603L242.271 224.264L229.5 221.344L218.97 199.482L242.191 194.194L252.728 202.603ZM243.938 193.797L258.589 190.46L253.353 201.309L243.938 193.797ZM230.235 222.871L241.68 225.488L236.582 236.048L230.235 222.871ZM241.677 249.682L230.213 252.293L236.581 239.102L241.677 249.682ZM227.846 220.966L199.095 214.392L199.091 204.01L217.644 199.784L227.846 220.966ZM228.581 222.493L235.846 237.574L228.56 252.67L199.114 259.375L199.096 215.752L228.581 222.493ZM227.822 254.195L217.757 275.047L199.118 270.787L199.114 260.732L227.822 254.195ZM229.476 253.818L242.267 250.906L252.567 272.293L242.113 280.617L219.082 275.349L229.476 253.818ZM253.294 273.799L258.367 284.334L244.149 281.082L253.294 273.799ZM296.983 180.178L268.202 173.598L275.57 158.333H275.412L268.09 143.13L297.033 136.539L297.043 158.332H296.977L296.983 180.178ZM294.394 180.946L273.415 185.724L268.234 174.965L294.394 180.946ZM268.258 141.734L273.524 130.825L294.798 135.69L268.258 141.734ZM267.1 141.08L260.755 127.907L272.197 130.523L267.1 141.08ZM273.94 158.333H274.097L267.152 172.72L260.223 158.333H260.244L267.098 144.13L273.94 158.333ZM272.09 186.026L260.981 188.556L267.151 175.772L272.09 186.026ZM298.357 136.504L326.947 143.041L319.564 158.333H319.752L327.059 173.506L298.309 180.055L298.299 158.333H298.367L298.357 136.504ZM328.205 175.883L334.393 188.733L323.233 186.182L328.205 175.883ZM321.906 185.877L300.351 180.948L327.242 174.823L321.906 185.877ZM321.223 158.333H321.039L328.033 143.841L335.012 158.333H335.203L328.205 172.83L321.223 158.333ZM323.125 130.599L334.166 128.084L328.033 140.791L323.125 130.599ZM326.996 141.693L300.754 135.693L321.799 130.901L326.996 141.693ZM365.025 252.332L353.379 249.668L358.568 238.924L365.025 252.332ZM353.6 225.555L364.778 223.008L358.571 235.871L353.6 225.555ZM359.303 237.398L366.434 222.633L396.034 215.891L396.054 259.426L366.681 252.709L359.303 237.398ZM367.168 221.104L377.393 199.925L396.03 204.186L396.034 214.531L367.168 221.104ZM365.516 221.481L353.008 224.328L342.584 202.688L353.045 194.357L376.066 199.621L365.516 221.481ZM341.859 201.18L336.783 190.639L351.008 193.893L341.859 201.18ZM341.797 273.664L351.211 281.176L336.559 284.514L341.797 273.664ZM342.42 272.371L352.789 250.892L365.762 253.859L376.18 275.49L352.959 280.777L342.42 272.371ZM367.414 254.236L396.053 260.785L396.057 270.965L377.506 275.188L367.414 254.236ZM365.025 93.998L353.379 91.335L358.568 80.59L365.025 93.998ZM353.6 67.221L364.778 64.675L358.571 77.539L353.6 67.221ZM365.762 95.527L376.18 117.157L352.959 122.445L342.42 114.037L352.789 92.56L365.762 95.527ZM351.211 122.842L336.559 126.179L341.797 115.33L351.211 122.842ZM396.057 112.631L377.506 116.856L367.414 95.905L396.053 102.453L396.057 112.631ZM396.053 101.092L366.68 94.375L359.303 79.064L366.434 64.298L396.034 57.557L396.053 101.092ZM377.393 41.591L396.03 45.853L396.034 56.199L367.169 62.771L377.393 41.591ZM353.045 36.023L376.066 41.288L365.515 63.148L353.007 65.996L342.583 44.354L353.045 36.023ZM351.008 35.557L341.86 42.846L336.784 32.305L351.008 35.557ZM334.393 30.398L323.233 27.846L328.206 17.549L334.393 30.398ZM327.242 16.491L321.906 27.544L300.351 22.616L327.242 16.491ZM294.394 22.613L273.415 27.39L268.234 16.632L294.394 22.613ZM267.151 17.438L272.089 27.691L260.98 30.22L267.151 17.438ZM260.244 31.75L272.68 28.917L285.86 56.281L286.718 64.767C287.073 64.497 287.441 64.24 287.816 63.995L287.554 58.256L291.852 62.023C292.272 61.879 292.697 61.748 293.129 61.634L287.036 55.669L274.005 28.614L296.984 23.382L296.996 53.45L297.34 52.501L294.116 61.403C294.552 61.316 294.994 61.247 295.44 61.191L297.674 55.947L299.896 61.165C300.343 61.217 300.781 61.284 301.216 61.367L298.32 53.372L298.308 23.507L321.314 28.768L308.294 55.744L302.288 61.602C302.724 61.713 303.153 61.845 303.577 61.988L307.831 58.273L307.561 63.894C307.94 64.135 308.309 64.385 308.668 64.652L309.727 54.344L309.534 56.221L322.639 29.071L335.127 31.926L340.795 43.692L316.59 62.971L319.352 62.042L309.534 65.343C309.878 65.633 310.21 65.936 310.532 66.25L315.938 64.758L313.276 69.675C313.512 70.055 313.733 70.446 313.942 70.843L318.372 63.637L341.524 45.2L351.684 66.297L322.68 72.901L314.44 71.872C314.624 72.282 314.794 72.699 314.946 73.124L320.432 74.119L315.916 77.385C315.963 77.829 315.988 78.28 316.002 78.733L323.115 74.162L352.273 67.521L357.832 79.062L352.053 91.031L322.979 84.383L316 79.882C315.986 80.335 315.959 80.785 315.912 81.229L320.422 84.504L314.934 85.489C314.782 85.914 314.61 86.331 314.426 86.74L322.815 85.707L351.461 92.257L341.359 113.189L318.16 94.68L313.928 87.767C313.719 88.165 313.496 88.554 313.26 88.934L315.912 93.856L310.508 92.356C310.186 92.669 309.854 92.971 309.51 93.261L317.535 95.975L340.734 114.483L334.904 126.556L322.535 129.373L309.484 102.281L309.562 103.057L308.642 93.95C308.285 94.217 307.913 94.467 307.537 94.707L307.795 100.328L303.547 96.606C303.123 96.748 302.693 96.877 302.256 96.987L309.686 104.259L308.329 102.929L321.212 129.674L298.358 134.878L298.344 105.149L301.217 97.214C300.781 97.298 300.344 97.365 299.897 97.417L297.675 102.635L295.441 97.391C294.996 97.334 294.553 97.266 294.117 97.178L297.019 105.194L297.033 134.839L274.116 129.599L287.018 102.874L293.1 96.94C292.668 96.825 292.243 96.693 291.823 96.548L287.518 100.308L287.791 94.571C287.415 94.326 287.049 94.067 286.693 93.795L285.725 103.204L285.817 102.309L272.789 129.295L260.02 126.376L254.357 114.618L277.833 95.922L285.948 93.194C285.609 92.904 285.279 92.604 284.962 92.292L279.41 93.824L282.157 88.748C281.926 88.366 281.711 87.972 281.507 87.573L277.489 94.11L253.63 113.111L243.593 92.272L272.58 85.67L270.662 85.43L281.106 86.736C280.924 86.329 280.754 85.917 280.601 85.495L274.917 84.464L279.606 81.071C279.563 80.629 279.54 80.182 279.529 79.733L272.306 84.374L243.002 91.048L237.316 79.244L243.004 67.46L272.3 74.158L279.529 78.821C279.541 78.371 279.564 77.924 279.607 77.483L274.924 74.081L280.609 73.06C280.762 72.639 280.934 72.227 281.117 71.821L270.671 73.108L272.608 72.869L243.595 66.236L253.788 45.118L277.041 63.67L281.518 70.984C281.723 70.585 281.938 70.191 282.17 69.809L279.433 64.727L284.981 66.269C285.299 65.957 285.629 65.658 285.969 65.37L276.023 62.005L278.069 62.697L254.413 43.823L260.244 31.75ZM230.235 64.539L241.68 67.156L236.582 77.717L230.235 64.539ZM241.677 91.348L230.213 93.959L236.581 80.768L241.677 91.348ZM235.846 79.241L228.56 94.335L199.114 101.04L199.096 57.418L228.582 64.16L235.846 79.241ZM227.822 95.864L217.757 116.714L199.118 112.453L199.114 102.401L227.822 95.864ZM229.476 95.487L242.267 92.574L252.567 113.958L242.113 122.283L219.082 117.017L229.476 95.487ZM253.294 115.466L258.367 126L244.149 122.75L253.294 115.466ZM258.589 32.125L253.353 42.975L243.937 35.462L258.589 32.125ZM242.19 35.859L252.728 44.268L242.271 65.93L229.5 63.01L218.97 41.149L242.19 35.859ZM217.644 41.45L227.846 62.633L199.095 56.059L199.091 45.676L217.644 41.45ZM197.734 132.492L194.853 140.446C195.289 140.357 195.731 140.289 196.177 140.233L198.333 135.17L198.411 134.988L200.632 140.206C201.079 140.258 201.52 140.326 201.955 140.409L198.993 132.235L199.127 132.604L199.119 113.814L217.164 117.939L209.032 134.786L203.025 140.645C203.462 140.755 203.892 140.887 204.315 141.029L208.569 137.316L208.301 142.936C208.678 143.176 209.047 143.426 209.406 143.693L210.273 135.264L218.49 118.242L240.786 123.34L217.348 142.006L210.271 144.386C210.615 144.676 210.947 144.98 211.269 145.293L216.675 143.801L214.015 148.717C214.25 149.099 214.472 149.488 214.681 149.887L219.799 141.558L219.097 142.7L242.822 123.804L259.103 127.528L266.174 142.207L223.418 151.943L215.178 150.914C215.36 151.324 215.531 151.74 215.684 152.165L221.169 153.16L216.654 156.427C216.7 156.87 216.726 157.321 216.739 157.774L223.851 153.203L265.866 143.636L258.772 158.332H258.752L265.845 173.058L223.718 163.426L216.739 158.923C216.725 159.376 216.698 159.826 216.651 160.271L221.161 163.545L215.674 164.531C215.521 164.955 215.349 165.371 215.166 165.781L223.556 164.748L266.286 174.519L259.328 188.932L242.613 192.739L219.013 173.91L219.355 174.471L214.667 166.811C214.458 167.208 214.236 167.598 214 167.977L216.651 172.899L211.247 171.397C210.926 171.71 210.594 172.014 210.249 172.303L220.061 175.622L218.068 174.947L240.866 193.138L218.381 198.258L210.226 181.323L209.382 172.992C209.023 173.259 208.653 173.51 208.276 173.748L208.534 179.369L204.287 175.648C203.862 175.79 203.433 175.919 202.995 176.03L210.425 183.303L209.067 181.973L217.056 198.559L199.091 202.649L199.083 184.19L198.413 186.043L201.957 176.258C201.522 176.341 201.082 176.408 200.634 176.46L198.413 181.679L198.335 181.497V181.496L196.179 176.435C195.733 176.377 195.291 176.31 194.855 176.221L198.046 185.03L197.69 184.048L197.698 202.825L179.654 198.699L187.754 181.916L193.838 175.981C193.405 175.867 192.981 175.735 192.561 175.59L188.256 179.35L188.529 173.613C188.153 173.367 187.787 173.109 187.432 172.837L186.556 181.351L178.328 198.395L156.042 193.299L179.423 174.676L186.686 172.233C186.347 171.944 186.018 171.644 185.7 171.331L180.148 172.863L182.895 167.788C182.663 167.406 182.449 167.013 182.245 166.612L176.966 175.203L177.755 173.917L154.005 192.832L137.715 189.107L130.644 174.428L173.319 164.709L181.844 165.775C181.662 165.368 181.492 164.955 181.339 164.534L175.655 163.502L180.344 160.109C180.301 159.668 180.278 159.221 180.268 158.77L173.044 163.412L131.302 172.917L138.344 158.33H138.152L131.054 143.595L173.038 153.194L180.267 157.859C180.279 157.409 180.302 156.961 180.345 156.519L175.662 153.118L181.347 152.097C181.5 151.676 181.672 151.264 181.855 150.857L173.346 151.904L130.531 142.115L137.489 127.702L154.204 123.896L177.78 142.706L177.752 142.66L182.257 150.02C182.462 149.62 182.677 149.227 182.909 148.845L180.172 143.765L185.72 145.307C186.037 144.994 186.367 144.695 186.708 144.406L178.808 141.735L155.952 123.498L178.437 118.378L186.596 135.319L187.454 143.805C187.81 143.534 188.177 143.277 188.553 143.032L188.29 137.295L192.588 141.063C193.008 140.918 193.433 140.787 193.865 140.672L187.772 134.707L179.762 118.077L197.725 113.987L197.734 132.492ZM144.088 272.371L154.455 250.892L167.428 253.859L177.847 275.49L154.626 280.777L144.088 272.371ZM152.879 281.176L138.227 284.514L143.464 273.664L152.879 281.176ZM154.712 194.357L177.734 199.621L167.181 221.481L154.676 224.328L144.253 202.688L154.712 194.357ZM143.527 201.18L138.449 190.639L152.678 193.893L143.527 201.18ZM168.835 221.104L179.059 199.925L197.696 204.186L197.7 214.531L168.835 221.104ZM197.702 215.891L197.72 259.426L168.345 252.709L160.97 237.398L168.097 222.633L197.702 215.891ZM166.444 223.008L160.235 235.871L155.266 225.555L166.444 223.008ZM166.692 252.332L155.046 249.668L160.234 238.924L166.692 252.332ZM169.082 254.236L197.721 260.785L197.725 270.965L179.173 275.188L169.082 254.236ZM100.025 136.504L128.615 143.041L121.233 158.333H121.419L128.728 173.506L99.977 180.055L99.967 158.333H100.035L100.025 136.504ZM124.792 130.599L135.835 128.084L129.701 140.791L124.792 130.599ZM136.68 158.333H136.872L129.873 172.83L122.89 158.333H122.705L129.7 143.841L136.68 158.333ZM128.665 141.693L102.423 135.693L123.467 130.901L128.665 141.693ZM128.911 174.824L123.576 185.877L102.02 180.948L128.911 174.824ZM129.872 175.883L136.061 188.733L124.901 186.182L129.872 175.883ZM166.692 93.998L155.046 91.335L160.234 80.59L166.692 93.998ZM155.266 67.221L166.444 64.675L160.235 77.539L155.266 67.221ZM167.428 95.527L177.847 117.157L154.626 122.445L144.088 114.037L154.455 92.56L167.428 95.527ZM152.879 122.842L138.227 126.179L143.464 115.33L152.879 122.842ZM197.725 112.631L179.173 116.856L169.082 95.905L197.721 102.453L197.725 112.631ZM197.72 101.092L168.345 94.375L160.97 79.064L168.097 64.298L197.701 57.557L197.72 101.092ZM179.06 41.591L197.697 45.853L197.701 56.199L168.836 62.771L179.06 41.591ZM154.712 36.023L177.734 41.288L167.181 63.148L154.676 65.996L144.253 44.354L154.712 36.023ZM152.677 35.557L143.527 42.846L138.449 32.305L152.677 35.557ZM136.061 30.398L124.901 27.846L129.872 17.549L136.061 30.398ZM128.911 16.491L123.576 27.544L102.02 22.616L128.911 16.491ZM96.061 22.613L75.083 27.39L69.901 16.632L96.061 22.613ZM68.819 17.438L73.757 27.691L62.648 30.22L68.819 17.438ZM60.256 32.125L55.019 42.975L45.603 35.462L60.256 32.125ZM43.856 35.859L54.394 44.268L43.938 65.93L31.165 63.01L20.635 41.148L43.856 35.859ZM31.901 64.539L43.347 67.156L38.248 77.717L31.901 64.539ZM43.344 91.348L31.879 93.959L38.247 80.768L43.344 91.348ZM0.757 45.675L19.31 41.45L29.513 62.633L0.762 56.058L0.757 45.675ZM0.762 57.418L30.248 64.16L37.513 79.241L30.226 94.335L0.781 101.04L0.762 57.418ZM19.422 116.714L0.786 112.453L0.782 102.401L29.489 95.864L19.422 116.714ZM43.78 122.284L20.749 117.018L31.143 95.487L43.934 92.574L54.234 113.958L43.78 122.284ZM45.814 122.75L54.959 115.467L60.034 126L45.814 122.75ZM56.023 114.62L79.5 95.923L87.615 93.195C87.277 92.905 86.947 92.605 86.628 92.293L81.077 93.825L83.823 88.749C83.591 88.367 83.378 87.973 83.175 87.574L79.157 94.111L55.297 113.112L45.259 92.272L74.247 85.67L72.329 85.43L82.773 86.736C82.591 86.329 82.42 85.917 82.269 85.495L76.584 84.464L81.274 81.071C81.231 80.629 81.208 80.182 81.197 79.733L73.974 84.374L44.667 91.048L38.982 79.244L44.671 67.46L73.967 74.158L81.197 78.821C81.209 78.371 81.232 77.924 81.275 77.483L76.592 74.081L82.278 73.06C82.43 72.639 82.602 72.227 82.785 71.821L72.34 73.106L74.277 72.867L45.264 66.234L55.457 45.116L78.711 63.668L83.188 70.982C83.393 70.583 83.606 70.189 83.84 69.807L81.102 64.725L86.651 66.267C86.969 65.955 87.299 65.656 87.638 65.368L77.692 62.003L79.738 62.695L56.082 43.823L61.911 31.749L74.347 28.916L87.526 56.28L88.385 64.766C88.74 64.496 89.108 64.239 89.483 63.994L89.22 58.255L93.519 62.022C93.939 61.878 94.364 61.747 94.797 61.633L88.703 55.668L75.672 28.615L98.651 23.383L98.664 53.451L99.008 52.502L95.783 61.404C96.219 61.317 96.661 61.248 97.107 61.192L99.341 55.948L101.563 61.166C102.009 61.218 102.45 61.285 102.885 61.368L99.989 53.373L99.976 23.508L122.984 28.769L109.963 55.745L103.957 61.603C104.394 61.714 104.822 61.846 105.246 61.989L109.499 58.274L109.231 63.895C109.607 64.136 109.979 64.386 110.336 64.653L111.397 54.345L111.204 56.222L124.309 29.072L136.796 31.927L142.463 43.693L118.256 62.971L121.019 62.042L111.202 65.343C111.544 65.633 111.877 65.936 112.198 66.25L117.605 64.758L114.945 69.675C115.181 70.055 115.402 70.446 115.611 70.843L120.039 63.637L143.19 45.2L153.351 66.297L124.348 72.901L116.108 71.872C116.29 72.282 116.461 72.699 116.612 73.124L122.099 74.119L117.584 77.385C117.63 77.829 117.654 78.28 117.668 78.733L124.781 74.162L153.94 67.521L159.499 79.062L153.721 91.031L124.647 84.383L117.668 79.881C117.654 80.334 117.627 80.784 117.581 81.228L122.09 84.503L116.603 85.488C116.45 85.913 116.278 86.33 116.094 86.739L124.484 85.706L153.13 92.256L143.026 113.188L119.828 94.68L115.596 87.767C115.388 88.165 115.164 88.554 114.929 88.934L117.581 93.856L112.176 92.356C111.854 92.669 111.522 92.971 111.178 93.261L119.204 95.975L142.401 114.483L136.572 126.556L124.201 129.373L111.152 102.281L111.231 103.057L110.31 93.95C109.952 94.217 109.581 94.467 109.204 94.707L109.461 100.328L105.214 96.606C104.791 96.748 104.361 96.877 103.924 96.987L111.354 104.259L109.996 102.929L122.876 129.674L100.025 134.878L100.012 105.149L102.886 97.214C102.451 97.298 102.01 97.365 101.564 97.417L99.342 102.635L97.108 97.391C96.662 97.334 96.219 97.266 95.784 97.178L98.688 105.194L98.7 134.84L75.782 129.6L88.682 102.875L94.766 96.941C94.333 96.826 93.908 96.694 93.489 96.549L89.184 100.309L89.457 94.572C89.081 94.327 88.715 94.068 88.361 93.796L87.391 103.205L87.484 102.31L74.456 129.296L61.687 126.377L56.023 114.62ZM98.651 180.178L69.869 173.598L77.237 158.333H77.079L69.757 143.13L98.701 136.539L98.71 158.332H98.642L98.651 180.178ZM96.061 180.946L75.083 185.724L69.901 174.965L96.061 180.946ZM69.925 141.734L75.19 130.825L96.463 135.69L69.925 141.734ZM62.422 127.907L73.865 130.523L68.768 141.08L62.422 127.907ZM61.891 158.333H61.912L68.768 144.13L75.608 158.333H75.765L68.82 172.72L61.891 158.333ZM68.819 175.771L73.757 186.025L62.648 188.555L68.819 175.771ZM60.256 190.46L55.019 201.309L45.603 193.798L60.256 190.46ZM43.856 194.194L54.394 202.602L43.937 224.263L31.164 221.343L20.635 199.481L43.856 194.194ZM31.901 222.871L43.347 225.488L38.248 236.048L31.901 222.871ZM43.344 249.682L31.879 252.293L38.247 239.102L43.344 249.682ZM0.757 204.009L19.31 199.783L29.513 220.965L0.762 214.391L0.757 204.009ZM0.762 215.752L30.248 222.493L37.513 237.574L30.226 252.67L0.781 259.375L0.762 215.752ZM19.422 275.047L0.786 270.787L0.782 260.732L29.489 254.195L19.422 275.047ZM43.78 280.617L20.749 275.349L31.143 253.818L43.934 250.906L54.234 272.293L43.78 280.617ZM45.814 281.082L54.959 273.799L60.033 284.334L45.814 281.082ZM56.023 272.953L79.5 254.256L87.615 251.527C87.277 251.238 86.947 250.939 86.628 250.627L81.077 252.158L83.823 247.084C83.591 246.699 83.378 246.307 83.175 245.906L79.157 252.445L55.297 271.445L45.259 250.605L74.247 244.003L72.329 243.763L82.773 245.068C82.591 244.664 82.42 244.25 82.269 243.828L76.584 242.797L81.274 239.404C81.231 238.963 81.208 238.515 81.197 238.064L73.974 242.707L44.667 249.381L38.982 237.576L44.671 225.793L73.967 232.49L81.197 237.154C81.209 236.703 81.232 236.256 81.275 235.814L76.592 232.414L82.278 231.393C82.43 230.971 82.602 230.559 82.785 230.153L72.339 231.44L74.276 231.2L45.263 224.567L55.456 203.451L78.71 222.003V222.004V222.003L83.187 229.316C83.392 228.918 83.605 228.524 83.839 228.142L81.101 223.061L86.65 224.604C86.968 224.29 87.298 223.991 87.637 223.702L77.691 220.339L79.737 221.03L56.08 202.157L61.909 190.084L74.345 187.251L87.524 214.615L88.383 223.101C88.738 222.83 89.106 222.574 89.481 222.329L89.218 216.592L93.517 220.36C93.937 220.216 94.362 220.083 94.795 219.97L88.701 214.005L75.67 186.951L98.649 181.718L98.662 211.786L99.006 210.838L95.781 219.739C96.217 219.651 96.659 219.583 97.105 219.526L99.339 214.283L101.561 219.501C102.007 219.554 102.448 219.62 102.883 219.704L99.987 211.708L99.974 181.844L122.982 187.105L109.961 214.079L103.955 219.938C104.392 220.049 104.82 220.181 105.244 220.323L109.497 216.609L109.229 222.229C109.605 222.47 109.977 222.72 110.334 222.986L111.395 212.68L111.202 214.557L124.307 187.406L136.794 190.263L142.461 202.028L118.254 221.306L121.017 220.377L111.2 223.679C111.542 223.968 111.875 224.271 112.196 224.587L117.603 223.095L114.943 228.011C115.179 228.391 115.4 228.781 115.609 229.179L120.037 221.973L143.188 203.535L153.349 224.632L124.346 231.237L116.106 230.206C116.288 230.616 116.459 231.034 116.61 231.46L122.097 232.454L117.582 235.721C117.628 236.164 117.652 236.614 117.666 237.067L124.779 232.497L153.938 225.856L159.497 237.397L153.719 249.366L124.645 242.718L117.666 238.216C117.652 238.671 117.625 239.118 117.579 239.564L122.088 242.839L116.601 243.823C116.448 244.249 116.276 244.665 116.092 245.075L124.482 244.042L153.128 250.591L143.024 271.525L119.826 253.017L115.594 246.103C115.386 246.501 115.162 246.89 114.927 247.269L117.579 252.191L112.174 250.689C111.852 251.003 111.52 251.306 111.176 251.595L119.202 254.31L142.399 272.818L136.57 284.892L124.199 287.708L111.15 260.614L111.229 261.391L110.308 252.284C109.95 252.552 109.579 252.802 109.202 253.042L109.459 258.663L105.212 254.94C104.789 255.081 104.359 255.211 103.922 255.321L111.352 262.594L109.994 261.264L122.874 288.008L100.023 293.213L100.01 263.483L102.884 255.549C102.449 255.633 102.008 255.699 101.562 255.752L99.34 260.971L97.106 255.727C96.66 255.67 96.217 255.602 95.782 255.514L98.686 263.53L98.699 293.176L75.781 287.934L88.681 261.209L94.765 255.273C94.332 255.158 93.907 255.027 93.488 254.882L89.183 258.642L89.456 252.906C89.08 252.66 88.714 252.402 88.36 252.131L87.39 261.539L87.483 260.643L74.455 287.631L61.686 284.711L56.023 272.953ZM100.025 294.838L128.615 301.375L121.233 316.668H121.419L128.728 331.842L99.977 338.389L99.967 316.668H100.035L100.025 294.838ZM102.423 294.025L123.467 289.232L128.664 300.025L102.423 294.025ZM128.911 333.158L123.576 344.213L102.02 339.283L128.911 333.158ZM129.872 334.217L136.061 347.069L124.901 344.516L129.872 334.217ZM122.89 316.668H122.705L129.7 302.176L136.679 316.668H136.871L129.872 331.166L122.89 316.668ZM124.792 288.932L135.835 286.416L129.701 299.123L124.792 288.932ZM98.651 338.512L69.869 331.932L77.237 316.668H77.079L69.757 301.465L98.701 294.875L98.71 316.668H98.642L98.651 338.512ZM96.061 339.281L75.083 344.056L69.901 333.298L96.061 339.281ZM69.925 300.066L75.19 289.16L96.463 294.023L69.925 300.066ZM62.422 286.238L73.865 288.855L68.768 299.414L62.422 286.238ZM61.891 316.668H61.912L68.768 302.465L75.608 316.668H75.765L68.82 331.055L61.891 316.668ZM68.819 334.105L73.757 344.359L62.648 346.89L68.819 334.105ZM60.256 348.795L55.019 359.643L45.603 352.129L60.256 348.795ZM43.856 352.527L54.394 360.935L43.937 382.597L31.164 379.675L20.635 357.816L43.856 352.527ZM31.901 381.205L43.347 383.822L38.248 394.383L31.901 381.205ZM43.344 408.016L31.879 410.627L38.247 397.436L43.344 408.016ZM0.757 362.344L19.31 358.117L29.513 379.299L0.762 372.725L0.757 362.344ZM0.762 374.086L30.248 380.828L37.513 395.908L30.226 411.004L0.781 417.707L0.762 374.086ZM19.422 433.381L0.786 429.119L0.782 419.066L29.489 412.531L19.422 433.381ZM43.78 438.951L20.749 433.685L31.143 412.154L43.934 409.24L54.234 430.625L43.78 438.951ZM45.814 439.416L54.959 432.133L60.033 442.666L45.814 439.416ZM68.768 457.746L62.422 444.572L73.865 447.189L68.768 457.746ZM69.925 458.4L75.19 447.492L96.463 452.357L69.925 458.4ZM102.423 452.359L123.467 447.566L128.664 458.359L102.423 452.359ZM129.701 457.457L124.792 447.266L135.835 444.75L129.701 457.457ZM136.573 443.223L124.202 446.039L111.153 418.947L111.232 419.724L110.311 410.617C109.953 410.883 109.582 411.133 109.205 411.373L109.462 416.994L105.215 413.273C104.792 413.414 104.362 413.544 103.925 413.656L111.355 420.926V420.928L109.997 419.598L122.877 446.342L100.026 451.547L100.013 421.817L102.887 413.883C102.452 413.967 102.011 414.035 101.565 414.086L99.343 419.303L97.109 414.063C96.663 414.004 96.22 413.938 95.785 413.848L98.689 421.864L98.7 451.51L75.782 446.268L88.682 419.543L94.766 413.609C94.333 413.494 93.908 413.363 93.489 413.216L89.184 416.976L89.457 411.24C89.081 410.994 88.715 410.736 88.361 410.465L87.391 419.871L87.484 418.976L74.456 445.964L61.687 443.044L56.023 431.286L79.5 412.592L87.615 409.862C87.277 409.573 86.947 409.274 86.628 408.96L81.077 410.493L83.823 405.417C83.591 405.034 83.378 404.642 83.175 404.241L79.157 410.78L55.297 429.778L45.259 408.94L74.247 402.336L72.329 402.096L82.773 403.403C82.591 402.997 82.42 402.583 82.269 402.161L76.584 401.132L81.274 397.739C81.231 397.298 81.208 396.848 81.197 396.399L73.974 401.042L44.667 407.714L38.982 395.911L44.671 384.126L73.967 390.825L81.197 395.489C81.209 395.038 81.232 394.591 81.275 394.149L76.592 390.747L82.278 389.727C82.43 389.303 82.602 388.895 82.785 388.489L72.339 389.772L74.276 389.534L45.264 382.9L55.457 361.785L78.711 380.336L83.188 387.65C83.393 387.25 83.606 386.857 83.84 386.474L81.102 381.394L86.651 382.937C86.969 382.624 87.299 382.324 87.638 382.035L77.692 378.67L79.738 379.363L56.082 360.49L61.911 348.418L74.347 345.586L87.526 372.947L88.385 381.433C88.74 381.162 89.108 380.906 89.483 380.66L89.22 374.924L93.519 378.692C93.939 378.547 94.364 378.415 94.797 378.301L88.703 372.336L75.672 345.283L98.651 340.049L98.664 370.117L99.008 369.168L95.783 378.07C96.219 377.982 96.661 377.914 97.107 377.857L99.341 372.615L101.563 377.832C102.009 377.883 102.45 377.951 102.885 378.035L99.989 370.039L99.976 340.176L122.984 345.438L109.963 372.413L103.957 378.27C104.394 378.381 104.822 378.512 105.246 378.655L109.499 374.944L109.231 380.563C109.607 380.801 109.979 381.051 110.336 381.319L111.397 371.012L111.204 372.889L124.309 345.741L136.796 348.596L142.463 360.362L118.256 379.639L121.019 378.709L111.202 382.012C111.544 382.301 111.877 382.604 112.198 382.918L117.605 381.426L114.945 386.344C115.181 386.725 115.402 387.115 115.611 387.512L120.039 380.305L143.19 361.869L153.351 382.965L124.348 389.569L116.108 388.542C116.29 388.952 116.461 389.366 116.612 389.792L122.099 390.788L117.584 394.054C117.63 394.499 117.654 394.949 117.668 395.402L124.781 390.83L153.94 384.191L159.499 395.732L153.721 407.701L124.647 401.055L117.668 396.551C117.654 397.004 117.627 397.455 117.581 397.899L122.09 401.174L116.603 402.156C116.45 402.582 116.278 402.998 116.094 403.408L124.484 402.375L153.13 408.926L143.026 429.858L119.828 411.352L115.596 404.438C115.388 404.834 115.164 405.223 114.929 405.604L117.581 410.526L112.176 409.024C111.854 409.338 111.522 409.641 111.178 409.93L119.204 412.645L142.401 431.153L136.573 443.223ZM166.692 410.666L155.046 408.002L160.234 397.256L166.692 410.666ZM155.266 383.889L166.444 381.342L160.235 394.205L155.266 383.889ZM160.971 395.732L168.098 380.964L197.702 374.224L197.72 417.757L168.345 411.042L160.971 395.732ZM168.835 379.438L179.059 358.258L197.696 362.52L197.7 372.866L168.835 379.438ZM167.182 379.814L154.677 382.662L144.254 361.023L154.713 352.691L177.735 357.955L167.182 379.814ZM143.527 359.514L138.449 348.973L152.678 352.225L143.527 359.514ZM138.227 442.846L143.464 431.998L152.879 439.512L138.227 442.846ZM154.626 439.113L144.088 430.703L154.455 409.226L167.428 412.193L177.847 433.824L154.626 439.113ZM179.173 433.521L169.082 412.572L197.721 419.119L197.725 429.297L179.173 433.521ZM199.082 342.525L198.412 344.377L201.956 334.592C201.521 334.676 201.081 334.742 200.633 334.795L198.412 340.012L198.334 339.832L196.178 334.769C195.732 334.712 195.29 334.644 194.854 334.556L198.045 343.367L197.689 342.383L197.697 361.16L179.653 357.033L187.753 340.252L193.837 334.316C193.404 334.203 192.98 334.07 192.56 333.925L188.255 337.685L188.528 331.949C188.152 331.703 187.786 331.445 187.431 331.172L186.555 339.686L178.327 356.731L156.041 351.635L179.422 333.014L186.685 330.571C186.346 330.282 186.017 329.981 185.699 329.669L180.147 331.2L182.894 326.124C182.662 325.743 182.448 325.349 182.244 324.95L176.965 333.542L177.754 332.255L154.004 351.169L137.714 347.446L130.643 332.764L173.318 323.047L181.843 324.113C181.661 323.705 181.491 323.293 181.338 322.871L175.654 321.84L180.343 318.447C180.3 318.004 180.277 317.556 180.267 317.107L173.043 321.75L131.301 331.254L138.343 316.668H138.151L131.053 301.932L173.037 311.534L180.266 316.196C180.278 315.747 180.301 315.3 180.344 314.856L175.661 311.458L181.346 310.437C181.499 310.015 181.671 309.603 181.854 309.197L173.345 310.246L130.53 300.455L137.488 286.041L154.203 282.234L177.779 301.045L177.751 301L182.256 308.359C182.461 307.961 182.676 307.566 182.908 307.185L180.171 302.103L185.719 303.646C186.036 303.333 186.366 303.035 186.707 302.746L178.807 300.074L155.951 281.838L178.436 276.717L186.595 293.658L187.453 302.144C187.809 301.873 188.176 301.615 188.552 301.371L188.289 295.635L192.587 299.401C193.007 299.256 193.432 299.126 193.864 299.012L187.771 293.047L179.761 276.416L197.724 272.324L197.732 290.828L194.851 298.779C195.287 298.691 195.729 298.627 196.175 298.568L198.331 293.505L198.409 293.325L200.63 298.544C201.077 298.595 201.518 298.663 201.953 298.743L198.991 290.569L199.125 290.938L199.117 272.147L217.162 276.272L209.03 293.122L203.023 298.979C203.46 299.09 203.89 299.221 204.313 299.364L208.567 295.651L208.299 301.27C208.676 301.51 209.045 301.76 209.404 302.028L210.271 293.598L218.488 276.577L240.784 281.675L217.346 300.341L210.269 302.72C210.613 303.011 210.945 303.314 211.267 303.628L216.673 302.136L214.013 307.054C214.248 307.433 214.47 307.824 214.679 308.222L219.797 299.892L219.095 301.035L242.82 282.14L259.101 285.863L266.172 300.543L223.416 310.279L215.176 309.252C215.358 309.662 215.529 310.078 215.682 310.504L221.167 311.498L216.652 314.764C216.698 315.207 216.724 315.659 216.737 316.112L223.849 311.542L265.864 301.974L258.77 316.671H258.75L265.843 331.396L223.716 321.763L216.737 317.261C216.723 317.714 216.696 318.163 216.649 318.607L221.159 321.882L215.672 322.868C215.519 323.294 215.347 323.71 215.164 324.12L223.554 323.087L266.284 332.857L259.326 347.269L242.611 351.076L219.011 332.248L219.353 332.807L214.665 325.147C214.456 325.545 214.234 325.934 213.998 326.313L216.649 331.235L211.245 329.735C210.924 330.049 210.592 330.35 210.247 330.641L220.059 333.959L218.066 333.285L240.864 351.473L218.379 356.594L210.224 339.662L209.38 331.33C209.021 331.596 208.651 331.846 208.274 332.086L208.532 337.707L204.285 333.984C203.86 334.127 203.431 334.257 202.993 334.367L210.423 341.64L209.065 340.31L217.054 356.896L199.089 360.988L199.082 342.525ZM230.235 381.205L241.68 383.822L236.582 394.383L230.235 381.205ZM241.677 408.016L230.213 410.627L236.581 397.436L241.677 408.016ZM229.5 379.676L218.97 357.817L242.191 352.528L252.729 360.936L242.272 382.598L229.5 379.676ZM243.938 352.129L258.589 348.795L253.353 359.643L243.938 352.129ZM199.09 362.344L217.643 358.117L227.845 379.299L199.094 372.725L199.09 362.344ZM199.095 374.086L228.581 380.828L235.846 395.908L228.56 411.004L199.114 417.707L199.095 374.086ZM217.757 433.381L199.118 429.119L199.114 419.066L227.822 412.531L217.757 433.381ZM242.113 438.951L219.082 433.685L229.476 412.154L242.267 409.24L252.567 430.625L242.113 438.951ZM244.149 439.416L253.294 432.133L258.367 442.666L244.149 439.416ZM267.1 457.746L260.755 444.572L272.197 447.189L267.1 457.746ZM268.258 458.4L273.524 447.492L294.798 452.357L268.258 458.4ZM300.754 452.359L321.799 447.566L326.996 458.359L300.754 452.359ZM328.033 457.457L323.125 447.266L334.166 444.75L328.033 457.457ZM334.904 443.223L322.535 446.039L309.484 418.947L309.562 419.724L308.642 410.617C308.285 410.883 307.913 411.133 307.537 411.373L307.795 416.994L303.547 413.273C303.123 413.414 302.693 413.544 302.256 413.656L309.686 420.926V420.928L308.329 419.598L321.212 446.342L298.358 451.547L298.344 421.817L301.217 413.883C300.781 413.967 300.344 414.035 299.897 414.086L297.675 419.303L295.441 414.063C294.996 414.004 294.553 413.938 294.117 413.848L297.019 421.864L297.033 451.51L274.116 446.268L287.018 419.543L293.1 413.609C292.668 413.494 292.243 413.363 291.823 413.216L287.518 416.976L287.791 411.24C287.415 410.994 287.049 410.736 286.693 410.465L285.725 419.871L285.817 418.976L272.789 445.964L260.02 443.044L254.357 431.286L277.833 412.591L285.948 409.861C285.609 409.572 285.279 409.273 284.962 408.959L279.41 410.492L282.157 405.416C281.926 405.033 281.711 404.641 281.507 404.24L277.489 410.779L253.63 429.777L243.593 408.939L272.58 402.335L270.662 402.095L281.106 403.402C280.924 402.996 280.754 402.582 280.601 402.16L274.917 401.131L279.606 397.738C279.563 397.297 279.54 396.847 279.529 396.398L272.306 401.041L243.002 407.713L237.316 395.91L243.004 384.125L272.3 390.824L279.529 395.488C279.541 395.037 279.564 394.59 279.607 394.148L274.924 390.746L280.609 389.726C280.762 389.302 280.934 388.894 281.117 388.488L270.671 389.771L272.608 389.533L243.595 382.9L253.788 361.785L277.041 380.336L281.518 387.65C281.723 387.25 281.938 386.857 282.17 386.474L279.433 381.394L284.981 382.937C285.299 382.624 285.629 382.324 285.969 382.035L276.023 378.67L278.069 379.363L254.413 360.49L260.241 348.418L272.677 345.586L285.857 372.947L286.715 381.433C287.07 381.162 287.438 380.906 287.813 380.66L287.551 374.924L291.849 378.692C292.269 378.547 292.694 378.415 293.126 378.301L287.033 372.336L274.002 345.283L296.981 340.049L296.993 370.117L297.337 369.168L294.113 378.07C294.549 377.982 294.991 377.914 295.437 377.857L297.671 372.615L299.893 377.832C300.34 377.883 300.778 377.951 301.213 378.035L298.317 370.039L298.305 340.176L321.311 345.438L308.291 372.413L302.285 378.27C302.721 378.381 303.15 378.512 303.574 378.655L307.828 374.944L307.558 380.563C307.937 380.801 308.306 381.051 308.665 381.319L309.724 371.012L309.531 372.889L322.636 345.741L335.124 348.596L340.792 360.362L316.585 379.639L319.347 378.709L309.529 382.012C309.873 382.301 310.205 382.604 310.527 382.918L315.933 381.426L313.271 386.344C313.507 386.725 313.728 387.115 313.937 387.512L318.367 380.305L341.519 361.869L351.679 382.965L322.675 389.569L314.435 388.542C314.619 388.952 314.789 389.366 314.941 389.792L320.427 390.788L315.911 394.054C315.958 394.499 315.983 394.949 315.997 395.402L323.11 390.83L352.268 384.191L357.827 395.732L352.048 407.701L322.974 401.055L316 396.549C315.986 397.002 315.959 397.453 315.912 397.897L320.422 401.172L314.934 402.154C314.782 402.58 314.61 402.996 314.426 403.406L322.815 402.373L351.461 408.924L341.359 429.856L318.16 411.35L313.928 404.436C313.719 404.832 313.496 405.221 313.26 405.602L315.912 410.524L310.508 409.022C310.186 409.336 309.854 409.639 309.51 409.928L317.535 412.643L340.734 431.151L334.904 443.223ZM365.025 410.666L353.379 408.002L358.568 397.256L365.025 410.666ZM353.6 383.889L364.778 381.342L358.571 394.205L353.6 383.889ZM359.303 395.732L366.434 380.964L396.034 374.224L396.054 417.757L366.681 411.042L359.303 395.732ZM367.168 379.438L377.393 358.258L396.03 362.52L396.034 372.866L367.168 379.438ZM365.516 379.814L353.008 382.662L342.584 361.023L353.045 352.691L376.066 357.955L365.516 379.814ZM341.859 359.514L336.783 348.973L351.008 352.225L341.859 359.514ZM336.559 442.846L341.797 431.998L351.211 439.512L336.559 442.846ZM352.959 439.113L342.42 430.703L352.789 409.226L365.762 412.193L376.18 433.824L352.959 439.113ZM377.506 433.521L367.414 412.572L396.053 419.119L396.057 429.297L377.506 433.521ZM397.414 342.525L396.742 344.377L400.287 334.592C399.853 334.676 399.414 334.742 398.967 334.795L396.742 340.012L396.666 339.832L394.512 334.769C394.065 334.712 393.621 334.644 393.186 334.556L396.377 343.367L396.02 342.383L396.028 361.16L377.985 357.033L386.087 340.252L392.169 334.316C391.737 334.203 391.314 334.07 390.894 333.925L386.589 337.685L386.86 331.949C386.485 331.703 386.12 331.445 385.764 331.172L384.887 339.686L376.658 356.731L354.373 351.635L377.756 333.014L385.018 330.571C384.678 330.282 384.348 329.981 384.03 329.669L378.481 331.2L381.227 326.124C380.995 325.743 380.78 325.349 380.577 324.95L375.298 333.542L376.089 332.255L352.337 351.169L336.046 347.446L328.978 332.764L371.652 323.047L380.177 324.113C379.995 323.705 379.823 323.293 379.673 322.871L373.987 321.84L378.678 318.447C378.635 318.004 378.612 317.556 378.602 317.107L371.375 321.75L329.633 331.254L336.676 316.668H336.485L329.387 301.932L371.369 311.534L378.601 316.196C378.613 315.747 378.636 315.3 378.679 314.856L373.995 311.458L379.681 310.437C379.833 310.015 380.005 309.603 380.187 309.197L371.679 310.246L328.865 300.455L335.822 286.041L352.537 282.234L376.113 301.045L376.084 301L380.592 308.359C380.795 307.961 381.01 307.566 381.242 307.185L378.506 302.103L384.053 303.646C384.371 303.333 384.701 303.035 385.043 302.746L377.143 300.074L354.286 281.838L376.77 276.717L384.93 293.658L385.787 302.144C386.144 301.873 386.512 301.615 386.887 301.371L386.623 295.635L390.922 299.401C391.342 299.256 391.768 299.126 392.197 299.012L386.105 293.047L378.095 276.416L396.058 272.324L396.066 290.828L393.185 298.779C393.621 298.691 394.064 298.627 394.511 298.568L396.665 293.505L396.741 293.325L398.966 298.544C399.413 298.595 399.853 298.663 400.286 298.743L397.325 290.569L397.46 290.938L397.452 272.147L415.497 276.272L407.364 293.122L401.356 298.979C401.794 299.09 402.223 299.221 402.647 299.364L406.899 295.651L406.631 301.27C407.01 301.51 407.379 301.76 407.736 302.028L408.603 293.598L416.82 276.577L439.117 281.675L415.679 300.341L408.601 302.72C408.945 303.011 409.279 303.314 409.599 303.628L415.005 302.136L412.345 307.054C412.579 307.433 412.802 307.824 413.009 308.222L418.128 299.892L417.425 301.035L441.152 282.14L457.433 285.863L464.503 300.543L421.747 310.279L413.507 309.252C413.689 309.662 413.861 310.078 414.013 310.504L419.499 311.498L414.983 314.764C415.03 315.207 415.055 315.659 415.069 316.112L422.18 311.542L464.196 301.974L457.102 316.671H457.082L464.174 331.396L422.045 321.763L415.068 317.261C415.052 317.714 415.025 318.163 414.978 318.607L419.488 321.882L414.002 322.868C413.848 323.294 413.676 323.71 413.492 324.12L421.883 323.087L464.613 332.857L457.656 347.269L440.941 351.076L417.339 332.248L417.681 332.807L412.993 325.147C412.784 325.545 412.561 325.934 412.327 326.313L414.977 331.235L409.573 329.735C409.251 330.049 408.919 330.35 408.575 330.641L418.386 333.959H418.388L416.394 333.285L439.193 351.473L416.707 356.594L408.551 339.662L407.709 331.33C407.352 331.596 406.98 331.846 406.604 332.086L406.86 337.707L402.616 333.984C402.19 334.127 401.761 334.257 401.325 334.367L408.753 341.64L407.396 340.31L415.384 356.896L397.419 360.988L397.414 342.525ZM495.316 338.512L466.533 331.932L473.902 316.668H473.744L466.42 301.465L495.367 294.875L495.375 316.668H495.307L495.316 338.512ZM470.424 344.359L459.313 346.89L465.485 334.105L470.424 344.359ZM458.555 316.668H458.576L465.433 302.465L472.271 316.668H472.429L465.486 331.055L458.555 316.668ZM466.564 333.299L492.724 339.281L471.745 344.056L466.564 333.299ZM466.59 300.066L471.856 289.16L493.129 294.023L466.59 300.066ZM465.434 299.414L459.088 286.238L470.531 288.855L465.434 299.414ZM428.568 381.205L440.011 383.822L434.913 394.383L428.568 381.205ZM440.01 408.016L428.547 410.627L434.912 397.436L440.01 408.016ZM427.832 379.676L417.301 357.817L440.524 352.528L451.061 360.936L440.606 382.598L427.832 379.676ZM442.27 352.129L456.922 348.795L451.686 359.643L442.27 352.129ZM397.424 362.344L415.977 358.117L426.178 379.299L397.428 372.725L397.424 362.344ZM397.428 374.086L426.914 380.828L434.178 395.908L426.891 411.004L397.448 417.707L397.428 374.086ZM416.09 433.381L397.453 429.119L397.447 419.066L426.154 412.531L416.09 433.381ZM440.445 438.951L417.414 433.685L427.809 412.154L440.6 409.24L450.899 430.625L440.445 438.951ZM442.48 439.416L451.625 432.133L456.699 442.666L442.48 439.416ZM465.434 457.746L459.088 444.572L470.531 447.189L465.434 457.746ZM466.59 458.4L471.856 447.492L493.129 452.357L466.59 458.4ZM499.088 452.359L520.133 447.566L525.33 458.359L499.088 452.359ZM526.367 457.457L521.457 447.266L532.502 444.75L526.367 457.457ZM534.893 442.846L540.129 431.998L549.543 439.512L534.893 442.846ZM551.291 439.113L540.754 430.703L551.121 409.226L564.096 412.193L574.512 433.824L551.291 439.113ZM563.357 410.666L551.712 408.002L556.9 397.256L563.357 410.666ZM551.932 383.889L563.11 381.342L556.903 394.205L551.932 383.889ZM594.393 429.297L575.838 433.522L565.748 412.573L594.387 419.12L594.393 429.297ZM594.387 417.758L565.012 411.043L557.637 395.732L564.766 380.964L594.37 374.224L594.387 417.758ZM575.727 358.258L594.364 362.52L594.368 372.866L565.503 379.438L575.727 358.258ZM551.379 352.691L574.399 357.955L563.848 379.814L551.342 382.662L540.92 361.023L551.379 352.691ZM549.342 352.225L540.194 359.514L535.116 348.973L549.342 352.225ZM539.129 360.361L514.922 379.638L517.686 378.708L507.87 382.011C508.212 382.3 508.544 382.603 508.866 382.917L514.272 381.425L511.612 386.343C511.848 386.724 512.069 387.114 512.276 387.511L516.706 380.304L539.856 361.868L550.016 382.964L521.012 389.568L512.772 388.541C512.956 388.951 513.126 389.365 513.28 389.791L518.764 390.787L514.25 394.053C514.295 394.498 514.322 394.948 514.336 395.401L521.447 390.829L550.605 384.19L556.164 395.731L550.387 407.7L521.313 401.054L514.334 396.55C514.32 397.003 514.293 397.454 514.246 397.898L518.756 401.173L513.268 402.155C513.116 402.581 512.944 402.997 512.76 403.407L521.151 402.374L549.796 408.925L539.692 429.857L516.493 411.351L512.261 404.437C512.052 404.833 511.833 405.222 511.595 405.603L514.247 410.525L508.843 409.023C508.521 409.337 508.187 409.64 507.845 409.929L515.872 412.644L539.067 431.152L533.239 443.224L520.868 446.04L507.821 418.948L507.897 419.725L506.977 410.618C506.62 410.884 506.248 411.134 505.872 411.374L506.128 416.995L501.882 413.274C501.458 413.415 501.028 413.545 500.591 413.657L508.019 420.927V420.929L506.664 419.599L519.545 446.343L496.691 451.548L496.677 421.818L499.552 413.884C499.118 413.968 498.677 414.036 498.23 414.087L496.007 419.304L493.775 414.064C493.328 414.005 492.884 413.939 492.449 413.849L495.353 421.865L495.367 451.511L472.449 446.269L485.349 419.544L491.431 413.61C491.001 413.495 490.576 413.364 490.156 413.217L485.851 416.977L486.124 411.241C485.749 410.995 485.382 410.737 485.026 410.466L484.057 419.872L484.149 418.977L471.12 445.965L458.352 443.045L452.69 431.287L476.165 412.592L484.28 409.862C483.94 409.573 483.61 409.274 483.294 408.96L477.743 410.493L480.489 405.417C480.257 405.034 480.044 404.642 479.839 404.241L475.821 410.78L451.964 429.778L441.925 408.94L470.913 402.336L468.995 402.096L479.438 403.403C479.256 402.997 479.086 402.583 478.934 402.161L473.248 401.132L477.939 397.739C477.896 397.298 477.873 396.848 477.863 396.399L470.638 401.042L441.335 407.714L435.649 395.911L441.337 384.126L470.632 390.825L477.862 395.489C477.874 395.038 477.897 394.591 477.94 394.149L473.256 390.747L478.94 389.727C479.094 389.303 479.266 388.895 479.448 388.489L469.005 389.772L470.941 389.534L441.927 382.901L452.122 361.786L475.374 380.337L479.853 387.651C480.056 387.251 480.271 386.858 480.503 386.475L477.767 381.395L483.314 382.938C483.632 382.625 483.962 382.325 484.302 382.036L474.357 378.671L476.402 379.364L452.748 360.491L458.574 348.419L471.012 345.587L484.192 372.948L485.051 381.434C485.406 381.163 485.774 380.907 486.149 380.661L485.887 374.925L490.184 378.693C490.604 378.548 491.03 378.416 491.461 378.302L485.367 372.337L472.338 345.284L495.317 340.05L495.331 370.118L495.673 369.169L492.448 378.071C492.884 377.983 493.327 377.915 493.774 377.858L496.006 372.616L498.229 377.833C498.676 377.884 499.118 377.952 499.551 378.036L496.655 370.04L496.641 340.177L519.651 345.439L506.63 372.414L500.622 378.271C501.06 378.382 501.487 378.513 501.913 378.656L506.165 374.945L505.897 380.564C506.274 380.802 506.645 381.052 507.002 381.32L508.063 371.013L507.872 372.89L520.976 345.742L533.462 348.597L539.129 360.361ZM496.689 294.838L525.281 301.375L517.898 316.668H518.086L525.393 331.842L496.641 338.389L496.631 316.668H496.699L496.689 294.838ZM499.088 294.025L520.133 289.232L525.33 300.025L499.088 294.025ZM525.576 333.158L520.242 344.213L498.685 339.283L525.576 333.158ZM532.729 347.068L521.567 344.515L526.538 334.216L532.729 347.068ZM533.346 316.668H533.537L526.539 331.166L519.557 316.668H519.371L526.367 302.176L533.346 316.668ZM526.367 299.123L521.457 288.932L532.502 286.416L526.367 299.123ZM534.893 284.514L540.129 273.664L549.543 281.176L534.893 284.514ZM551.291 280.777L540.754 272.371L551.121 250.892L564.096 253.859L574.512 275.49L551.291 280.777ZM563.357 252.332L551.712 249.668L556.9 238.924L563.357 252.332ZM551.932 225.555L563.11 223.008L556.903 235.871L551.932 225.555ZM594.393 270.965L575.838 275.188L565.748 254.237L594.387 260.786L594.393 270.965ZM594.387 259.426L565.012 252.709L557.637 237.398L564.766 222.633L594.37 215.891L594.387 259.426ZM575.727 199.925L594.364 204.186L594.368 214.531L565.503 221.104L575.727 199.925ZM551.379 194.357L574.399 199.621L563.848 221.481L551.342 224.328L540.92 202.688L551.379 194.357ZM549.342 193.893L540.194 201.18L535.116 190.639L549.342 193.893ZM539.129 202.026L514.922 221.304L517.686 220.375L507.87 223.677C508.212 223.966 508.544 224.269 508.866 224.585L514.272 223.093L511.612 228.009C511.848 228.389 512.069 228.779 512.276 229.177L516.706 221.971L539.856 203.533L550.016 224.63L521.012 231.235L512.772 230.204C512.956 230.614 513.126 231.032 513.28 231.458L518.764 232.452L514.25 235.719C514.295 236.162 514.322 236.612 514.336 237.065L521.447 232.495L550.605 225.854L556.164 237.395L550.387 249.364L521.313 242.716L514.334 238.214C514.32 238.669 514.293 239.116 514.246 239.562L518.756 242.837L513.268 243.821C513.116 244.247 512.944 244.663 512.76 245.073L521.151 244.04L549.796 250.589L539.692 271.523L516.493 253.015L512.261 246.101C512.052 246.499 511.833 246.888 511.595 247.267L514.247 252.189L508.843 250.687C508.521 251.001 508.187 251.304 507.845 251.593L515.872 254.308L539.067 272.816L533.239 284.89L520.868 287.706L507.821 260.612L507.897 261.389L506.977 252.282C506.62 252.55 506.248 252.8 505.872 253.04L506.128 258.661L501.882 254.938C501.458 255.079 501.028 255.209 500.591 255.319L508.019 262.592L506.664 261.262L519.545 288.006L496.691 293.211L496.677 263.481L499.552 255.547C499.118 255.631 498.677 255.697 498.23 255.75L496.007 260.969L493.775 255.725C493.328 255.668 492.884 255.6 492.449 255.512L495.353 263.528L495.367 293.174L472.449 287.932L485.349 261.207L491.431 255.271C491.001 255.156 490.576 255.025 490.156 254.88L485.851 258.64L486.124 252.904C485.749 252.658 485.382 252.4 485.026 252.129L484.057 261.537L484.149 260.641L471.12 287.629L458.352 284.709L452.69 272.951L476.165 254.254L484.28 251.525C483.94 251.236 483.61 250.937 483.294 250.625L477.743 252.156L480.489 247.082C480.257 246.697 480.044 246.305 479.839 245.904L475.821 252.443L451.964 271.443L441.925 250.603L470.913 244.001L468.995 243.761L479.438 245.066C479.256 244.662 479.086 244.248 478.934 243.826L473.248 242.795L477.939 239.402C477.896 238.961 477.873 238.513 477.863 238.062L470.638 242.705L441.335 249.379L435.649 237.574L441.337 225.791L470.632 232.488L477.862 237.152C477.874 236.701 477.897 236.254 477.94 235.812L473.256 232.412L478.94 231.391C479.094 230.969 479.266 230.557 479.448 230.151L469.005 231.438L470.941 231.198L441.927 224.565L452.122 203.449L475.374 222.001V222.002V222.001L479.853 229.314C480.056 228.916 480.271 228.522 480.503 228.14L477.767 223.059L483.314 224.602C483.632 224.288 483.962 223.989 484.302 223.7L474.357 220.337L476.402 221.028L452.748 202.155L458.574 190.082L471.012 187.249L484.192 214.613L485.051 223.099C485.406 222.828 485.774 222.572 486.149 222.327L485.887 216.59L490.184 220.358C490.604 220.214 491.03 220.081 491.461 219.968L485.367 214.003L472.338 186.949L495.317 181.716L495.331 211.784L495.673 210.836L492.448 219.737C492.884 219.649 493.327 219.581 493.774 219.524L496.006 214.281L498.229 219.499C498.676 219.552 499.118 219.618 499.551 219.702L496.655 211.706L496.641 181.842L519.651 187.103L506.63 214.077L500.622 219.936C501.06 220.047 501.487 220.179 501.913 220.321L506.165 216.607L505.897 222.227C506.274 222.468 506.645 222.718 507.002 222.984L508.063 212.678L507.872 214.555L520.976 187.404L533.462 190.261L539.129 202.026ZM496.689 136.504L525.281 143.041L517.898 158.333H518.086L525.393 173.506L496.641 180.055L496.631 158.333H496.699L496.689 136.504ZM499.088 135.693L520.133 130.901L525.33 141.693L499.088 135.693ZM525.576 174.824L520.242 185.877L498.685 180.948L525.576 174.824ZM532.729 188.732L521.567 186.181L526.538 175.883L532.729 188.732ZM533.346 158.333H533.537L526.539 172.83L519.557 158.333H519.371L526.367 143.841L533.346 158.333ZM526.367 140.791L521.457 130.599L532.502 128.084L526.367 140.791ZM533.238 126.556L520.867 129.373L507.82 102.281L507.896 103.057L506.976 93.95C506.619 94.217 506.247 94.467 505.871 94.707L506.127 100.328L501.881 96.606C501.457 96.748 501.027 96.877 500.59 96.987L508.018 104.259L506.663 102.929L519.544 129.674L496.69 134.878L496.676 105.149L499.551 97.214C499.117 97.298 498.676 97.365 498.229 97.417L496.006 102.635L493.774 97.391C493.327 97.334 492.883 97.266 492.448 97.178L495.352 105.194L495.366 134.839L472.448 129.599L485.348 102.874L491.43 96.94C491 96.825 490.575 96.693 490.155 96.548L485.85 100.308L486.123 94.571C485.748 94.326 485.381 94.067 485.025 93.795L484.056 103.204L484.148 102.309L471.119 129.295L458.351 126.376L452.689 114.618L476.164 95.922L484.279 93.194C483.939 92.904 483.609 92.604 483.293 92.292L477.742 93.824L480.488 88.748C480.256 88.366 480.043 87.972 479.838 87.573L475.82 94.11L451.963 113.111L441.924 92.272L470.912 85.67L468.994 85.43L479.437 86.736C479.255 86.329 479.085 85.917 478.933 85.495L473.247 84.464L477.938 81.071C477.895 80.629 477.872 80.182 477.862 79.733L470.637 84.374L441.334 91.048L435.648 79.244L441.336 67.46L470.631 74.158L477.861 78.821C477.873 78.371 477.896 77.924 477.939 77.483L473.255 74.081L478.939 73.06C479.093 72.639 479.265 72.227 479.447 71.821L469.004 73.108L470.94 72.869L441.926 66.236L452.121 45.118L475.373 63.67L479.852 70.984C480.055 70.585 480.27 70.191 480.502 69.809L477.766 64.727L483.313 66.269C483.631 65.957 483.961 65.658 484.301 65.37L474.356 62.005L476.401 62.697L452.747 43.823L458.573 31.749L471.011 28.916L484.191 56.28L485.05 64.766C485.405 64.496 485.773 64.239 486.148 63.994L485.886 58.255L490.183 62.022C490.603 61.878 491.029 61.747 491.46 61.633L485.366 55.668L472.337 28.613L495.316 23.381L495.33 53.449L495.672 52.5L492.447 61.402C492.883 61.315 493.326 61.246 493.773 61.19L496.005 55.946L498.228 61.164C498.675 61.216 499.117 61.283 499.55 61.366L496.654 53.371L496.64 23.506L519.65 28.767L506.629 55.743L500.621 61.601C501.059 61.712 501.486 61.844 501.912 61.987L506.164 58.272L505.896 63.893C506.273 64.134 506.644 64.384 507.001 64.651L508.062 54.343L507.871 56.22L520.975 29.07L533.461 31.925L539.129 43.691L514.922 62.969L517.686 62.04L507.87 65.341C508.212 65.631 508.544 65.934 508.866 66.248L514.272 64.756L511.612 69.673C511.848 70.053 512.069 70.444 512.276 70.841L516.706 63.635L539.856 45.198L550.016 66.295L521.012 72.899L512.772 71.87C512.956 72.28 513.126 72.697 513.28 73.122L518.764 74.117L514.25 77.383C514.295 77.827 514.322 78.278 514.336 78.731L521.447 74.16L550.605 67.519L556.164 79.06L550.387 91.029L521.313 84.381L514.334 79.879C514.32 80.332 514.293 80.782 514.246 81.226L518.756 84.501L513.268 85.486C513.116 85.911 512.944 86.328 512.76 86.737L521.151 85.704L549.796 92.254L539.692 113.186L516.492 94.68L512.26 87.767C512.051 88.165 511.832 88.554 511.594 88.934L514.246 93.856L508.842 92.356C508.52 92.669 508.186 92.971 507.844 93.261L515.871 95.975L539.066 114.483L533.238 126.556ZM534.893 126.179L540.129 115.33L549.543 122.841L534.893 126.179ZM551.291 122.445L540.754 114.037L551.121 92.56L564.096 95.527L574.512 117.157L551.291 122.445ZM575.838 116.855L565.748 95.904L594.387 102.452L594.393 112.63L575.838 116.855Z" fill="white"/>
</svg>