
<svg xmlns="http://www.w3.org/2000/svg" xml:space="preserve" width="24.9661mm" height="27.2587mm" version="1.1" style="shape-rendering:geometricPrecision; text-rendering:geometricPrecision; image-rendering:optimizeQuality; fill-rule:evenodd; clip-rule:evenodd"
viewBox="0 0 218 238.02" fill="none">
 <g id="Слой_x0020_1">
  <g id="_2946274116672">
   <polygon  points="108.6,0 124.01,42.53 118.82,42.53 108.6,18.74 98.37,42.53 93.18,42.53 "/>
   <polygon  points="57.53,16.99 86.63,45.42 82.43,47.43 64.86,32.14 65.9,55.32 61.71,57.34 "/>
   <polygon  points="20.95,49.89 54.96,61.55 52.38,64.73 32.56,59.19 42.25,77.24 39.67,80.42 "/>
   <polygon  points="0.91,92.94 34.93,89.21 33.95,93.17 15.39,96.5 30.07,108.77 29.09,112.73 "/>
   <polygon  points="162.18,17.63 132.74,45.72 136.9,47.76 154.66,32.69 153.35,55.86 157.51,57.91 "/>
   <polygon  points="197.37,49.84 163.37,61.52 165.95,64.68 185.75,59.14 176.09,77.21 178.67,80.38 "/>
   <polygon  points="216.93,91 182.84,87.89 183.9,91.83 202.52,94.81 188.07,107.36 189.13,111.3 "/>
   <path  d="M109.93 45.4c39.86,0 72.18,32.1 72.18,71.72 0,39.61 -32.32,71.73 -72.18,71.73 -39.86,0 -72.18,-32.12 -72.18,-71.73 0,-39.61 32.32,-71.72 72.18,-71.72zm0 14.81c-31.63,0 -57.27,25.48 -57.27,56.91 0,31.44 25.64,56.93 57.27,56.93 31.63,0 57.27,-25.49 57.27,-56.93 0,-31.43 -25.64,-56.91 -57.27,-56.91z"/>
   <polygon  points="108.6,238.02 124.01,195.48 118.82,195.48 108.6,219.28 98.37,195.48 93.18,195.48 "/>
   <polygon  points="59.49,221.92 88.1,193.01 83.87,191.07 66.57,206.65 67.22,183.45 62.98,181.51 "/>
   <polygon  points="18.74,185.34 53.11,174.77 50.62,171.51 30.65,176.41 40.9,158.68 38.43,155.42 "/>
   <polygon  points="-0,141.29 33.87,146.22 33.03,142.23 14.59,138.25 29.7,126.51 28.87,122.52 "/>
   <polygon  points="158.88,221.92 130.26,193.01 134.49,191.07 151.8,206.65 151.15,183.45 155.38,181.51 "/>
   <polygon  points="199.45,185.57 165.11,174.9 167.59,171.66 187.56,176.62 177.35,158.85 179.83,155.6 "/>
   <polygon  points="218,142.9 184.06,147.32 184.96,143.34 203.45,139.64 188.52,127.67 189.43,123.68 "/>
  </g>
 </g>
</svg>
