<svg width="272" height="43" viewBox="0 0 272 43" fill="none" xmlns="http://www.w3.org/2000/svg">
<path d="M22.3337 29.1184V6.92545H19.3034L11.6972 26.3787L4.15172 6.92545H0.818481V29.1184H3.69674V13.2796L9.97004 29.1184H13.1512L19.4245 13.2796V29.1184H22.3337ZM73.9766 28.5164V26.0187C73.6724 26.1624 73.3102 26.3086 72.8861 26.4536C72.4559 26.5998 71.9663 26.7276 71.4111 26.8258C70.8597 26.9266 70.2391 26.977 69.5516 26.9819C68.3857 26.9868 67.3658 26.8308 66.4867 26.5138C65.6076 26.1968 64.8757 25.7005 64.2897 25.0137C63.6987 24.3269 63.2598 23.4276 62.9668 22.3194C62.6676 21.21 62.5217 19.866 62.5217 18.2799V17.9777C62.5217 15.1028 63.0471 12.9504 64.0968 11.5142C65.1477 10.0841 66.734 9.36662 68.8556 9.36662C69.6234 9.36662 70.2687 9.39119 70.7991 9.44156C71.3246 9.49194 71.7746 9.55705 72.1431 9.63691C72.5115 9.71676 72.8404 9.80276 73.1235 9.89859C73.4103 9.99319 73.6935 10.089 73.9766 10.1787V7.34808C73.6687 7.22645 73.2941 7.10605 72.8651 7.00039C72.4311 6.89105 71.9106 6.80014 71.3097 6.73011C70.7089 6.66499 70.0017 6.62445 69.1881 6.62445C67.5883 6.62936 66.169 6.88122 64.9314 7.38739C63.6888 7.88988 62.6428 8.61719 61.7898 9.57548C60.9354 10.5338 60.2888 11.6886 59.8499 13.0536C59.4098 14.4136 59.1884 15.9554 59.1884 17.6754V18.5797C59.1934 20.1301 59.3652 21.5049 59.6978 22.6954C60.0316 23.8908 60.5015 24.913 61.1023 25.7717C61.7032 26.6305 62.4055 27.332 63.2091 27.8787C64.0115 28.4254 64.8856 28.8333 65.824 29.095C66.7686 29.3542 67.749 29.4796 68.7641 29.4796C69.7136 29.4747 70.537 29.4243 71.2343 29.326C71.9304 29.2253 72.5066 29.0999 72.9615 28.9537C73.4153 28.8063 73.754 28.6601 73.9766 28.5164ZM97.104 18.7296V17.5256C97.104 15.1925 96.7912 13.2145 96.1507 11.5928C95.5128 9.97231 94.5385 8.74251 93.2305 7.89971C91.9224 7.05691 90.2657 6.62936 88.2553 6.62445C86.7668 6.62936 85.4624 6.88122 84.3559 7.38248C83.2456 7.88496 82.327 8.61228 81.5938 9.55582C80.8619 10.5043 80.3117 11.6481 79.9532 12.9884C79.5884 14.3288 79.4079 15.8436 79.4079 17.5256V18.7898C79.4116 20.6424 79.6243 22.2371 80.0434 23.5824C80.4625 24.9314 81.0634 26.042 81.8423 26.9106C82.6249 27.7817 83.5535 28.4316 84.634 28.8518C85.7208 29.2744 86.9275 29.4783 88.2553 29.4783C89.5993 29.4832 90.8159 29.2842 91.9026 28.8837C92.9881 28.4807 93.9166 27.8542 94.6906 26.9954C95.467 26.1391 96.058 25.0272 96.4784 23.6647C96.8926 22.2986 97.0991 20.6523 97.104 18.7296ZM93.8004 18.4286C93.8004 20.135 93.6854 21.5602 93.453 22.6954C93.2156 23.8306 92.867 24.7274 92.4021 25.3847C91.9372 26.042 91.3623 26.5076 90.67 26.7914C89.9788 27.0654 89.1752 27.2018 88.2553 27.192C87.3516 27.1969 86.5591 27.0458 85.8679 26.7411C85.1805 26.4339 84.5994 25.9376 84.1296 25.2557C83.6598 24.5665 83.3062 23.6574 83.0688 22.5295C82.8314 21.4005 82.7103 20.0097 82.7103 18.3684V17.8266C82.7103 16.2405 82.8166 14.8952 83.028 13.7809C83.2407 12.6678 83.5695 11.7685 84.0183 11.0768C84.4634 10.3888 85.0383 9.88139 85.7406 9.56565C86.4428 9.24376 87.2811 9.08896 88.2553 9.09388C89.6203 9.09388 90.7108 9.41454 91.523 10.0571C92.3366 10.7045 92.9226 11.6739 93.2812 12.9676C93.6348 14.2576 93.8116 15.8793 93.8004 17.8266V18.4286ZM106.839 15.8387V9.39488H117.505V6.92545H103.686V29.1184H111.171C112.833 29.1184 114.228 28.8665 115.369 28.3702C116.505 27.8738 117.369 27.1416 117.955 26.1624C118.54 25.1832 118.834 23.9694 118.839 22.5222C118.834 21.1032 118.54 19.8992 117.965 18.9052C117.384 17.9113 116.546 17.1484 115.439 16.6275C114.338 16.1053 112.995 15.8436 111.414 15.8387H106.839ZM115.565 22.3133C115.572 23.2016 115.439 23.9694 115.177 24.6169C114.914 25.2643 114.495 25.7619 113.915 26.1145C113.334 26.4671 112.571 26.6452 111.626 26.6502H106.839V18.2799H111.354C112.348 18.2848 113.157 18.4605 113.778 18.7959C114.398 19.1375 114.853 19.6092 115.143 20.2112C115.429 20.812 115.572 21.5147 115.565 22.3133ZM126.876 26.1071C126.471 26.1071 126.073 26.0518 125.674 25.9462C125.275 25.8356 124.841 25.6698 124.361 25.4449V28.4254C124.81 28.692 125.315 28.8886 125.887 29.0041C126.452 29.1245 127.038 29.1798 127.632 29.1798C128.37 29.1896 129.027 29.084 129.608 28.8677C130.184 28.654 130.695 28.278 131.134 27.7448C131.573 27.2116 131.952 26.4806 132.27 25.5469C132.593 24.6083 132.866 23.4227 133.083 21.989C133.306 20.5528 133.491 18.8266 133.634 16.8044C133.709 15.7441 133.791 14.5905 133.876 13.3411C133.961 12.0916 134.043 10.7856 134.118 9.42682H140.057V29.1196H143.269V6.92545H131.301C131.194 8.85308 131.088 10.6087 130.982 12.1899C130.875 13.776 130.77 15.1925 130.664 16.442C130.527 18.0821 130.366 19.4778 130.189 20.6166C130.017 21.7568 129.814 22.6856 129.598 23.4067C129.376 24.1291 129.128 24.6857 128.861 25.0813C128.588 25.472 128.29 25.7435 127.961 25.8946C127.629 26.042 127.27 26.1145 126.876 26.1071ZM150.155 28.5164V26.0469C150.459 26.1931 150.822 26.3369 151.247 26.4929C151.675 26.644 152.164 26.7693 152.719 26.875C153.27 26.9806 153.89 27.0359 154.579 27.0408C155.777 27.0458 156.808 26.9204 157.68 26.6588C158.549 26.3971 159.271 25.9634 159.848 25.3577C160.418 24.7508 160.857 23.9375 161.162 22.9104C161.462 21.887 161.641 20.6117 161.702 19.0908H152.609V16.6521H161.669C161.575 14.921 161.292 13.5155 160.821 12.4307C160.353 11.3471 159.66 10.5547 158.752 10.0522C157.842 9.54599 156.684 9.30028 155.276 9.30396C154.508 9.30396 153.861 9.33468 153.333 9.38505C152.806 9.44034 152.357 9.50545 151.987 9.59145C151.618 9.67622 151.291 9.76591 151.007 9.86174C150.72 9.96248 150.437 10.0571 150.155 10.148V7.34808C150.464 7.22645 150.836 7.10605 151.265 7.00039C151.701 6.89105 152.219 6.80014 152.821 6.73011C153.422 6.66499 154.13 6.62445 154.944 6.62445C157.175 6.62936 159.03 7.05076 160.515 7.89971C161.992 8.74251 163.099 9.98214 163.838 11.6223C164.575 13.2636 164.944 15.2822 164.944 17.6754V18.5797C164.935 20.5921 164.686 22.2936 164.203 23.6881C163.717 25.0776 163.034 26.203 162.168 27.0544C161.298 27.9082 160.282 28.525 159.127 28.912C157.97 29.2941 156.718 29.4832 155.368 29.4783C154.418 29.4734 153.595 29.423 152.897 29.3248C152.201 29.224 151.625 29.0987 151.171 28.9525C150.718 28.8063 150.378 28.6601 150.155 28.5164ZM187.07 29.1184V6.92545H183.858V16.6226H174.829V6.92545H171.615V29.1184H174.829V19.1215H183.858V29.1184H187.07ZM208.502 29.1184V26.6809H198.048V19.0908H206.077V16.6521H198.048V9.39488H208.048V6.92545H194.929V29.1184H208.502ZM228.811 14.3632V12.9786C228.811 12.0953 228.667 11.282 228.381 10.5448C228.1 9.81136 227.681 9.16882 227.135 8.63194C226.585 8.09014 225.913 7.67365 225.113 7.37756C224.321 7.08148 223.411 6.93036 222.387 6.92545H214.629V29.1184H217.811V20.1154H222.782C223.731 20.1092 224.58 19.9594 225.322 19.6633C226.064 19.3623 226.701 18.9507 227.218 18.4237C227.737 17.8966 228.13 17.2897 228.403 16.5968C228.677 15.9038 228.811 15.1618 228.811 14.3632ZM225.51 14.4529C225.51 15.0316 225.409 15.5525 225.211 16.0144C225.008 16.4764 224.707 16.8376 224.291 17.1091C223.883 17.3794 223.356 17.5206 222.721 17.5256H217.811V9.54599H222.479C223.089 9.55091 223.619 9.69096 224.075 9.97231C224.521 10.2536 224.876 10.6443 225.123 11.1468C225.377 11.6542 225.505 12.2415 225.51 12.9184V14.4529ZM247.911 6.92545H235.122V29.1184H238.336V9.51528H247.911V6.92545ZM270.795 18.7296V17.5256C270.795 15.1925 270.483 13.2145 269.841 11.5928C269.206 9.97231 268.23 8.74251 266.925 7.89971C265.613 7.05691 263.96 6.62936 261.948 6.62445C260.459 6.62936 259.154 6.88122 258.049 7.38248C256.939 7.88496 256.02 8.61228 255.287 9.55582C254.555 10.5043 254.005 11.6481 253.647 12.9884C253.283 14.3288 253.102 15.8436 253.102 17.5256V18.7898C253.107 20.6424 253.32 22.2371 253.738 23.5824C254.158 24.9314 254.756 26.042 255.537 26.9106C256.319 27.7817 257.249 28.4316 258.331 28.8518C259.415 29.2744 260.623 29.4783 261.951 29.4783C263.296 29.4832 264.513 29.2842 265.597 28.8837C266.684 28.4807 267.613 27.8542 268.386 26.9954C269.164 26.1391 269.755 25.0272 270.173 23.6647C270.584 22.2986 270.792 20.6523 270.795 18.7296ZM267.493 18.4286C267.493 20.135 267.377 21.5602 267.144 22.6954C266.907 23.8306 266.559 24.7274 266.095 25.3847C265.629 26.042 265.052 26.5076 264.362 26.7914C263.671 27.0654 262.867 27.2018 261.947 27.192C261.045 27.1969 260.252 27.0458 259.558 26.7411C258.87 26.4339 258.291 25.9376 257.82 25.2557C257.352 24.5665 256.997 23.6574 256.761 22.5295C256.524 21.4005 256.403 20.0097 256.403 18.3684V17.8266C256.403 16.2405 256.507 14.8952 256.72 13.7809C256.935 12.6678 257.261 11.7685 257.713 11.0768C258.154 10.3888 258.731 9.88139 259.432 9.56565C260.135 9.24376 260.975 9.08896 261.948 9.09388C263.313 9.09388 264.404 9.41454 265.219 10.0571C266.03 10.7045 266.617 11.6739 266.974 12.9676C267.329 14.2576 267.506 15.8793 267.496 17.8266V18.4286H267.493Z" fill="#0061AA"/>
<path fill-rule="evenodd" clip-rule="evenodd" d="M41.2463 0.00488281L43.405 5.96222H42.6781L41.2463 2.63034L39.8146 5.96222H39.0876L41.2463 0.00488281Z" fill="#E37021"/>
<path fill-rule="evenodd" clip-rule="evenodd" d="M34.094 2.38464L38.1703 6.36644L37.5818 6.64779L35.1214 4.50639L35.2673 7.7535L34.68 8.03607L34.094 2.38464Z" fill="#E37021"/>
<path fill-rule="evenodd" clip-rule="evenodd" d="M28.9705 6.99298L33.7342 8.62575L33.3732 9.07049L30.5975 8.29527L31.9538 10.8237L31.5928 11.2684L28.9705 6.99298Z" fill="#E37021"/>
<path fill-rule="evenodd" clip-rule="evenodd" d="M26.1639 13.0228L30.9289 12.4995L30.7916 13.0548L28.1928 13.5204L30.2489 15.2392L30.1104 15.7932L26.1639 13.0228Z" fill="#E37021"/>
<path fill-rule="evenodd" clip-rule="evenodd" d="M48.7511 2.4743L44.6278 6.40819L45.2114 6.69445L47.6989 4.58376L47.5147 7.82842L48.097 8.1159L48.7511 2.4743Z" fill="#E37021"/>
<path fill-rule="evenodd" clip-rule="evenodd" d="M53.6804 6.98566L48.918 8.62211L49.279 9.0644L52.0534 8.28794L50.6996 10.8188L51.0606 11.2623L53.6804 6.98566Z" fill="#E37021"/>
<path fill-rule="evenodd" clip-rule="evenodd" d="M56.4202 12.7501L51.6454 12.3152L51.7937 12.8668L54.4012 13.2845L52.3773 15.0414L52.5257 15.593L56.4202 12.7501Z" fill="#E37021"/>
<path fill-rule="evenodd" clip-rule="evenodd" d="M41.433 6.36395C47.0164 6.36395 51.5427 10.8605 51.5427 16.4088C51.5427 21.957 47.0164 26.4548 41.433 26.4548C35.8496 26.4548 31.3232 21.9558 31.3232 16.4088C31.3232 10.8605 35.8496 6.36395 41.433 6.36395ZM41.433 8.43778C37.0031 8.43778 33.4115 12.0068 33.4115 16.4088C33.4115 20.812 37.0031 24.3822 41.433 24.3822C45.8629 24.3822 49.4545 20.812 49.4545 16.4088C49.4545 12.0068 45.8629 8.43778 41.433 8.43778Z" fill="#E37021"/>
<path fill-rule="evenodd" clip-rule="evenodd" d="M41.2463 33.3422L43.405 27.3836H42.6781L41.2463 30.7167L39.8146 27.3836H39.0876L41.2463 33.3422Z" fill="#E37021"/>
<path fill-rule="evenodd" clip-rule="evenodd" d="M34.3684 31.0865L38.3755 27.0384L37.7832 26.7669L35.36 28.9488L35.4515 25.6992L34.858 25.4277L34.3684 31.0865Z" fill="#E37021"/>
<path fill-rule="evenodd" clip-rule="evenodd" d="M28.6614 25.9634L33.4745 24.4829L33.1271 24.0271L30.3292 24.7127L31.7646 22.2297L31.4197 21.7727L28.6614 25.9634Z" fill="#E37021"/>
<path fill-rule="evenodd" clip-rule="evenodd" d="M26.0366 19.7947L30.7805 20.4852L30.6631 19.9262L28.0803 19.3684L30.197 17.7234L30.0795 17.1644L26.0366 19.7947Z" fill="#E37021"/>
<path fill-rule="evenodd" clip-rule="evenodd" d="M48.2887 31.0865L44.2804 27.0384L44.8726 26.7669L47.2984 28.9488L47.2069 25.6992L47.7991 25.4277L48.2887 31.0865Z" fill="#E37021"/>
<path fill-rule="evenodd" clip-rule="evenodd" d="M53.971 25.9966L49.1615 24.5014L49.5089 24.048L52.3068 24.7422L50.8763 22.2531L51.2238 21.7985L53.971 25.9966Z" fill="#E37021"/>
<path fill-rule="evenodd" clip-rule="evenodd" d="M56.5699 20.0196L51.816 20.6388L51.9422 20.081L54.5323 19.5625L52.4404 17.8868L52.5678 17.3278L56.5699 20.0196Z" fill="#E37021"/>
</svg>
