<svg width="272" height="43" viewBox="0 0 272 43" fill="none" xmlns="http://www.w3.org/2000/svg">
<path d="M22.3337 29.1183V6.92539H19.3034L11.6972 26.3786L4.15172 6.92539H0.818481V29.1183H3.69674V13.2796L9.97004 29.1183H13.1512L19.4245 13.2796V29.1183H22.3337ZM73.9766 28.5163V26.0186C73.6724 26.1624 73.3102 26.3086 72.8861 26.4535C72.4559 26.5997 71.9663 26.7275 71.4111 26.8258C70.8597 26.9265 70.2391 26.9769 69.5516 26.9818C68.3857 26.9867 67.3658 26.8307 66.4867 26.5137C65.6076 26.1968 64.8757 25.7004 64.2897 25.0136C63.6987 24.3269 63.2598 23.4276 62.9668 22.3194C62.6676 21.21 62.5217 19.8659 62.5217 18.2798V17.9776C62.5217 15.1028 63.0471 12.9503 64.0968 11.5141C65.1477 10.084 66.734 9.36656 68.8556 9.36656C69.6234 9.36656 70.2687 9.39113 70.7991 9.4415C71.3246 9.49187 71.7746 9.55699 72.1431 9.63685C72.5115 9.7167 72.8404 9.8027 73.1235 9.89853C73.4103 9.99313 73.6935 10.089 73.9766 10.1786V7.34802C73.6687 7.22639 73.2941 7.10599 72.8651 7.00033C72.4311 6.89099 71.9106 6.80008 71.3097 6.73005C70.7089 6.66493 70.0017 6.62439 69.1881 6.62439C67.5883 6.6293 66.169 6.88116 64.9314 7.38733C63.6888 7.88982 62.6428 8.61713 61.7898 9.57542C60.9354 10.5337 60.2888 11.6886 59.8499 13.0535C59.4098 14.4135 59.1884 15.9554 59.1884 17.6754V18.5796C59.1934 20.1301 59.3652 21.5048 59.6978 22.6953C60.0316 23.8907 60.5015 24.9129 61.1023 25.7717C61.7032 26.6304 62.4055 27.332 63.2091 27.8787C64.0115 28.4254 64.8856 28.8333 65.824 29.095C66.7686 29.3542 67.749 29.4795 68.7641 29.4795C69.7136 29.4746 70.537 29.4242 71.2343 29.3259C71.9304 29.2252 72.5066 29.0999 72.9615 28.9537C73.4153 28.8062 73.754 28.66 73.9766 28.5163ZM97.104 18.7295V17.5255C97.104 15.1924 96.7912 13.2144 96.1507 11.5927C95.5128 9.97225 94.5385 8.74245 93.2305 7.89965C91.9224 7.05685 90.2657 6.6293 88.2553 6.62439C86.7668 6.6293 85.4624 6.88116 84.3559 7.38242C83.2456 7.8849 82.327 8.61222 81.5938 9.55576C80.8619 10.5042 80.3117 11.648 79.9532 12.9884C79.5884 14.3288 79.4079 15.8436 79.4079 17.5255V18.7897C79.4116 20.6424 79.6243 22.2371 80.0434 23.5824C80.4625 24.9313 81.0634 26.042 81.8423 26.9106C82.6249 27.7816 83.5535 28.4315 84.634 28.8517C85.7208 29.2743 86.9275 29.4783 88.2553 29.4783C89.5993 29.4832 90.8159 29.2842 91.9026 28.8836C92.9881 28.4807 93.9166 27.8541 94.6906 26.9953C95.467 26.139 96.058 25.0272 96.4784 23.6647C96.8926 22.2985 97.0991 20.6522 97.104 18.7295ZM93.8004 18.4285C93.8004 20.135 93.6854 21.5601 93.453 22.6953C93.2156 23.8305 92.867 24.7274 92.4021 25.3847C91.9372 26.042 91.3623 26.5076 90.67 26.7914C89.9788 27.0654 89.1752 27.2017 88.2553 27.1919C87.3516 27.1968 86.5591 27.0457 85.8679 26.741C85.1805 26.4339 84.5994 25.9375 84.1296 25.2557C83.6598 24.5664 83.3062 23.6573 83.0688 22.5295C82.8314 21.4004 82.7103 20.0097 82.7103 18.3683V17.8265C82.7103 16.2404 82.8166 14.8951 83.028 13.7808C83.2407 12.6677 83.5695 11.7684 84.0183 11.0767C84.4634 10.3887 85.0383 9.88133 85.7406 9.56559C86.4428 9.2437 87.2811 9.0889 88.2553 9.09382C89.6203 9.09382 90.7108 9.41447 91.523 10.057C92.3366 10.7045 92.9226 11.6738 93.2812 12.9675C93.6348 14.2575 93.8116 15.8792 93.8004 17.8265V18.4285ZM106.839 15.8387V9.39482H117.505V6.92539H103.686V29.1183H111.171C112.833 29.1183 114.228 28.8664 115.369 28.3701C116.505 27.8738 117.369 27.1415 117.955 26.1624C118.54 25.1832 118.834 23.9694 118.839 22.5221C118.834 21.1031 118.54 19.8991 117.965 18.9052C117.384 17.9113 116.546 17.1483 115.439 16.6274C114.338 16.1053 112.995 15.8436 111.414 15.8387H106.839ZM115.565 22.3132C115.572 23.2015 115.439 23.9694 115.177 24.6168C114.914 25.2643 114.495 25.7618 113.915 26.1144C113.334 26.467 112.571 26.6452 111.626 26.6501H106.839V18.2798H111.354C112.348 18.2848 113.157 18.4604 113.778 18.7958C114.398 19.1374 114.853 19.6092 115.143 20.2112C115.429 20.8119 115.572 21.5147 115.565 22.3132ZM126.876 26.1071C126.471 26.1071 126.073 26.0518 125.674 25.9461C125.275 25.8356 124.841 25.6697 124.361 25.4449V28.4254C124.81 28.692 125.315 28.8886 125.887 29.004C126.452 29.1244 127.038 29.1797 127.632 29.1797C128.37 29.1896 129.027 29.0839 129.608 28.8677C130.184 28.6539 130.695 28.278 131.134 27.7448C131.573 27.2116 131.952 26.4806 132.27 25.5468C132.593 24.6082 132.866 23.4226 133.083 21.9889C133.306 20.5527 133.491 18.8266 133.634 16.8043C133.709 15.7441 133.791 14.5904 133.876 13.341C133.961 12.0915 134.043 10.7856 134.118 9.42676H140.057V29.1195H143.269V6.92539H131.301C131.194 8.85302 131.088 10.6086 130.982 12.1898C130.875 13.7759 130.77 15.1924 130.664 16.4419C130.527 18.082 130.366 19.4777 130.189 20.6166C130.017 21.7567 129.814 22.6855 129.598 23.4067C129.376 24.1291 129.128 24.6856 128.861 25.0812C128.588 25.4719 128.29 25.7434 127.961 25.8945C127.629 26.042 127.27 26.1144 126.876 26.1071ZM150.155 28.5163V26.0469C150.459 26.1931 150.822 26.3368 151.247 26.4928C151.675 26.644 152.164 26.7693 152.719 26.8749C153.27 26.9806 153.89 27.0359 154.579 27.0408C155.777 27.0457 156.808 26.9204 157.68 26.6587C158.549 26.397 159.271 25.9633 159.848 25.3576C160.418 24.7507 160.857 23.9374 161.162 22.9103C161.462 21.8869 161.641 20.6117 161.702 19.0907H152.609V16.652H161.669C161.575 14.9209 161.292 13.5154 160.821 12.4306C160.353 11.347 159.66 10.5546 158.752 10.0521C157.842 9.54593 156.684 9.30022 155.276 9.3039C154.508 9.3039 153.861 9.33462 153.333 9.38499C152.806 9.44027 152.357 9.50539 151.987 9.59139C151.618 9.67616 151.291 9.76585 151.007 9.86168C150.72 9.96242 150.437 10.057 150.155 10.1479V7.34802C150.464 7.22639 150.836 7.10599 151.265 7.00033C151.701 6.89099 152.219 6.80008 152.821 6.73005C153.422 6.66493 154.13 6.62439 154.944 6.62439C157.175 6.6293 159.03 7.0507 160.515 7.89965C161.992 8.74245 163.099 9.98207 163.838 11.6222C164.575 13.2636 164.944 15.2821 164.944 17.6754V18.5796C164.935 20.592 164.686 22.2936 164.203 23.688C163.717 25.0775 163.034 26.2029 162.168 27.0543C161.298 27.9082 160.282 28.5249 159.127 28.9119C157.97 29.294 156.718 29.4832 155.368 29.4783C154.418 29.4734 153.595 29.423 152.897 29.3247C152.201 29.224 151.625 29.0986 151.171 28.9524C150.718 28.8062 150.378 28.66 150.155 28.5163ZM187.07 29.1183V6.92539H183.858V16.6225H174.829V6.92539H171.615V29.1183H174.829V19.1214H183.858V29.1183H187.07ZM208.502 29.1183V26.6808H198.048V19.0907H206.077V16.652H198.048V9.39482H208.048V6.92539H194.929V29.1183H208.502ZM228.811 14.3632V12.9786C228.811 12.0952 228.667 11.2819 228.381 10.5448C228.1 9.8113 227.681 9.16876 227.135 8.63188C226.585 8.09008 225.913 7.67359 225.113 7.3775C224.321 7.08142 223.411 6.9303 222.387 6.92539H214.629V29.1183H217.811V20.1153H222.782C223.731 20.1092 224.58 19.9593 225.322 19.6632C226.064 19.3622 226.701 18.9506 227.218 18.4236C227.737 17.8965 228.13 17.2896 228.403 16.5967C228.677 15.9038 228.811 15.1617 228.811 14.3632ZM225.51 14.4528C225.51 15.0315 225.409 15.5524 225.211 16.0144C225.008 16.4763 224.707 16.8375 224.291 17.109C223.883 17.3793 223.356 17.5206 222.721 17.5255H217.811V9.54593H222.479C223.089 9.55085 223.619 9.6909 224.075 9.97225C224.521 10.2536 224.876 10.6443 225.123 11.1468C225.377 11.6542 225.505 12.2414 225.51 12.9184V14.4528ZM247.911 6.92539H235.122V29.1183H238.336V9.51522H247.911V6.92539ZM270.795 18.7295V17.5255C270.795 15.1924 270.483 13.2144 269.841 11.5927C269.206 9.97225 268.23 8.74245 266.925 7.89965C265.613 7.05685 263.96 6.6293 261.948 6.62439C260.459 6.6293 259.154 6.88116 258.049 7.38242C256.939 7.8849 256.02 8.61222 255.287 9.55576C254.555 10.5042 254.005 11.648 253.647 12.9884C253.283 14.3288 253.102 15.8436 253.102 17.5255V18.7897C253.107 20.6424 253.32 22.2371 253.738 23.5824C254.158 24.9313 254.756 26.042 255.537 26.9106C256.319 27.7816 257.249 28.4315 258.331 28.8517C259.415 29.2743 260.623 29.4783 261.951 29.4783C263.296 29.4832 264.513 29.2842 265.597 28.8836C266.684 28.4807 267.613 27.8541 268.386 26.9953C269.164 26.139 269.755 25.0272 270.173 23.6647C270.584 22.2985 270.792 20.6522 270.795 18.7295ZM267.493 18.4285C267.493 20.135 267.377 21.5601 267.144 22.6953C266.907 23.8305 266.559 24.7274 266.095 25.3847C265.629 26.042 265.052 26.5076 264.362 26.7914C263.671 27.0654 262.867 27.2017 261.947 27.1919C261.045 27.1968 260.252 27.0457 259.558 26.741C258.87 26.4339 258.291 25.9375 257.82 25.2557C257.352 24.5664 256.997 23.6573 256.761 22.5295C256.524 21.4004 256.403 20.0097 256.403 18.3683V17.8265C256.403 16.2404 256.507 14.8951 256.72 13.7808C256.935 12.6677 257.261 11.7684 257.713 11.0767C258.154 10.3887 258.731 9.88133 259.432 9.56559C260.135 9.2437 260.975 9.0889 261.948 9.09382C263.313 9.09382 264.404 9.41447 265.219 10.057C266.03 10.7045 266.617 11.6738 266.974 12.9675C267.329 14.2575 267.506 15.8792 267.496 17.8265V18.4285H267.493Z" fill="white"/>
<path fill-rule="evenodd" clip-rule="evenodd" d="M41.2463 0.00488281L43.405 5.96222H42.6781L41.2463 2.63034L39.8146 5.96222H39.0876L41.2463 0.00488281Z" fill="#E37021"/>
<path fill-rule="evenodd" clip-rule="evenodd" d="M34.0939 2.38464L38.1702 6.36644L37.5817 6.64779L35.1213 4.50639L35.2672 7.7535L34.68 8.03607L34.0939 2.38464Z" fill="#E37021"/>
<path fill-rule="evenodd" clip-rule="evenodd" d="M28.9705 6.99292L33.7342 8.62569L33.3732 9.07043L30.5975 8.29521L31.9538 10.8236L31.5928 11.2683L28.9705 6.99292Z" fill="#E37021"/>
<path fill-rule="evenodd" clip-rule="evenodd" d="M26.1639 13.0229L30.9289 12.4995L30.7916 13.0548L28.1928 13.5205L30.2489 15.2392L30.1104 15.7933L26.1639 13.0229Z" fill="#E37021"/>
<path fill-rule="evenodd" clip-rule="evenodd" d="M48.7511 2.47437L44.6278 6.40825L45.2114 6.69451L47.6989 4.58382L47.5147 7.82848L48.097 8.11596L48.7511 2.47437Z" fill="#E37021"/>
<path fill-rule="evenodd" clip-rule="evenodd" d="M53.6804 6.9856L48.918 8.62205L49.279 9.06434L52.0534 8.28788L50.6996 10.8187L51.0606 11.2623L53.6804 6.9856Z" fill="#E37021"/>
<path fill-rule="evenodd" clip-rule="evenodd" d="M56.4202 12.7501L51.6454 12.3152L51.7937 12.8668L54.4012 13.2845L52.3773 15.0414L52.5257 15.593L56.4202 12.7501Z" fill="#E37021"/>
<path fill-rule="evenodd" clip-rule="evenodd" d="M41.433 6.36401C47.0164 6.36401 51.5427 10.8606 51.5427 16.4088C51.5427 21.957 47.0164 26.4548 41.433 26.4548C35.8496 26.4548 31.3232 21.9558 31.3232 16.4088C31.3232 10.8606 35.8496 6.36401 41.433 6.36401ZM41.433 8.43784C37.0031 8.43784 33.4115 12.0068 33.4115 16.4088C33.4115 20.812 37.0031 24.3822 41.433 24.3822C45.8629 24.3822 49.4545 20.812 49.4545 16.4088C49.4545 12.0068 45.8629 8.43784 41.433 8.43784Z" fill="#E37021"/>
<path fill-rule="evenodd" clip-rule="evenodd" d="M41.2463 33.3421L43.405 27.3835H42.6781L41.2463 30.7167L39.8146 27.3835H39.0876L41.2463 33.3421Z" fill="#E37021"/>
<path fill-rule="evenodd" clip-rule="evenodd" d="M34.3684 31.0865L38.3755 27.0384L37.7832 26.7669L35.36 28.9488L35.4515 25.6992L34.858 25.4277L34.3684 31.0865Z" fill="#E37021"/>
<path fill-rule="evenodd" clip-rule="evenodd" d="M28.6614 25.9634L33.4745 24.4829L33.1271 24.0271L30.3292 24.7127L31.7646 22.2297L31.4197 21.7727L28.6614 25.9634Z" fill="#E37021"/>
<path fill-rule="evenodd" clip-rule="evenodd" d="M26.0366 19.7947L30.7805 20.4851L30.663 19.9261L28.0803 19.3684L30.1969 17.7233L30.0795 17.1643L26.0366 19.7947Z" fill="#E37021"/>
<path fill-rule="evenodd" clip-rule="evenodd" d="M48.2887 31.0865L44.2804 27.0384L44.8726 26.7669L47.2984 28.9488L47.2069 25.6992L47.7991 25.4277L48.2887 31.0865Z" fill="#E37021"/>
<path fill-rule="evenodd" clip-rule="evenodd" d="M53.971 25.9966L49.1615 24.5014L49.5089 24.0481L52.3068 24.7422L50.8763 22.2532L51.2238 21.7986L53.971 25.9966Z" fill="#E37021"/>
<path fill-rule="evenodd" clip-rule="evenodd" d="M56.5698 20.0196L51.816 20.6388L51.9421 20.081L54.5323 19.5625L52.4403 17.8868L52.5677 17.3278L56.5698 20.0196Z" fill="#E37021"/>
<path d="M0 40.0391H67.1135V39.0624H0V40.0391ZM203.258 40.0391H270.372V39.0624H203.258V40.0391Z" fill="#E37021"/>
<path d="M74.1039 41.8365C73.5859 41.8365 73.0283 41.748 72.4286 41.5748L72.5869 40.8745C73.1272 41.0354 73.6304 41.1165 74.0953 41.1165C75.0658 41.1165 75.5517 40.5526 75.5517 39.4272V39.0955H73.5364L73.4672 38.3854H75.5517C75.5517 37.733 75.433 37.2502 75.1944 36.9431C74.9558 36.6335 74.5898 36.4774 74.0953 36.4774C73.6527 36.4774 73.1507 36.561 72.5869 36.7293L72.4286 36.0265C73.0456 35.8447 73.6044 35.7501 74.1039 35.7501C74.7852 35.7501 75.3341 35.9516 75.7532 36.3521C76.1711 36.7526 76.3801 37.3387 76.3801 38.1065V39.4862C76.3801 40.2492 76.1711 40.8303 75.7532 41.2308C75.3341 41.635 74.7839 41.8365 74.1039 41.8365Z" fill="white"/>
<path d="M79.3288 41.7235V35.8607H80.1572V38.3756H82.5903V35.8607H83.41V41.7235H82.5903V39.0955H80.1572V41.7235H79.3288Z" fill="white"/>
<path d="M86.5158 41.7235V35.8607H89.7415V36.5905H87.3442V38.4186H89.3866L89.3322 39.1226H87.3442V40.9937H89.8206V41.7235H86.5158Z" fill="white"/>
<path d="M92.7607 41.7236V35.8633H94.7228C95.2519 35.8633 95.681 36.0341 96.0098 36.3768C96.3387 36.7221 96.5019 37.1422 96.5019 37.6386C96.5019 38.13 96.3387 38.5502 96.0098 38.8954C95.681 39.2406 95.2519 39.4163 94.7228 39.4163H93.589V41.7223H92.7607V41.7236ZM93.589 38.6976H94.7141C95.0109 38.6976 95.2433 38.5993 95.4127 38.4027C95.5808 38.2062 95.6649 37.9519 95.6649 37.6398C95.6649 37.3277 95.5808 37.0759 95.4127 36.8818C95.2433 36.6877 95.0109 36.5918 94.7141 36.5918H93.589V38.6976Z" fill="white"/>
<path d="M99.2244 41.7235V35.8607H102.339V36.5905H100.053V41.7235H99.2244Z" fill="white"/>
<path d="M104.938 41.7234V35.8619H105.766V39.3388C105.766 39.6914 105.76 39.9727 105.749 40.1816L108.444 35.8619H109.108V41.7234H108.278V38.3252C108.278 38.0304 108.291 37.7392 108.314 37.4566L105.628 41.7234H104.938Z" fill="white"/>
<path d="M111.882 41.7236L113.025 39.3021C112.676 39.1939 112.399 38.9851 112.196 38.6804C111.992 38.3733 111.89 38.0256 111.89 37.6386C111.89 37.1422 112.055 36.7221 112.383 36.3768C112.712 36.0341 113.138 35.8633 113.661 35.8633H115.677V41.7236H114.847V39.4077H113.862L112.806 41.7236H111.882ZM113.687 38.6976H114.847V36.5906H113.687C113.391 36.5906 113.157 36.6864 112.985 36.8805C112.813 37.0747 112.728 37.3265 112.728 37.6386C112.728 37.9506 112.813 38.2049 112.985 38.4015C113.156 38.5993 113.389 38.6976 113.687 38.6976Z" fill="white"/>
<path d="M122.531 41.7235V35.8607H126.622V41.7235H125.794V36.5831H123.359V41.7235H122.531Z" fill="white"/>
<path d="M129.562 39.4777V38.1177C129.562 37.3621 129.767 36.7761 130.18 36.3658C130.593 35.9554 131.116 35.7515 131.752 35.7515C132.385 35.7515 132.908 35.9554 133.321 36.3658C133.734 36.7761 133.941 37.3621 133.941 38.1177V39.4777C133.941 40.2358 133.734 40.8169 133.321 41.2248C132.908 41.6326 132.385 41.8366 131.752 41.8366C131.116 41.8366 130.593 41.6326 130.18 41.2248C129.767 40.8169 129.562 40.2358 129.562 39.4777ZM130.391 39.4347C130.391 39.9962 130.512 40.4139 130.757 40.6915C131 40.968 131.333 41.1068 131.752 41.1068C132.17 41.1068 132.502 40.968 132.75 40.6915C132.997 40.4127 133.121 39.9962 133.121 39.4347V38.1681C133.121 37.6017 132.997 37.1791 132.75 36.899C132.502 36.6201 132.17 36.4788 131.752 36.4788C131.333 36.4788 131 36.6201 130.757 36.899C130.512 37.1803 130.391 37.6017 130.391 38.1681V39.4347Z" fill="white"/>
<path d="M136.242 42.9951V41.0036H136.856C137.162 40.5405 137.413 39.8254 137.604 38.8585C137.794 37.8892 137.893 36.8904 137.9 35.8633H141.24V41.0036H141.957V42.8588L141.179 42.9951V41.7211H137.019V42.8588L136.242 42.9951ZM137.778 41.0036H140.413V36.5832H138.669C138.633 37.5931 138.532 38.4814 138.363 39.2443C138.192 40.006 137.999 40.5933 137.778 41.0036Z" fill="white"/>
<path d="M144.216 41.7234L144.913 35.8619H145.881L147.12 39.0894C147.173 39.2172 147.248 39.4666 147.347 39.8425C147.459 39.4825 147.538 39.2331 147.591 39.0894L148.82 35.8619H149.788L150.488 41.7234H149.674L149.213 37.7687C149.185 37.5267 149.16 37.2404 149.143 36.9124C149.026 37.3276 148.937 37.6127 148.882 37.7687L147.81 40.6116H146.892L145.82 37.7687C145.722 37.5217 145.628 37.2404 145.54 36.9283C145.511 37.4419 145.494 37.722 145.487 37.7687L145.035 41.7234H144.216Z" fill="white"/>
<path d="M153.121 39.4777V38.1177C153.121 37.3621 153.326 36.7761 153.739 36.3658C154.152 35.9554 154.677 35.7515 155.311 35.7515C155.944 35.7515 156.468 35.9554 156.881 36.3658C157.294 36.7761 157.502 37.3621 157.502 38.1177V39.4777C157.502 40.2358 157.294 40.8169 156.881 41.2248C156.468 41.6326 155.944 41.8366 155.311 41.8366C154.675 41.8366 154.151 41.6326 153.739 41.2248C153.328 40.8169 153.121 40.2358 153.121 39.4777ZM153.95 39.4347C153.95 39.9962 154.073 40.4139 154.317 40.6915C154.56 40.968 154.894 41.1068 155.312 41.1068C155.73 41.1068 156.062 40.968 156.31 40.6915C156.558 40.4127 156.682 39.9962 156.682 39.4347V38.1681C156.682 37.6017 156.558 37.1791 156.31 36.899C156.064 36.6201 155.73 36.4788 155.312 36.4788C154.894 36.4788 154.562 36.6201 154.317 36.899C154.073 37.1803 153.95 37.6017 153.95 38.1681V39.4347Z" fill="white"/>
<path d="M164.077 40.8648L164.234 41.5774C163.635 41.7481 163.074 41.8366 162.558 41.8366C161.872 41.8366 161.32 41.6351 160.902 41.2346C160.484 40.8316 160.274 40.2505 160.274 39.4875V38.1005C160.274 37.3375 160.484 36.754 160.902 36.3535C161.32 35.953 161.872 35.7515 162.558 35.7515C163.09 35.7515 163.648 35.8424 164.234 36.0279L164.077 36.7208C163.535 36.5599 163.033 36.4788 162.567 36.4788C162.113 36.4788 161.756 36.6176 161.495 36.8916C161.234 37.1656 161.102 37.5845 161.102 38.1509V39.4347C161.102 40.006 161.231 40.4286 161.49 40.6989C161.749 40.9729 162.106 41.1068 162.567 41.1068C163.063 41.1068 163.565 41.0257 164.077 40.8648Z" fill="white"/>
<path d="M167.008 41.7235V35.8619H167.836V38.5427L169.032 38.1176C169.23 38.0476 169.379 37.9517 169.486 37.8326C169.59 37.7097 169.669 37.55 169.719 37.3461L170.12 35.8632H170.931L170.496 37.5021C170.414 37.8092 170.305 38.0537 170.167 38.2417C170.032 38.4235 169.843 38.5636 169.604 38.6569L171.201 41.7259H170.268L168.855 38.942L167.834 39.3241V41.7259H167.008V41.7235Z" fill="white"/>
<path d="M173.663 39.4777V38.1177C173.663 37.3621 173.869 36.7761 174.282 36.3658C174.695 35.9554 175.219 35.7515 175.853 35.7515C176.486 35.7515 177.01 35.9554 177.423 36.3658C177.836 36.7761 178.044 37.3621 178.044 38.1177V39.4777C178.044 40.2358 177.836 40.8169 177.423 41.2248C177.01 41.6326 176.486 41.8366 175.853 41.8366C175.217 41.8366 174.693 41.6326 174.282 41.2248C173.87 40.8169 173.663 40.2358 173.663 39.4777ZM174.492 39.4347C174.492 39.9962 174.613 40.4139 174.859 40.6915C175.103 40.968 175.434 41.1068 175.854 41.1068C176.272 41.1068 176.605 40.968 176.852 40.6915C177.1 40.4127 177.224 39.9962 177.224 39.4347V38.1681C177.224 37.6017 177.1 37.1791 176.852 36.899C176.606 36.6201 176.272 36.4788 175.854 36.4788C175.434 36.4788 175.104 36.6201 174.859 36.899C174.613 37.1803 174.492 37.6017 174.492 38.1681V39.4347Z" fill="white"/>
<path d="M182.759 41.7211H180.981V35.8633H182.785C183.355 35.8633 183.806 36.007 184.138 36.2957C184.472 36.5857 184.635 36.9555 184.635 37.4064C184.635 37.9605 184.379 38.3708 183.867 38.6374C184.198 38.7627 184.447 38.9519 184.609 39.2013C184.771 39.4483 184.852 39.7271 184.852 40.0318C184.852 40.4827 184.672 40.8771 184.307 41.2149C183.945 41.5528 183.428 41.7211 182.759 41.7211ZM181.811 38.3683H182.7C183.042 38.3683 183.311 38.2873 183.506 38.1263C183.701 37.9629 183.8 37.7467 183.8 37.4764C183.8 37.1975 183.711 36.9825 183.532 36.8265C183.355 36.6705 183.097 36.5918 182.759 36.5918H181.81V38.3683H181.811ZM181.811 40.9938H182.753C183.159 40.9938 183.473 40.9078 183.69 40.7346C183.91 40.5613 184.019 40.3267 184.019 40.0318C184.019 39.7321 183.92 39.4937 183.722 39.3217C183.525 39.1497 183.225 39.06 182.824 39.06H181.812V40.9938H181.811Z" fill="white"/>
<path d="M187.601 41.7211V35.8633H188.429V38.2369H189.651C190.18 38.2369 190.609 38.4052 190.943 38.7406C191.274 39.0735 191.437 39.4888 191.437 39.979C191.437 40.4704 191.273 40.8832 190.943 41.2199C190.609 41.5553 190.18 41.7211 189.651 41.7211H187.601ZM188.429 41.0036H189.641C189.938 41.0036 190.172 40.9103 190.341 40.7247C190.508 40.5405 190.592 40.2898 190.592 39.979C190.592 39.6682 190.508 39.42 190.341 39.2357C190.171 39.0514 189.938 38.9568 189.641 38.9568H188.429V41.0036Z" fill="white"/>
<path d="M193.762 41.7236L194.904 39.3021C194.554 39.1939 194.278 38.9851 194.076 38.6804C193.87 38.3733 193.769 38.0256 193.769 37.6386C193.769 37.1422 193.934 36.7221 194.261 36.3768C194.59 36.0341 195.017 35.8633 195.538 35.8633H197.555V41.7236H196.724V39.4077H195.739L194.683 41.7236H193.762ZM195.566 38.6976H196.725V36.5906H195.566C195.269 36.5906 195.034 36.6864 194.863 36.8805C194.693 37.0747 194.607 37.3265 194.607 37.6386C194.607 37.9506 194.691 38.2049 194.863 38.4015C195.035 38.5981 195.269 38.6976 195.566 38.6976Z" fill="white"/>
</svg>
