<svg width="222" height="36" viewBox="0 0 222 36" fill="none" xmlns="http://www.w3.org/2000/svg">
<g clip-path="url(#clip0)">
<path d="M18.5738 24.0233V6.24599H16.1156L9.94563 21.8287L3.82476 6.24599H1.12086V24.0233H3.45568V11.3359L8.54454 24.0233H11.1251L16.2139 11.3359V24.0233H18.5738ZM60.4661 23.541V21.5403C60.2194 21.6555 59.9255 21.7726 59.5815 21.8887C59.2325 22.0058 58.8354 22.1082 58.385 22.1869C57.9377 22.2676 57.4343 22.3079 56.8766 22.3119C55.9309 22.3158 55.1035 22.1908 54.3904 21.9369C53.6773 21.683 53.0836 21.2854 52.6082 20.7353C52.1288 20.1852 51.7727 19.4648 51.535 18.5771C51.2923 17.6884 51.174 16.6118 51.174 15.3413V15.0992C51.174 12.7963 51.6002 11.0722 52.4517 9.92171C53.3042 8.77618 54.591 8.20145 56.312 8.20145C56.9348 8.20145 57.4583 8.22114 57.8886 8.26149C58.3148 8.30183 58.6799 8.35399 58.9788 8.41796C59.2777 8.48193 59.5444 8.55082 59.7741 8.62758C60.0068 8.70336 60.2365 8.78012 60.4661 8.85196V6.58453C60.2164 6.4871 59.9125 6.39066 59.5645 6.30603C59.2125 6.21844 58.7902 6.14561 58.3028 6.08952C57.8154 6.03736 57.2417 6.00488 56.5818 6.00488C55.284 6.00882 54.1326 6.21057 53.1287 6.61603C52.1208 7.01853 51.2723 7.60114 50.5803 8.36876C49.8872 9.13637 49.3627 10.0615 49.0067 11.1548C48.6496 12.2442 48.4701 13.4793 48.4701 14.8571V15.5814C48.4741 16.8234 48.6135 17.9246 48.8833 18.8782C49.1541 19.8358 49.5352 20.6546 50.0226 21.3425C50.5101 22.0304 51.0797 22.5923 51.7316 23.0303C52.3825 23.4682 53.0916 23.7949 53.8528 24.0046C54.6191 24.2122 55.4144 24.3126 56.2378 24.3126C57.008 24.3087 57.676 24.2683 58.2416 24.1896C58.8063 24.1089 59.2736 24.0085 59.6427 23.8914C60.0108 23.7733 60.2856 23.6562 60.4661 23.541ZM79.2269 15.7015V14.737C79.2269 12.8682 78.9731 11.2837 78.4536 9.98469C77.9361 8.68663 77.1458 7.70152 76.0847 7.02641C75.0236 6.3513 73.6797 6.00882 72.0489 6.00488C70.8414 6.00882 69.7833 6.21056 68.8857 6.61209C67.9851 7.0146 67.2399 7.5972 66.6452 8.35301C66.0514 9.11276 65.6051 10.029 65.3143 11.1027C65.0184 12.1763 64.872 13.3898 64.872 14.737V15.7497C64.875 17.2338 65.0475 18.5112 65.3875 19.5888C65.7275 20.6694 66.2149 21.559 66.8467 22.2548C67.4816 22.9525 68.2348 23.4731 69.1114 23.8097C69.9929 24.1482 70.9718 24.3116 72.0489 24.3116C73.1391 24.3155 74.126 24.1561 75.0076 23.8353C75.8881 23.5125 76.6413 23.0106 77.2692 22.3227C77.899 21.6368 78.3784 20.7461 78.7194 19.6547C79.0554 18.5604 79.2229 17.2416 79.2269 15.7015ZM76.5471 15.4604C76.5471 16.8273 76.4538 17.9689 76.2652 18.8782C76.0727 19.7876 75.7899 20.506 75.4128 21.0325C75.0357 21.559 74.5693 21.932 74.0077 22.1593C73.447 22.3788 72.7951 22.488 72.0489 22.4802C71.3158 22.4841 70.6729 22.363 70.1123 22.119C69.5547 21.8729 69.0833 21.4754 68.7022 20.9292C68.321 20.3771 68.0342 19.6488 67.8417 18.7454C67.6491 17.841 67.5508 16.7269 67.5508 15.4122V14.9782C67.5508 13.7076 67.6371 12.63 67.8086 11.7374C67.9811 10.8458 68.2478 10.1254 68.6119 9.57136C68.973 9.02025 69.4393 8.6138 70.009 8.36088C70.5786 8.10304 71.2586 7.97904 72.0489 7.98298C73.1562 7.98298 74.0407 8.23984 74.6997 8.75453C75.3596 9.27317 75.835 10.0496 76.1258 11.0859C76.4127 12.1193 76.5561 13.4183 76.5471 14.9782V15.4604ZM87.1239 13.3858V8.22409H95.7762V6.24599H84.5665V24.0233H90.6382C91.9861 24.0233 93.1174 23.8215 94.0432 23.4239C94.9648 23.0263 95.6659 22.4398 96.1413 21.6555C96.6157 20.8711 96.8544 19.8988 96.8584 18.7395C96.8544 17.6028 96.6157 16.6384 96.1493 15.8422C95.6779 15.0461 94.9979 14.4349 94.1003 14.0176C93.2067 13.5994 92.1175 13.3898 90.8348 13.3858H87.1239ZM94.2026 18.5722C94.2076 19.2837 94.1003 19.8988 93.8877 20.4174C93.6741 20.9361 93.3341 21.3346 92.8637 21.6171C92.3923 21.8995 91.7735 22.0422 91.0073 22.0462H87.1239V15.3413H90.7866C91.593 15.3452 92.2489 15.486 92.7524 15.7546C93.2559 16.0282 93.6249 16.4061 93.8596 16.8883C94.0923 17.3696 94.2076 17.9325 94.2026 18.5722ZM103.377 21.6112C103.049 21.6112 102.727 21.5669 102.403 21.4822C102.079 21.3937 101.727 21.2608 101.337 21.0807V23.4682C101.702 23.6818 102.112 23.8392 102.575 23.9317C103.033 24.0282 103.509 24.0725 103.991 24.0725C104.59 24.0803 105.122 23.9957 105.594 23.8225C106.061 23.6513 106.475 23.3501 106.831 22.923C107.188 22.4959 107.495 21.9103 107.753 21.1624C108.015 20.4105 108.237 19.4609 108.413 18.3124C108.594 17.1619 108.744 15.7792 108.859 14.1594C108.921 13.3101 108.987 12.386 109.056 11.3851C109.125 10.3842 109.191 9.33812 109.253 8.24968H114.07V24.0242H116.675V6.24599H106.967C106.881 7.79009 106.794 9.19641 106.708 10.463C106.622 11.7335 106.537 12.8682 106.45 13.869C106.339 15.1829 106.209 16.3008 106.065 17.2131C105.926 18.1264 105.761 18.8704 105.586 19.4481C105.405 20.0267 105.205 20.4725 104.988 20.7894C104.766 21.1024 104.525 21.3199 104.258 21.4409C103.988 21.559 103.697 21.6171 103.377 21.6112ZM122.262 23.541V21.5629C122.508 21.6801 122.802 21.7952 123.147 21.9202C123.494 22.0412 123.891 22.1416 124.342 22.2262C124.788 22.3109 125.291 22.3552 125.85 22.3591C126.822 22.363 127.658 22.2627 128.365 22.053C129.07 21.8434 129.656 21.496 130.124 21.0108C130.587 20.5247 130.943 19.8732 131.191 19.0505C131.433 18.2307 131.579 17.2092 131.628 15.9908H124.252V14.0373H131.602C131.526 12.6507 131.296 11.5249 130.914 10.6559C130.534 9.78787 129.972 9.15311 129.235 8.7506C128.497 8.34514 127.558 8.14831 126.416 8.15126C125.793 8.15126 125.267 8.17587 124.839 8.21622C124.412 8.2605 124.048 8.31266 123.748 8.38155C123.448 8.44945 123.183 8.5213 122.953 8.59806C122.72 8.67876 122.49 8.75453 122.262 8.82736V6.58453C122.512 6.4871 122.814 6.39066 123.162 6.30603C123.515 6.21844 123.935 6.14561 124.424 6.08952C124.911 6.03736 125.486 6.00488 126.146 6.00488C127.956 6.00882 129.461 6.34637 130.665 7.02641C131.864 7.70152 132.761 8.6945 133.361 10.0083C133.959 11.3231 134.259 12.94 134.259 14.8571V15.5814C134.251 17.1934 134.049 18.5564 133.657 19.6734C133.263 20.7865 132.709 21.6879 132.006 22.3699C131.301 23.0539 130.477 23.5479 129.54 23.8579C128.601 24.164 127.585 24.3155 126.49 24.3116C125.72 24.3077 125.052 24.2673 124.486 24.1886C123.921 24.1079 123.454 24.0075 123.086 23.8904C122.718 23.7733 122.442 23.6562 122.262 23.541ZM152.207 24.0233V6.24599H149.601V14.0137H142.277V6.24599H139.669V24.0233H142.277V16.0154H149.601V24.0233H152.207ZM169.592 24.0233V22.0708H161.112V15.9908H167.625V14.0373H161.112V8.22409H169.224V6.24599H158.582V24.0233H169.592ZM186.067 12.2039V11.0948C186.067 10.3872 185.949 9.73571 185.718 9.14523C185.49 8.55771 185.15 8.04301 184.707 7.61295C184.261 7.17895 183.716 6.84533 183.067 6.60815C182.424 6.37098 181.686 6.24993 180.856 6.24599H174.562V24.0233H177.144V16.8116H181.176C181.946 16.8067 182.635 16.6866 183.237 16.4494C183.838 16.2083 184.355 15.8786 184.774 15.4564C185.195 15.0342 185.514 14.5481 185.736 13.993C185.957 13.438 186.067 12.8436 186.067 12.2039ZM183.389 12.2757C183.389 12.7393 183.307 13.1565 183.146 13.5266C182.982 13.8966 182.737 14.1859 182.4 14.4034C182.069 14.6199 181.642 14.7331 181.126 14.737H177.144V8.34514H180.93C181.425 8.34907 181.855 8.46126 182.225 8.68663C182.587 8.91199 182.874 9.22495 183.075 9.62745C183.281 10.0339 183.385 10.5043 183.389 11.0466V12.2757ZM201.56 6.24599H191.186V24.0233H193.793V8.32053H201.56V6.24599ZM220.123 15.7015V14.737C220.123 12.8682 219.87 11.2837 219.35 9.98469C218.834 8.68663 218.043 7.70152 216.984 7.02641C215.92 6.3513 214.579 6.00882 212.947 6.00488C211.739 6.00882 210.681 6.21056 209.784 6.61209C208.883 7.0146 208.138 7.5972 207.543 8.35301C206.95 9.11276 206.503 10.029 206.214 11.1027C205.918 12.1763 205.771 13.3898 205.771 14.737V15.7497C205.775 17.2338 205.948 18.5112 206.287 19.5888C206.628 20.6694 207.113 21.559 207.746 22.2548C208.381 22.9525 209.135 23.4731 210.013 23.8097C210.892 24.1482 211.872 24.3116 212.949 24.3116C214.04 24.3155 215.027 24.1561 215.907 23.8353C216.788 23.5125 217.543 23.0106 218.17 22.3227C218.8 21.6368 219.28 20.7461 219.619 19.6547C219.953 18.5604 220.121 17.2416 220.123 15.7015ZM217.445 15.4604C217.445 16.8273 217.351 17.9689 217.162 18.8782C216.97 19.7876 216.687 20.506 216.311 21.0325C215.933 21.559 215.465 21.932 214.905 22.1593C214.344 22.3788 213.692 22.488 212.946 22.4802C212.214 22.4841 211.571 22.363 211.009 22.119C210.45 21.8729 209.981 21.4754 209.599 20.9292C209.218 20.3771 208.931 19.6488 208.739 18.7454C208.547 17.841 208.449 16.7269 208.449 15.4122V14.9782C208.449 13.7076 208.533 12.63 208.706 11.7374C208.88 10.8458 209.145 10.1254 209.511 9.57136C209.869 9.02025 210.338 8.6138 210.906 8.36088C211.476 8.10304 212.158 7.97904 212.947 7.98298C214.055 7.98298 214.939 8.23984 215.6 8.75453C216.258 9.27317 216.734 10.0496 217.024 11.0859C217.312 12.1193 217.455 13.4183 217.447 14.9782V15.4604H217.445Z" fill="#0061AA"/>
<path fill-rule="evenodd" clip-rule="evenodd" d="M33.9156 0.702393L35.6667 5.47442H35.077L33.9156 2.80547L32.7542 5.47442H32.1645L33.9156 0.702393Z" fill="#E37021"/>
<path fill-rule="evenodd" clip-rule="evenodd" d="M28.1137 2.60864L31.4203 5.7982L30.9429 6.02356L28.9471 4.30823L29.0655 6.90928L28.5891 7.13563L28.1137 2.60864Z" fill="#E37021"/>
<path fill-rule="evenodd" clip-rule="evenodd" d="M23.9575 6.30005L27.8218 7.60795L27.529 7.96421L25.2774 7.34322L26.3776 9.36856L26.0847 9.72481L23.9575 6.30005Z" fill="#E37021"/>
<path fill-rule="evenodd" clip-rule="evenodd" d="M21.6809 11.1302L25.5461 10.7109L25.4348 11.1558L23.3267 11.5287L24.9945 12.9055L24.8822 13.3494L21.6809 11.1302Z" fill="#E37021"/>
<path fill-rule="evenodd" clip-rule="evenodd" d="M40.0034 2.68042L36.6586 5.83159L37.132 6.0609L39.1499 4.37017L39.0004 6.96924L39.4728 7.19953L40.0034 2.68042Z" fill="#E37021"/>
<path fill-rule="evenodd" clip-rule="evenodd" d="M44.002 6.29419L40.1388 7.60505L40.4316 7.95933L42.6822 7.33736L41.584 9.36466L41.8768 9.71993L44.002 6.29419Z" fill="#E37021"/>
<path fill-rule="evenodd" clip-rule="evenodd" d="M46.2245 10.9116L42.3512 10.5632L42.4716 11.0051L44.5868 11.3397L42.945 12.747L43.0653 13.1889L46.2245 10.9116Z" fill="#E37021"/>
<path fill-rule="evenodd" clip-rule="evenodd" d="M34.067 5.79614C38.5963 5.79614 42.268 9.39805 42.268 13.8424C42.268 18.2867 38.5963 21.8896 34.067 21.8896C29.5378 21.8896 25.8661 18.2857 25.8661 13.8424C25.8661 9.39805 29.5378 5.79614 34.067 5.79614ZM34.067 7.45735C30.4735 7.45735 27.56 10.3162 27.56 13.8424C27.56 17.3695 30.4735 20.2294 34.067 20.2294C37.6605 20.2294 40.574 17.3695 40.574 13.8424C40.574 10.3162 37.6605 7.45735 34.067 7.45735Z" fill="#E37021"/>
<path fill-rule="evenodd" clip-rule="evenodd" d="M33.9156 27.4066L35.6667 22.6335H35.077L33.9156 25.3035L32.7542 22.6335H32.1645L33.9156 27.4066Z" fill="#E37021"/>
<path fill-rule="evenodd" clip-rule="evenodd" d="M28.3363 25.5998L31.5868 22.3571L31.1064 22.1396L29.1406 23.8874L29.2148 21.2844L28.7334 21.0669L28.3363 25.5998Z" fill="#E37021"/>
<path fill-rule="evenodd" clip-rule="evenodd" d="M23.7068 21.496L27.6112 20.3101L27.3293 19.945L25.0597 20.4942L26.2241 18.5053L25.9443 18.1392L23.7068 21.496Z" fill="#E37021"/>
<path fill-rule="evenodd" clip-rule="evenodd" d="M21.5776 16.5548L25.4258 17.1078L25.3305 16.6601L23.2354 16.2133L24.9524 14.8955L24.8572 14.4478L21.5776 16.5548Z" fill="#E37021"/>
<path fill-rule="evenodd" clip-rule="evenodd" d="M39.6283 25.5998L36.3768 22.3571L36.8572 22.1396L38.825 23.8874L38.7507 21.2844L39.2311 21.0669L39.6283 25.5998Z" fill="#E37021"/>
<path fill-rule="evenodd" clip-rule="evenodd" d="M44.2377 21.5224L40.3363 20.3247L40.6181 19.9616L42.8878 20.5176L41.7274 18.5238L42.0092 18.1597L44.2377 21.5224Z" fill="#E37021"/>
<path fill-rule="evenodd" clip-rule="evenodd" d="M46.3459 16.7348L42.4896 17.2308L42.5919 16.784L44.6931 16.3687L42.9961 15.0264L43.0994 14.5786L46.3459 16.7348Z" fill="#E37021"/>
<path d="M0.456924 32.7712H54.8989V31.9888H0.456924V32.7712ZM165.338 32.7712H219.78V31.9888H165.338V32.7712Z" fill="#E37021"/>
<path d="M60.5694 34.2108C60.1492 34.2108 59.6969 34.14 59.2104 34.0012L59.3388 33.4402C59.7771 33.5692 60.1853 33.6341 60.5624 33.6341C61.3497 33.6341 61.7438 33.1824 61.7438 32.2809V32.0152H60.1091L60.0529 31.4464H61.7438C61.7438 30.9238 61.6476 30.5371 61.454 30.291C61.2604 30.043 60.9636 29.9181 60.5624 29.9181C60.2033 29.9181 59.7961 29.985 59.3388 30.1198L59.2104 29.5569C59.7109 29.4112 60.1642 29.3354 60.5694 29.3354C61.122 29.3354 61.5673 29.4968 61.9073 29.8177C62.2463 30.1385 62.4158 30.6079 62.4158 31.223V32.3282C62.4158 32.9393 62.2463 33.4048 61.9073 33.7256C61.5673 34.0494 61.121 34.2108 60.5694 34.2108Z" fill="#0061AA"/>
<path d="M64.8078 34.1203V29.4241H65.4798V31.4386H67.4535V29.4241H68.1185V34.1203H67.4535V32.0153H65.4798V34.1203H64.8078Z" fill="#0061AA"/>
<path d="M70.6378 34.1203V29.4241H73.2545V30.0086H71.3098V31.473H72.9666L72.9225 32.0369H71.3098V33.5358H73.3187V34.1203H70.6378Z" fill="#0061AA"/>
<path d="M75.7036 34.1203V29.426H77.2953C77.7245 29.426 78.0725 29.5628 78.3393 29.8374C78.6061 30.1139 78.7385 30.4505 78.7385 30.8481C78.7385 31.2417 78.6061 31.5783 78.3393 31.8548C78.0725 32.1314 77.7245 32.2721 77.2953 32.2721H76.3756V34.1193H75.7036V34.1203ZM76.3756 31.6964H77.2882C77.5289 31.6964 77.7175 31.6177 77.8549 31.4602C77.9913 31.3028 78.0595 31.099 78.0595 30.8491C78.0595 30.5991 77.9913 30.3974 77.8549 30.2419C77.7175 30.0864 77.5289 30.0096 77.2882 30.0096H76.3756V31.6964Z" fill="#0061AA"/>
<path d="M80.9469 34.1203V29.4241H83.4733V30.0086H81.6189V34.1203H80.9469Z" fill="#0061AA"/>
<path d="M85.5815 34.1203V29.425H86.2534V32.2101C86.2534 32.4926 86.2484 32.7179 86.2394 32.8852L88.4258 29.425H88.9644V34.1203H88.2914V31.3982C88.2914 31.162 88.3014 30.9288 88.3205 30.7024L86.1411 34.1203H85.5815Z" fill="#0061AA"/>
<path d="M91.2149 34.1203L92.1416 32.1806C91.8588 32.094 91.6341 31.9267 91.4696 31.6826C91.3041 31.4366 91.2209 31.1581 91.2209 30.8481C91.2209 30.4505 91.3553 30.1139 91.6211 29.8374C91.8878 29.5628 92.2339 29.426 92.6581 29.426H94.2929V34.1203H93.6199V32.2652H92.8206L91.9641 34.1203H91.2149ZM92.6792 31.6964H93.6199V30.0086H92.6792C92.4385 30.0086 92.2489 30.0854 92.1095 30.2409C91.9701 30.3964 91.9009 30.5981 91.9009 30.8481C91.9009 31.0981 91.9701 31.3018 92.1095 31.4592C92.2479 31.6177 92.4374 31.6964 92.6792 31.6964Z" fill="#0061AA"/>
<path d="M99.8531 34.1203V29.4241H103.172V34.1203H102.5V30.0027H100.525V34.1203H99.8531Z" fill="#0061AA"/>
<path d="M105.557 32.3213V31.2319C105.557 30.6266 105.723 30.1572 106.058 29.8285C106.393 29.4998 106.817 29.3364 107.333 29.3364C107.846 29.3364 108.271 29.4998 108.606 29.8285C108.941 30.1572 109.109 30.6266 109.109 31.2319V32.3213C109.109 32.9285 108.941 33.394 108.606 33.7207C108.271 34.0474 107.846 34.2108 107.333 34.2108C106.817 34.2108 106.393 34.0474 106.058 33.7207C105.723 33.394 105.557 32.9285 105.557 32.3213ZM106.229 32.2868C106.229 32.7366 106.327 33.0712 106.526 33.2936C106.723 33.515 106.993 33.6262 107.333 33.6262C107.672 33.6262 107.942 33.515 108.142 33.2936C108.343 33.0702 108.443 32.7366 108.443 32.2868V31.2722C108.443 30.8185 108.343 30.48 108.142 30.2556C107.942 30.0322 107.672 29.919 107.333 29.919C106.993 29.919 106.723 30.0322 106.526 30.2556C106.327 30.481 106.229 30.8185 106.229 31.2722V32.2868Z" fill="#0061AA"/>
<path d="M110.976 35.1389V33.5436H111.473C111.722 33.1726 111.925 32.5998 112.08 31.8253C112.234 31.0489 112.314 30.2488 112.321 29.426H115.029V33.5436H115.611V35.0296L114.98 35.1389V34.1183H111.605V35.0296L110.976 35.1389ZM112.221 33.5436H114.358V30.0027H112.944C112.915 30.8117 112.833 31.5232 112.696 32.1343C112.557 32.7445 112.401 33.2149 112.221 33.5436Z" fill="#0061AA"/>
<path d="M117.443 34.1203L118.009 29.425H118.794L119.799 32.0103C119.842 32.1127 119.904 32.3125 119.984 32.6136C120.074 32.3253 120.138 32.1255 120.181 32.0103L121.178 29.425H121.964L122.531 34.1203H121.871L121.497 30.9524C121.474 30.7585 121.454 30.5292 121.44 30.2665C121.346 30.5991 121.274 30.8274 121.229 30.9524L120.359 33.2297H119.615L118.745 30.9524C118.665 30.7546 118.589 30.5292 118.518 30.2793C118.495 30.6906 118.48 30.915 118.474 30.9524L118.108 34.1203H117.443Z" fill="#0061AA"/>
<path d="M124.668 32.3213V31.2319C124.668 30.6266 124.834 30.1572 125.169 29.8285C125.504 29.4998 125.929 29.3364 126.444 29.3364C126.957 29.3364 127.382 29.4998 127.717 29.8285C128.052 30.1572 128.221 30.6266 128.221 31.2319V32.3213C128.221 32.9285 128.052 33.394 127.717 33.7207C127.382 34.0474 126.957 34.2108 126.444 34.2108C125.928 34.2108 125.503 34.0474 125.169 33.7207C124.835 33.394 124.668 32.9285 124.668 32.3213ZM125.34 32.2868C125.34 32.7366 125.44 33.0712 125.637 33.2936C125.835 33.515 126.106 33.6262 126.445 33.6262C126.784 33.6262 127.054 33.515 127.254 33.2936C127.456 33.0702 127.556 32.7366 127.556 32.2868V31.2722C127.556 30.8185 127.456 30.48 127.254 30.2556C127.055 30.0322 126.784 29.919 126.445 29.919C126.106 29.919 125.836 30.0322 125.637 30.2556C125.44 30.481 125.34 30.8185 125.34 31.2722V32.2868Z" fill="#0061AA"/>
<path d="M133.554 33.4324L133.682 34.0032C133.196 34.1399 132.741 34.2108 132.323 34.2108C131.766 34.2108 131.318 34.0494 130.979 33.7286C130.64 33.4058 130.469 32.9403 130.469 32.3292V31.2181C130.469 30.6069 130.64 30.1395 130.979 29.8186C131.318 29.4978 131.766 29.3364 132.323 29.3364C132.754 29.3364 133.206 29.4093 133.682 29.5579L133.554 30.1129C133.115 29.984 132.708 29.919 132.33 29.919C131.962 29.919 131.672 30.0302 131.46 30.2497C131.249 30.4692 131.141 30.8047 131.141 31.2584V32.2868C131.141 32.7445 131.246 33.083 131.456 33.2995C131.666 33.519 131.956 33.6262 132.33 33.6262C132.732 33.6262 133.139 33.5613 133.554 33.4324Z" fill="#0061AA"/>
<path d="M135.933 34.1203V29.425H136.604V31.5724L137.574 31.2319C137.735 31.1758 137.856 31.099 137.942 31.0036C138.027 30.9052 138.091 30.7772 138.132 30.6139L138.457 29.426H139.115L138.762 30.7389C138.696 30.9849 138.607 31.1807 138.495 31.3313C138.386 31.477 138.232 31.5891 138.039 31.6639L139.333 34.1223H138.577L137.431 31.8923L136.602 32.1983V34.1223H135.933V34.1203Z" fill="#0061AA"/>
<path d="M141.331 32.3213V31.2319C141.331 30.6266 141.498 30.1572 141.833 29.8285C142.168 29.4998 142.593 29.3364 143.107 29.3364C143.621 29.3364 144.046 29.4998 144.381 29.8285C144.716 30.1572 144.885 30.6266 144.885 31.2319V32.3213C144.885 32.9285 144.716 33.394 144.381 33.7207C144.046 34.0474 143.621 34.2108 143.107 34.2108C142.592 34.2108 142.167 34.0474 141.833 33.7207C141.499 33.394 141.331 32.9285 141.331 32.3213ZM142.003 32.2868C142.003 32.7366 142.101 33.0712 142.301 33.2936C142.499 33.515 142.767 33.6262 143.108 33.6262C143.447 33.6262 143.717 33.515 143.918 33.2936C144.119 33.0702 144.22 32.7366 144.22 32.2868V31.2722C144.22 30.8185 144.119 30.48 143.918 30.2556C143.718 30.0322 143.447 29.919 143.108 29.919C142.767 29.919 142.5 30.0322 142.301 30.2556C142.101 30.481 142.003 30.8185 142.003 31.2722V32.2868Z" fill="#0061AA"/>
<path d="M148.71 34.1183H147.268V29.426H148.731C149.193 29.426 149.559 29.5412 149.828 29.7724C150.099 30.0047 150.231 30.3009 150.231 30.6621C150.231 31.1059 150.024 31.4346 149.608 31.6482C149.877 31.7486 150.079 31.9001 150.21 32.0999C150.342 32.2977 150.408 32.5211 150.408 32.7652C150.408 33.1263 150.261 33.4423 149.965 33.7129C149.672 33.9835 149.252 34.1183 148.71 34.1183ZM147.941 31.4327H148.662C148.939 31.4327 149.157 31.3677 149.316 31.2388C149.474 31.1079 149.554 30.9347 149.554 30.7182C149.554 30.4948 149.482 30.3226 149.337 30.1976C149.193 30.0726 148.984 30.0096 148.71 30.0096H147.94V31.4327H147.941ZM147.941 33.5357H148.705C149.034 33.5357 149.288 33.4669 149.465 33.3281C149.643 33.1893 149.732 33.0014 149.732 32.7652C149.732 32.525 149.652 32.3341 149.491 32.1963C149.331 32.0586 149.088 31.9867 148.762 31.9867H147.942V33.5357H147.941Z" fill="#0061AA"/>
<path d="M152.637 34.1183V29.426H153.309V31.3274H154.3C154.729 31.3274 155.077 31.4622 155.348 31.7309C155.617 31.9976 155.749 32.3302 155.749 32.7229C155.749 33.1165 155.616 33.4472 155.348 33.7168C155.077 33.9855 154.729 34.1183 154.3 34.1183H152.637ZM153.309 33.5436H154.292C154.533 33.5436 154.723 33.4688 154.86 33.3202C154.995 33.1726 155.063 32.9718 155.063 32.7229C155.063 32.4739 154.995 32.2751 154.86 32.1275C154.722 31.9798 154.533 31.9041 154.292 31.9041H153.309V33.5436Z" fill="#0061AA"/>
<path d="M157.635 34.1203L158.562 32.1806C158.278 32.094 158.054 31.9267 157.89 31.6826C157.723 31.4366 157.641 31.1581 157.641 30.8481C157.641 30.4505 157.774 30.1139 158.04 29.8374C158.307 29.5628 158.653 29.426 159.076 29.426H160.712V34.1203H160.038V32.2652H159.238L158.382 34.1203H157.635ZM159.098 31.6964H160.039V30.0086H159.098C158.857 30.0086 158.667 30.0854 158.528 30.2409C158.39 30.3964 158.321 30.5981 158.321 30.8481C158.321 31.0981 158.389 31.3018 158.528 31.4592C158.668 31.6167 158.857 31.6964 159.098 31.6964Z" fill="#0061AA"/>
</g>
<defs>
<clipPath id="clip0">
<rect width="220.644" height="34.4444" fill="white" transform="translate(0.456924 0.698486)"/>
</clipPath>
</defs>
</svg>
